<?xml version="1.0" encoding="utf-8"?>
<!-- Generator: Adobe Illustrator 17.0.0, SVG Export Plug-In . SVG Version: 6.00 Build 0)  -->
<!DOCTYPE svg PUBLIC "-//W3C//DTD SVG 1.1 Tiny//EN" "http://www.w3.org/Graphics/SVG/1.1/DTD/svg11-tiny.dtd">
<svg version="1.1" baseProfile="tiny" id="图层_1"
	 xmlns="http://www.w3.org/2000/svg" xmlns:xlink="http://www.w3.org/1999/xlink" x="0px" y="0px" width="480px" height="480px"
	 viewBox="0 0 480 480" xml:space="preserve">
<g>
	<rect x="106" y="195" width="90" height="30"/>
	<rect x="106" y="315" width="239" height="30"/>
	<path d="M252.92,281.344l63.502-12.013l117.541-173.97l-74.559-50.375l-117.54,173.97L252.92,281.344z M362.428,94.087
		l24.853,16.791l-92.314,136.633l-22.326,3.719l-2.527-20.51L362.428,94.087z"/>
	<path d="M375,374.999C375,391.564,362.041,405,345.476,405H105.526C88.962,405,76,391.564,76,374.999V135.05
		C76,118.485,88.962,105,105.526,105h188.538l19.996-30H105.526C72.396,75,46,101.92,46,135.05v239.949
		C46,408.129,72.396,435,105.526,435h239.949c33.13,0,59.524-26.871,59.524-60.001V178.237l-30,42.969V374.999z"/>
</g>
</svg>
