<?xml version="1.0" encoding="utf-8"?>
<!-- Generator: Adobe Illustrator 17.0.0, SVG Export Plug-In . SVG Version: 6.00 Build 0)  -->
<!DOCTYPE svg PUBLIC "-//W3C//DTD SVG 1.1 Tiny//EN" "http://www.w3.org/Graphics/SVG/1.1/DTD/svg11-tiny.dtd">
<svg version="1.1" baseProfile="tiny" id="图层_1"
	 xmlns="http://www.w3.org/2000/svg" xmlns:xlink="http://www.w3.org/1999/xlink" x="0px" y="0px" width="480px" height="480px"
	 viewBox="0 0 480 480" xml:space="preserve">
<g>
	<path d="M434.39,261.949L381,205V75h-60v66l-90-96L26.826,262.786l0.182,0.315C25.155,265.412,24,268.307,24,271.5
		c0,7.456,6.044,13.5,13.5,13.5c0.696,0,1.365-0.103,2.032-0.205L39.651,285H81v150h90V285h120v150h90V285h43.081l0.031-0.069
		c0.233,0.012,0.452,0.069,0.688,0.069c7.456,0,13.5-6.044,13.5-13.5c0-3.713-1.502-7.072-3.927-9.513L434.39,261.949z"/>
	<polygon points="455.828,284.817 455.722,285 456,285 	"/>
</g>
</svg>
