<?xml version="1.0" encoding="utf-8"?>
<!-- Generator: Adobe Illustrator 17.0.0, SVG Export Plug-In . SVG Version: 6.00 Build 0)  -->
<!DOCTYPE svg PUBLIC "-//W3C//DTD SVG 1.1 Tiny//EN" "http://www.w3.org/Graphics/SVG/1.1/DTD/svg11-tiny.dtd">
<svg version="1.1" baseProfile="tiny" id="图层_1"
	 xmlns="http://www.w3.org/2000/svg" xmlns:xlink="http://www.w3.org/1999/xlink" x="0px" y="0px" width="480px" height="480px"
	 viewBox="0 0 480 480" xml:space="preserve">
<path d="M240,45c-91.127,0-165,73.873-165,165c0,57.913,29.861,108.822,75,138.265V435l89.984-30L330,435v-86.735
	c45.139-29.443,75-80.353,75-138.265C405,118.873,331.127,45,240,45z M240,357c-46.413,0-88.322-19.191-118.303-50.037
	C131.238,250.232,180.557,207,240,207c-33.137,0-60-26.863-60-60s26.863-60,60-60s60,26.863,60,60s-26.863,60-60,60
	c59.443,0,108.762,43.232,118.303,99.963C328.322,337.809,286.413,357,240,357z"/>
</svg>
