<?xml version="1.0" encoding="utf-8"?>
<!-- Generator: Adobe Illustrator 17.0.0, SVG Export Plug-In . SVG Version: 6.00 Build 0)  -->
<!DOCTYPE svg PUBLIC "-//W3C//DTD SVG 1.1 Tiny//EN" "http://www.w3.org/Graphics/SVG/1.1/DTD/svg11-tiny.dtd">
<svg version="1.1" baseProfile="tiny" id="图层_1"
	 xmlns="http://www.w3.org/2000/svg" xmlns:xlink="http://www.w3.org/1999/xlink" x="0px" y="0px" width="480px" height="480px"
	 viewBox="0 0 480 480" xml:space="preserve">
<path d="M433.3,375.266c0.003-0.118,0.035-0.275,0.035-0.394c0-0.154-0.231-0.321-0.235-0.475
	C431.163,181.586,268,169.899,224,169.725v-62.089c1-0.957,0.488-1.947,0.488-2.961c0-8.243-6.587-14.925-14.83-14.925
	c-4.531,0-8.493,2.062-11.23,5.249l-141.2,121.058c-5.751,2.074-9.875,7.526-9.875,13.992c0,5.534,3.052,10.309,7.526,12.886
	l-0.002,0.225l145.599,124.671l0.185-0.104c2.471,1.814,5.494,2.919,8.794,2.919c8.243,0,14.926-6.682,14.926-14.925
	c0-0.459-0.284-0.892-0.325-1.34L224,354.303V288.12C369,291.914,403.484,378,403.484,378h0.301c1.383,7,7.404,11.94,14.625,11.94
	S431.651,385,433.034,378h0.301C433.335,377,433.307,376.151,433.3,375.266z M195,257.862v46.241l-0.297,19.785L95.55,238.667
	l-8.644-7.212l107.99-92.759L195,156.937v40.119c31,2.95,170.832,2.813,204.726,124.286C399.726,321.342,350,247.797,195,257.862z"
	/>
</svg>
