<?xml version="1.0" encoding="utf-8"?>
<!-- Generator: Adobe Illustrator 17.0.0, SVG Export Plug-In . SVG Version: 6.00 Build 0)  -->
<!DOCTYPE svg PUBLIC "-//W3C//DTD SVG 1.1 Tiny//EN" "http://www.w3.org/Graphics/SVG/1.1/DTD/svg11-tiny.dtd">
<svg version="1.1" baseProfile="tiny" id="图层_1"
	 xmlns="http://www.w3.org/2000/svg" xmlns:xlink="http://www.w3.org/1999/xlink" x="0px" y="0px" width="480px" height="480px"
	 viewBox="0 0 480 480" xml:space="preserve">
<g>
	<path d="M309.017,354.142c-16.838-5.613-53.775-16.8-64.924-27.949c-7.02-7.02-2.219-18.543,2.301-26.073
		c16.565-10.303,30.048-25.958,40.047-44.667c15.462-2.598,27.482-19.692,31.111-41.072c2.029-11.953,1.252-23.167-2.843-31.278
		c-1.949-3.862-4.694-6.949-7.9-9.355c0.025-1.285,0.067-2.571,0.067-3.856c0-72.127-48.072-117.65-107.371-117.65
		c-4.964,0-9.841,0.347-14.625,0.974c-23.253,1.731-53.324,9.431-68.949,12.701c-20.4,4.27-10.912,16.13-6.642,24.195
		c1.164,2.198,1.787,5.643,2.095,9.471c-12.122,18.792-19.25,42.572-19.25,70.307c0,0.938,0.036,1.875,0.05,2.813
		c-3.875,2.539-7.227,5.92-9.484,10.392c-4.095,8.111-4.871,19.317-2.843,31.27c3.781,22.276,16.676,39.855,33.078,41.279
		c10.124,18.721,23.72,34.338,40.313,44.598c4.485,7.532,9.147,18.863,2.187,25.823c-11.149,11.149-48.086,22.466-64.924,28.078
		C59.199,364.579,8.772,369,8.772,426h190.992h190.992C390.756,369,340.328,364.579,309.017,354.142z M35.06,406
		c0.893-6,10.689-16.666,19.616-19.939c7.14-2.618,73.652-24.93,93.739-34.821c22.969-11.31,29.163-21.13,29.351-39.576
		c0.146-14.328-14.838-28.485-22.619-34.865c-1.335-0.983-2.647-2.008-3.94-3.068c-0.402-0.294-0.631-0.453-0.631-0.453l0.06-0.016
		c-10.064-8.378-18.796-19.012-25.674-30.912c-0.584,0.225-1.185,0.41-1.805,0.542c-10.583,2.258-22.219-10.242-25.991-27.92
		c-3.62-16.964,1.321-32.524,11.077-35.749c0.443-25.823,6.359-49.417,17.895-67.829c0.1-0.458,0.302-0.961,0.638-1.524
		c8.238-13.799,1.236-24.921,3.089-26.568c1.534-1.364,33.255-6.113,44.14-7.708c7.839-2.102,16.388-3.222,25.66-3.222
		c59.374,0,90.599,47.93,91.43,107.549c8.629,4.374,12.799,19.093,9.394,35.052c-3.772,17.678-15.409,30.178-25.991,27.92
		c-0.26-0.055-0.513-0.126-0.766-0.198c-6.854,11.64-15.473,22.122-25.368,30.428l0.57,0.156c0,0-27.387,19.042-27.19,38.384
		c0.188,18.446,6.382,28.264,29.351,39.574c20.087,9.891,86.599,32.207,93.739,34.825c8.927,3.273,18.723,13.939,19.616,19.939
		H35.06z"/>
	<path d="M405.524,426h65.232c0-57-50.428-61.421-81.739-71.858c-16.838-5.613-53.775-16.8-64.924-27.949
		c-7.02-7.02-2.219-18.543,2.301-26.073c16.565-10.303,30.048-25.958,40.047-44.667c15.462-2.598,27.482-19.692,31.111-41.072
		c2.029-11.953,1.252-23.167-2.843-31.278c-1.949-3.862-4.694-6.949-7.9-9.355c0.025-1.285,0.067-2.571,0.067-3.856
		c0-72.127-48.072-117.65-107.371-117.65c-4.724,0-9.365,0.322-13.927,0.893c4.184,3.205,7.786,6.165,9.601,8.125
		c3.537,3.82,7.473,8.2,10.21,11.266c55.653,2.991,84.9,49.722,85.705,107.394c8.629,4.374,12.799,19.093,9.394,35.052
		c-3.772,17.678-15.409,30.178-25.991,27.92c-0.26-0.055-0.513-0.126-0.766-0.198c-6.854,11.64-15.473,22.122-25.368,30.428
		l0.57,0.156c0,0-27.387,19.042-27.19,38.384c0.188,18.446,6.382,28.264,29.351,39.574c20.087,9.891,86.599,32.207,93.739,34.825
		c8.927,3.273,18.723,13.939,19.616,19.939h-38.906L405.524,426z"/>
</g>
</svg>
