<?xml version="1.0" encoding="utf-8"?>
<!-- Generator: Adobe Illustrator 17.0.0, SVG Export Plug-In . SVG Version: 6.00 Build 0)  -->
<!DOCTYPE svg PUBLIC "-//W3C//DTD SVG 1.1 Tiny//EN" "http://www.w3.org/Graphics/SVG/1.1/DTD/svg11-tiny.dtd">
<svg version="1.1" baseProfile="tiny" id="图层_1"
	 xmlns="http://www.w3.org/2000/svg" xmlns:xlink="http://www.w3.org/1999/xlink" x="0px" y="0px" width="480px" height="480px"
	 viewBox="0 0 480 480" xml:space="preserve">
<g>
	<path d="M400,99H80c-11.046,0-20,8.954-20,20v200c0,11.046,8.954,20,20,20h150v21h-91v20h200v-20h-89v-21h150
		c11.046,0,20-8.954,20-20V119C420,107.954,411.046,99,400,99z M400,309c0,5.523-4.477,10-10,10H90c-5.523,0-10-4.477-10-10V129
		c0-5.523,4.477-10,10-10h300c5.523,0,10,4.477,10,10V309z"/>
	<rect x="100" y="139" width="100" height="20"/>
</g>
</svg>
