<?xml version="1.0" encoding="utf-8"?>
<!-- Generator: Adobe Illustrator 17.0.0, SVG Export Plug-In . SVG Version: 6.00 Build 0)  -->
<!DOCTYPE svg PUBLIC "-//W3C//DTD SVG 1.1 Tiny//EN" "http://www.w3.org/Graphics/SVG/1.1/DTD/svg11-tiny.dtd">
<svg version="1.1" baseProfile="tiny" id="图层_1"
	 xmlns="http://www.w3.org/2000/svg" xmlns:xlink="http://www.w3.org/1999/xlink" x="0px" y="0px" width="480px" height="480px"
	 viewBox="0 0 480 480" xml:space="preserve">
<g>
	<path d="M400,90H80c-11.046,0-20,8.954-20,20v200c0,11.046,8.954,20,20,20h108.102l52.249,59.115L292.599,330H400
		c11.046,0,20-8.954,20-20V110C420,98.954,411.046,90,400,90z M400,300c0,5.523-4.477,10-10,10h-79.724h-26.516l-43.41,49.115
		L196.941,310h-26.515H90c-5.523,0-10-4.477-10-10V120c0-5.523,4.477-10,10-10h300c5.523,0,10,4.477,10,10V300z"/>
	<path d="M224.688,137l-54.98,143h20.117l15.723-43h59.863l16.699,43h21.582l-58.594-143H224.688z M211.016,221l15.723-41.887
		c3.32-9.048,5.892-18.111,7.715-27.291c2.212,7.749,5.599,17.564,10.156,29.608L259.551,221H211.016z"/>
</g>
</svg>
