<?xml version="1.0" encoding="utf-8"?>
<!-- Generator: Adobe Illustrator 17.0.0, SVG Export Plug-In . SVG Version: 6.00 Build 0)  -->
<!DOCTYPE svg PUBLIC "-//W3C//DTD SVG 1.1 Tiny//EN" "http://www.w3.org/Graphics/SVG/1.1/DTD/svg11-tiny.dtd">
<svg version="1.1" baseProfile="tiny" id="图层_1"
	 xmlns="http://www.w3.org/2000/svg" xmlns:xlink="http://www.w3.org/1999/xlink" x="0px" y="0px" width="480px" height="480px"
	 viewBox="0 0 480 480" xml:space="preserve">
<path d="M320.258,53.664c-54.276,0-79.512,52.336-79.512,52.336h-0.166c0,0-25.235-52.336-79.512-52.336
	c-60.234,0-105.905,46.021-105.905,107.579c0,38.667,3.554,66.216,27.695,105.804c29.229,47.934,157.309,157.572,157.309,157.572
	l0.538,0.161c0,0,128.534-109.627,157.764-157.56c24.141-39.589,27.695-66.994,27.695-105.662
	C426.164,100.001,380.492,53.664,320.258,53.664z M379.204,259.141C353.543,301.223,240.7,393.182,240.7,393.182l-0.472-0.156
	c0,0-112.444-91.98-138.105-134.062c-21.194-34.756-24.314-54.679-24.314-88.625c0-54.043,30.385-94.732,83.265-94.732
	c45.394,0,79.517,68.393,79.517,68.393h0.145c0,0,38.462-69.071,79.817-69.071c52.881,0,82.965,41.51,82.965,95.552
	C403.518,204.428,400.398,224.385,379.204,259.141z"/>
</svg>
