<?xml version="1.0" encoding="utf-8"?>
<!-- Generator: Adobe Illustrator 17.0.0, SVG Export Plug-In . SVG Version: 6.00 Build 0)  -->
<!DOCTYPE svg PUBLIC "-//W3C//DTD SVG 1.1 Tiny//EN" "http://www.w3.org/Graphics/SVG/1.1/DTD/svg11-tiny.dtd">
<svg version="1.1" baseProfile="tiny" id="图层_1"
	 xmlns="http://www.w3.org/2000/svg" xmlns:xlink="http://www.w3.org/1999/xlink" x="0px" y="0px" width="480px" height="480px"
	 viewBox="0 0 480 480" xml:space="preserve">
<path d="M302.613,233.392c23.736-18.284,39.033-46.985,39.033-79.263c0-55.228-44.772-100-100-100c-55.229,0-100,44.772-100,100
	c0,32,15.032,60.487,38.418,78.791C93.976,257.467,29.441,333.128,21.37,425h30.119c9.764-95.773,90.66-170.5,189.011-170.5
	S419.747,329.227,429.511,425h30.119C451.611,333.723,387.863,258.437,302.613,233.392z M241.646,84.129c38.66,0,70,31.34,70,70
	c0,38.66-31.34,70-70,70s-70-31.34-70-70C171.646,115.469,202.986,84.129,241.646,84.129z"/>
</svg>
