<?xml version="1.0" encoding="utf-8"?>
<!-- Generator: Adobe Illustrator 17.0.0, SVG Export Plug-In . SVG Version: 6.00 Build 0)  -->
<!DOCTYPE svg PUBLIC "-//W3C//DTD SVG 1.1 Tiny//EN" "http://www.w3.org/Graphics/SVG/1.1/DTD/svg11-tiny.dtd">
<svg version="1.1" baseProfile="tiny" id="图层_1"
	 xmlns="http://www.w3.org/2000/svg" xmlns:xlink="http://www.w3.org/1999/xlink" x="0px" y="0px" width="480px" height="480px"
	 viewBox="0 0 480 480" xml:space="preserve">
<g>
	<path d="M240,229c44.183,0,80-35.817,80-80c0-44.183-35.817-80-80-80s-80,35.817-80,80C160,193.183,195.817,229,240,229z M240,89
		c33.137,0,60,26.863,60,60c0,33.137-26.863,60-60,60s-60-26.863-60-60C180,115.863,206.863,89,240,89z"/>
	<path d="M418.503,367.6c1.064-1.474,2.11-2.96,3.137-4.461c0.075-0.11,0.152-0.218,0.227-0.328
		c0.953-1.397,1.888-2.805,2.809-4.225c0.131-0.201,0.265-0.399,0.395-0.6C447.172,323.682,460,282.84,460,239
		c0-121.503-98.497-220-220-220S20,117.497,20,239s98.497,220,220,220c73.471,0,138.52-36.024,178.476-91.363
		C418.485,367.625,418.494,367.612,418.503,367.6z M240.5,39.5c110.457,0,200,89.543,200,200c0,34.832-8.912,67.58-24.568,96.1
		C375.736,282.966,312.34,249,241,249c-71.68,0-135.348,34.286-175.514,87.348C49.573,307.652,40.5,274.638,40.5,239.5
		C40.5,129.043,130.043,39.5,240.5,39.5z M240.5,439.5c-67.911,0-127.906-33.855-164.057-85.601C112.643,302.55,172.398,269,240,269
		c67.916,0,127.912,33.862,164.06,85.615C367.858,405.958,308.099,439.5,240.5,439.5z"/>
</g>
</svg>
