<?xml version="1.0" encoding="utf-8"?>
<!-- Generator: Adobe Illustrator 17.0.0, SVG Export Plug-In . SVG Version: 6.00 Build 0)  -->
<!DOCTYPE svg PUBLIC "-//W3C//DTD SVG 1.1 Tiny//EN" "http://www.w3.org/Graphics/SVG/1.1/DTD/svg11-tiny.dtd">
<svg version="1.1" baseProfile="tiny" id="图层_1"
	 xmlns="http://www.w3.org/2000/svg" xmlns:xlink="http://www.w3.org/1999/xlink" x="0px" y="0px" width="480px" height="480px"
	 viewBox="0 0 480 480" xml:space="preserve">
<path d="M461.315,192.607c0-7.717-6.256-13.973-13.973-13.973c-0.703,0-1.377,0.107-2.052,0.207l-139.641-7.531L254.965,39.87
	c-1.194-6.505-6.868-11.396-13.718-11.396c-6.503,0-11.92,4.525-13.479,10.525h-0.115l-51.055,132.356l-140.164,7.536
	c-0.762-0.129-1.533-0.246-2.331-0.246c-7.717,0-13.973,6.25-13.973,13.967c0,4.009,1.71,7.595,4.414,10.143l-0.044,0.134
	l112.219,91.155l-36.4,136.675c-0.785,1.747-1.245,3.67-1.245,5.709c0,7.717,6.256,13.973,13.973,13.973
	c3.621,0,6.888-1.413,9.371-3.672l118.704-76.832l118.226,76.522c2.518,2.457,5.95,3.981,9.746,3.981
	c7.717,0,13.973-6.256,13.973-13.972c0-1.693-0.347-3.294-0.898-4.796l-36.643-137.588l111.308-90.416l-0.21-0.648
	C459.482,200.421,461.315,196.744,461.315,192.607z M310.201,282.161l33.959,113.185L240.723,332.64l-106.948,71.485l37.47-121.964
	l-91.814-75.625l118.352-6.051l42.94-113.341l42.94,113.341l119.352,6.173L310.201,282.161z"/>
</svg>
