<?xml version="1.0" encoding="utf-8"?>
<!-- Generator: Adobe Illustrator 17.0.0, SVG Export Plug-In . SVG Version: 6.00 Build 0)  -->
<!DOCTYPE svg PUBLIC "-//W3C//DTD SVG 1.1 Tiny//EN" "http://www.w3.org/Graphics/SVG/1.1/DTD/svg11-tiny.dtd">
<svg version="1.1" baseProfile="tiny" id="图层_1"
	 xmlns="http://www.w3.org/2000/svg" xmlns:xlink="http://www.w3.org/1999/xlink" x="0px" y="0px" width="480px" height="480px"
	 viewBox="0 0 480 480" xml:space="preserve">
<g>
	<path d="M240,40C129.543,40,40,129.543,40,240s89.543,200,200,200s200-89.543,200-200S350.457,40,240,40z M239.5,409.5
		c-93.888,0-170-76.112-170-170s76.112-170,170-170s170,76.112,170,170S333.388,409.5,239.5,409.5z"/>
	<path d="M255,228.787V105c0-8.284-6.716-15-15-15s-15,6.716-15,15v123.784c-1.992,5.335-0.858,11.572,3.431,15.861l71.924,71.924
		c5.858,5.858,15.355,5.858,21.213,0s5.858-15.355,0-21.213L255,228.787z"/>
</g>
</svg>
