<?xml version="1.0" encoding="utf-8"?>
<!-- Generator: Adobe Illustrator 17.0.0, SVG Export Plug-In . SVG Version: 6.00 Build 0)  -->
<!DOCTYPE svg PUBLIC "-//W3C//DTD SVG 1.1 Tiny//EN" "http://www.w3.org/Graphics/SVG/1.1/DTD/svg11-tiny.dtd">
<svg version="1.1" baseProfile="tiny" id="图层_1"
	 xmlns="http://www.w3.org/2000/svg" xmlns:xlink="http://www.w3.org/1999/xlink" x="0px" y="0px" width="480px" height="480px"
	 viewBox="0 0 480 480" xml:space="preserve">
<g>
	<path d="M410.733,246h-140C259.688,246,251,254.954,251,266v190l9.135-3.022l-0.013,0.141l3.012-1.152l0.382-0.13
		c-0.003-0.006-0.012-0.012-0.015-0.018l77.414-29.273l83.499,31.573l0.224-0.243L431,456V266C431,254.954,421.779,246,410.733,246z
		 M419,439.143l-77.768-29.354l-0.343,0.278l-0.198-0.203L263,439.277V268c0-5.523,4.21-10,9.733-10h136
		c5.523,0,10.267,4.477,10.267,10V439.143z"/>
	<path d="M384.353,330.24c-0.148,0-0.291,0.023-0.433,0.044l-29.48-1.59l-10.7-27.749c-0.252-1.373-1.45-2.787-2.896-2.787
		c-1.373,0-2.517,0.841-2.846,1.841h-0.024l-10.778,28.323l-29.591,1.781c-0.161-0.027-0.324,0.043-0.492,0.043
		c-1.629,0-2.95,1.367-2.95,2.996c0,0.846,0.361,1.627,0.932,2.165l-0.009,0.04l23.691,19.25l-7.685,28.857
		c-0.166,0.369-0.263,0.776-0.263,1.207c0,1.629,1.321,2.95,2.95,2.95c0.764,0,1.454-0.298,1.978-0.775l25.06-16.22l24.959,16.155
		c0.532,0.519,1.256,0.841,2.057,0.841c1.629,0,2.95-1.321,2.95-2.95c0-0.357-0.073-0.696-0.19-1.012l-7.736-29.047l23.499-19.088
		l-0.044-0.137c0.603-0.54,0.99-1.317,0.99-2.19C387.303,331.561,385.982,330.24,384.353,330.24z"/>
	<path d="M292,122H144c-3.314,0-6,2.686-6,6s2.686,6,6,6h148c3.314,0,6-2.686,6-6S295.314,122,292,122z"/>
	<circle cx="113.5" cy="128.5" r="9"/>
	<path d="M298,188c0-3.314-2.686-6-6-6H144c-3.314,0-6,2.686-6,6s2.686,6,6,6h148C295.314,194,298,191.314,298,188z"/>
	<circle cx="113.5" cy="188.5" r="9"/>
	<circle cx="113.5" cy="248.5" r="9"/>
	<path d="M138,248c0,3.314,2.686,6,6,6h89v-12h-89C140.686,242,138,244.686,138,248z"/>
	<path d="M63,381V45c0-5.523,4.477-10,10-10h206v40c0,11.046,8.954,20,20,20h38v139h13V107V83.64l0.062-0.062L350,83.514V83h-0.505
		l-58.072-59.062L291,24.36V24h-24H70c-11.046,0-20,8.954-20,20v340c0,11.046,8.954,20,20,20h168v-13H73
		C67.477,391,63,386.523,63,381z M291,40.623L332.667,83H327h-26c-5.523,0-10-4.477-10-10V40.623z"/>
</g>
</svg>
