<?xml version="1.0" encoding="utf-8"?>
<!-- Generator: Adobe Illustrator 17.0.0, SVG Export Plug-In . SVG Version: 6.00 Build 0)  -->
<!DOCTYPE svg PUBLIC "-//W3C//DTD SVG 1.1 Tiny//EN" "http://www.w3.org/Graphics/SVG/1.1/DTD/svg11-tiny.dtd">
<svg version="1.1" baseProfile="tiny" id="图层_1"
	 xmlns="http://www.w3.org/2000/svg" xmlns:xlink="http://www.w3.org/1999/xlink" x="0px" y="0px" width="480px" height="480px"
	 viewBox="0 0 480 480" xml:space="preserve">
<g>
	<path d="M420,60H60c-22.091,0-40,17.909-40,40v280c0,22.091,17.909,40,40,40h360c22.091,0,40-17.909,40-40V100
		C460,77.909,442.091,60,420,60z M440,380c0,11.046-8.954,20-20,20H60c-11.046,0-20-8.954-20-20V180h400V380z M440,160H40v-60
		c0-11.046,8.954-20,20-20h360c11.046,0,20,8.954,20,20V160z"/>
	<rect x="81" y="251" width="80" height="20"/>
	<rect x="200" y="250" width="80" height="20"/>
	<rect x="321" y="250" width="80" height="20"/>
	<rect x="81" y="311" width="80" height="20"/>
	<rect x="200" y="310" width="80" height="20"/>
	<rect x="321" y="310" width="80" height="20"/>
</g>
</svg>
