<?xml version="1.0" encoding="utf-8"?>
<!-- Generator: Adobe Illustrator 17.0.0, SVG Export Plug-In . SVG Version: 6.00 Build 0)  -->
<!DOCTYPE svg PUBLIC "-//W3C//DTD SVG 1.1 Tiny//EN" "http://www.w3.org/Graphics/SVG/1.1/DTD/svg11-tiny.dtd">
<svg version="1.1" baseProfile="tiny" id="图层_1"
	 xmlns="http://www.w3.org/2000/svg" xmlns:xlink="http://www.w3.org/1999/xlink" x="0px" y="0px" width="480px" height="480px"
	 viewBox="0 0 480 480" xml:space="preserve">
<g>
	<path d="M108,371l66.289,1L450.633,95.865l-66.499-66.429L108,305.711V371z M129,312.428L383.851,57.721l38.284,38.284
		L167.428,350.712L129,351.127V312.428z"/>
	<path d="M410,410c0,11.046-8.954,20-20,20H70c-11.046,0-20-8.954-20-20V90c0-11.046,8.954-20,20-20h200V50H70
		c-22.091,0-40,17.909-40,40v320c0,22.091,17.909,40,40,40h320c22.091,0,40-17.909,40-40V210h-20V410z"/>
</g>
</svg>
