<?xml version="1.0" encoding="utf-8"?>
<!-- Generator: Adobe Illustrator 17.0.0, SVG Export Plug-In . SVG Version: 6.00 Build 0)  -->
<!DOCTYPE svg PUBLIC "-//W3C//DTD SVG 1.1 Tiny//EN" "http://www.w3.org/Graphics/SVG/1.1/DTD/svg11-tiny.dtd">
<svg version="1.1" baseProfile="tiny" id="图层_1"
	 xmlns="http://www.w3.org/2000/svg" xmlns:xlink="http://www.w3.org/1999/xlink" x="0px" y="0px" width="480px" height="480px"
	 viewBox="0 0 480 480" xml:space="preserve">
<path d="M446,188.166v-0.016L251.991,56.623c-2.73-2.499-6.301-4.036-10.29-4.036c-3.637,0-6.948,1.274-9.578,3.393l0.071,0.008
	L35,184.257v0.019c-3,1.456-4.671,4.265-4.671,7.495c0,3.093,1.52,5.795,3.975,7.297l-0.065,0.133l27.256,18.603l-0.011-0.006
	l177.364,120.337l0.049,0.102c1.537,0.966,2.559,2.672,2.559,4.622c0,0.096-0.01,0.19-0.015,0.285l0.083,0.161l0.017,11.675
	l-0.101,0.056c0.001,0.029,0.009,0.057,0.009,0.087c0,1.814-1.467,3.283-3.277,3.283c-0.85,0-1.618-0.333-2.201-0.865
	l-126.764-86.121l-0.112,0.043c-0.962-0.628-2.107-0.996-3.34-0.996c-2.827,0-5.003,1.921-5.712,4.529L100,275.087v49.664
	l-0.194,0.007c0,0.028-0.103,0.055-0.103,0.083c0,7.244,3.808,13.383,9.684,16.336l123.757,84.533l0.721,0.128
	c2.253,1.005,4.788,1.575,7.456,1.575c0.56,0,0.679-0.029,1.679-0.076v0.033l0.115-0.044c2.577-0.245,4.961-1.026,7.07-2.216
	l0.23-0.074l127.303-85.357l0.016-0.034c4.883-3.307,8.065-8.939,8.065-15.335c0-0.4-0.034-0.791-0.058-1.185l-0.021-78.109
	l60.242-42.446l0.002-0.1c2.377-1.526,3.855-4.19,3.855-7.228C449.819,192.304,448,189.714,446,188.166z M336,199.304v0.028
	l-85.319,58.485l-0.055-0.02c-0.963,0.851-2.23,1.372-3.616,1.372c-3.016,0-5.242-2.448-5.242-5.467c0-0.086,0.232-0.17,0.232-0.255
	v-32.829l-54.476,37.2l-0.156-0.02c-0.963,0.851-2.28,1.372-3.666,1.372c-3.016,0-5.588-2.448-5.588-5.467
	c0-0.079-0.115-0.156-0.115-0.235v-117.43l0.13-0.014c-0.001-0.041,0.043-0.082,0.043-0.123c0-3.022,2.47-5.471,5.487-5.471
	c1.378,0,2.646,0.515,3.607,1.359l0.285-0.026L242,168.756v-32.718l-0.192-0.014c-0.001-0.041-0.117-0.082-0.117-0.123
	c0-3.022,2.39-5.471,5.406-5.471c1.378,0,2.606,0.515,3.567,1.359l-0.022-0.026L336,190.055v0.034c2,0.978,2.535,2.653,2.535,4.557
	C338.535,196.62,338,198.345,336,199.304z"/>
</svg>
