<?xml version="1.0" encoding="utf-8"?>
<!-- Generator: Adobe Illustrator 17.0.0, SVG Export Plug-In . SVG Version: 6.00 Build 0)  -->
<!DOCTYPE svg PUBLIC "-//W3C//DTD SVG 1.1 Tiny//EN" "http://www.w3.org/Graphics/SVG/1.1/DTD/svg11-tiny.dtd">
<svg version="1.1" baseProfile="tiny" id="图层_1"
	 xmlns="http://www.w3.org/2000/svg" xmlns:xlink="http://www.w3.org/1999/xlink" x="0px" y="0px" width="480px" height="480px"
	 viewBox="0 0 480 480" xml:space="preserve">
<g>
	<path d="M330,30H150c-33.137,0-60,26.863-60,60v300c0,33.137,26.863,60,60,60h180c33.137,0,60-26.863,60-60V90
		C390,56.863,363.137,30,330,30z M150,60h180c16.568,0,30,13.431,30,30v210H120V90C120,73.431,133.432,60,150,60z M330,420H150
		c-16.568,0-30-13.432-30-30v-60h240v60C360,406.568,346.568,420,330,420z"/>
	<circle cx="240" cy="375" r="15"/>
</g>
</svg>
