<?xml version="1.0" encoding="utf-8"?>
<!-- Generator: Adobe Illustrator 17.0.0, SVG Export Plug-In . SVG Version: 6.00 Build 0)  -->
<!DOCTYPE svg PUBLIC "-//W3C//DTD SVG 1.1 Tiny//EN" "http://www.w3.org/Graphics/SVG/1.1/DTD/svg11-tiny.dtd">
<svg version="1.1" baseProfile="tiny" id="图层_1"
	 xmlns="http://www.w3.org/2000/svg" xmlns:xlink="http://www.w3.org/1999/xlink" x="0px" y="0px" width="480px" height="480px"
	 viewBox="0 0 480 480" xml:space="preserve">
<path d="M400.127,248.9c-7.208-13.983-11.968-21.333-14.429-24.772c-4.246-11.999-8.794-26.04-9.823-30.897
	c0.746-13.023,2.337-85.408-50.952-122.886C278.537,37.573,246.362,42,242.903,42h-4.589c-3.471,0-35.257-4.427-81.803,28.346
	c-53.473,37.478-51.876,109.895-51.128,122.918c-1.032,4.857-5.597,18.882-9.857,30.881c-2.469,3.439-7.245,10.78-14.479,24.763
	c-14.81,27.65-16.72,80.569-6.899,96.97c3.927,6.559,10.164,10.32,17.111,10.32c9.231,0,16.932-5.266,23.033-12.086
	c3.966,7.294,8.449,13.563,12.767,18.756c-10.561,5.476-19.881,13.367-23.378,21.915c-3.572,8.735-1.997,19.473,4.215,28.724
	c7.737,11.524,25.321,25.26,65.162,25.26c37.743,0,57.781-12.619,67.623-22.344c9.956,9.724,30.137,22.344,67.75,22.344
	c39.704,0,57.228-13.736,64.939-25.26c6.19-9.251,7.76-19.989,4.2-28.724c-3.485-8.549-12.773-16.439-23.298-21.916
	c4.304-5.193,8.771-11.463,12.724-18.757c6.08,6.819,13.754,12.085,22.954,12.085c6.923,0,13.138-3.764,17.052-10.322
	C416.79,329.474,414.887,276.55,400.127,248.9z M384.609,320.48c-2.617-4.086-5.296-9.277-7.15-14.095l-16.091,6.175l-11.708-2.443
	c-6.157,29.806-30.327,47.103-30.569,47.273c0,0-4.282,9.8-1.973,16.55c2.309,6.75,10.101,8.882,10.101,8.882
	c7.431,0,20.571,7.731,23.81,11.897c-0.177,0.785-0.766,2.621-2.743,4.664c-3.128,3.233-13.724,10.861-40.303,10.861
	c-30.576,0-42.637-9.869-48.537-14.797l-0.118,0.164c0,0-4.974-6.04-17.408-6.04s-17.527,3.066-20.013,5.382
	c-4.187,4.732-17.139,15.29-48.848,15.29c-26.67,0-36.852-7.627-39.991-10.861c-1.983-2.043-2.574-3.878-2.752-4.664
	c3.25-4.166,16.435-11.897,23.892-11.897c0,0,5.527-1.776,8.547-10.125c3.02-8.349-0.391-15.311-0.391-15.311
	c-0.243-0.169-24.497-17.471-30.675-47.277l-11.749,2.434l-16.148-6.192c-1.861,4.818-4.552,9.975-7.177,14.061
	c-0.33-5.004-0.328-11.649,0.412-19.889c1.392-15.512,4.954-30.591,9.17-38.466C114.732,245.553,119.004,240,118.996,240h-0.001
	l1.683-1.891l0.877-2.401c3.356-9.34,11.264-31.928,12.233-40.149l0.169-1.436l-0.126-1.444
	c-0.058-0.677-5.376-68.031,39.017-99.145c21.408-15.071,38.47-20.599,49.059-22.58c6.085-1.254,23.938-3.544,37.92,0.169
	c0.025,0.007,0.049,0.025,0.074,0.032c11.244,2.134,25.962,7.764,46.655,22.382C350.796,124.651,344,192.008,344,192.685v1.449
	l1.868,1.446c0.965,8.221,9.697,30.83,13.041,40.17l1.299,1.86L362.23,239h0.039c-0.008,0,4.269,6.053,12.776,22.557
	c4.201,7.874,7.762,23.162,9.149,38.674C384.931,308.471,384.938,315.476,384.609,320.48z"/>
</svg>
