<?xml version="1.0" encoding="utf-8"?>
<!-- Generator: Adobe Illustrator 17.0.0, SVG Export Plug-In . SVG Version: 6.00 Build 0)  -->
<!DOCTYPE svg PUBLIC "-//W3C//DTD SVG 1.1 Tiny//EN" "http://www.w3.org/Graphics/SVG/1.1/DTD/svg11-tiny.dtd">
<svg version="1.1" baseProfile="tiny" id="图层_1"
	 xmlns="http://www.w3.org/2000/svg" xmlns:xlink="http://www.w3.org/1999/xlink" x="0px" y="0px" width="480px" height="480px"
	 viewBox="0 0 480 480" xml:space="preserve">
<path d="M240.06,29.594c-115.98,0-210,94.02-210,210s94.02,210,210,210c115.98,0,210-94.02,210-210S356.04,29.594,240.06,29.594z
	 M233.232,391.09c-16.569,0-30.001-13.432-30.001-30.001c0-16.569,13.432-30.001,30.001-30.001
	c16.569,0,30.001,13.432,30.001,30.001C263.233,377.658,249.801,391.09,233.232,391.09z M324.674,246.213
	c-0.053,0.077-0.108,0.153-0.161,0.229c-0.931,1.331-10.859,13.926-21.824,20.738C296.642,270.936,270.129,285,261.852,301h-52.516
	c9.346-35,42.559-58.658,68.76-75.552c7.307-4.711,14.967-21.561,14.967-35.416c0-27.165-22.021-49.217-49.186-49.217
	c-27.165,0-49.186,22.007-49.186,49.007c0,0-49.388-0.119-49.142-1.515c0.93-53.21,44.581-96.589,98.328-96.589
	c54.329,0,98.372,44.23,98.372,98.559C342.249,211.124,335.738,230.305,324.674,246.213z"/>
</svg>
