<?xml version="1.0" encoding="utf-8"?>
<!-- Generator: Adobe Illustrator 17.0.0, SVG Export Plug-In . SVG Version: 6.00 Build 0)  -->
<!DOCTYPE svg PUBLIC "-//W3C//DTD SVG 1.1 Tiny//EN" "http://www.w3.org/Graphics/SVG/1.1/DTD/svg11-tiny.dtd">
<svg version="1.1" baseProfile="tiny" id="图层_1"
	 xmlns="http://www.w3.org/2000/svg" xmlns:xlink="http://www.w3.org/1999/xlink" x="0px" y="0px" width="480px" height="480px"
	 viewBox="0 0 480 480" xml:space="preserve">
<path d="M240,30C124.02,30,30,124.02,30,240s94.02,210,210,210s210-94.02,210-210S355.98,30,240,30z M240,420
	c-99.411,0-180-80.589-180-180S140.589,60,240,60s180,80.589,180,180S339.411,420,240,420z M345,240c0,57.99-47.01,105-105,105
	s-105-47.01-105-105s47.01-105,105-105S345,182.01,345,240z"/>
</svg>
