<?xml version="1.0" encoding="utf-8"?>
<!-- Generator: Adobe Illustrator 17.0.0, SVG Export Plug-In . SVG Version: 6.00 Build 0)  -->
<!DOCTYPE svg PUBLIC "-//W3C//DTD SVG 1.1 Tiny//EN" "http://www.w3.org/Graphics/SVG/1.1/DTD/svg11-tiny.dtd">
<svg version="1.1" baseProfile="tiny" id="图层_1"
	 xmlns="http://www.w3.org/2000/svg" xmlns:xlink="http://www.w3.org/1999/xlink" x="0px" y="0px" width="480px" height="480px"
	 viewBox="0 0 480 480" xml:space="preserve">
<path d="M430.682,414.486l-74.176-74.176c29.872-32.103,48.171-75.119,48.171-122.429c0-99.303-80.501-179.803-179.803-179.803
	S45.071,118.578,45.071,217.881c0,99.302,80.501,179.803,179.803,179.803c41.193,0,79.124-13.884,109.442-37.184l75.176,75.176
	c5.851,5.851,15.338,5.851,21.19,0C436.534,429.824,436.534,420.337,430.682,414.486z M75.038,217.881
	c0-82.752,67.084-149.836,149.836-149.836s149.836,67.084,149.836,149.836c0,82.752-67.084,149.836-149.836,149.836
	S75.038,300.633,75.038,217.881z"/>
</svg>
