<?xml version="1.0" encoding="utf-8"?>
<!-- Generator: Adobe Illustrator 17.0.0, SVG Export Plug-In . SVG Version: 6.00 Build 0)  -->
<!DOCTYPE svg PUBLIC "-//W3C//DTD SVG 1.1//EN" "http://www.w3.org/Graphics/SVG/1.1/DTD/svg11.dtd">
<svg version="1.1" id="图层_1" xmlns="http://www.w3.org/2000/svg" xmlns:xlink="http://www.w3.org/1999/xlink" x="0px" y="0px"
	 width="480px" height="480px" viewBox="0 0 480 480" enable-background="new 0 0 480 480" xml:space="preserve">
<g>
	<path d="M134.702,306.419c0,0,66.298-88.74,191.298-90.364v73.608l109.071-102.731L326,84.2v70.997
		C301,155.96,163.428,166.55,134.702,306.419z"/>
	<path d="M404,335.831C404,352.337,390.5,366,373.994,366H105.02C88.514,366,75,352.337,75,335.831V156.515
		C75,140.009,88.514,127,105.02,127H284V97H105.02C72.009,97,45,123.504,45,156.515v179.316C45,368.842,72.009,396,105.02,396
		h268.974C407.005,396,434,368.842,434,335.831V276h-30V335.831z"/>
</g>
</svg>
