<?xml version="1.0" encoding="utf-8"?>
<!-- Generator: Adobe Illustrator 17.0.0, SVG Export Plug-In . SVG Version: 6.00 Build 0)  -->
<!DOCTYPE svg PUBLIC "-//W3C//DTD SVG 1.1 Tiny//EN" "http://www.w3.org/Graphics/SVG/1.1/DTD/svg11-tiny.dtd">
<svg version="1.1" baseProfile="tiny" id="图层_1"
	 xmlns="http://www.w3.org/2000/svg" xmlns:xlink="http://www.w3.org/1999/xlink" x="0px" y="0px" width="480px" height="480px"
	 viewBox="0 0 480 480" xml:space="preserve">
<g>
	<path d="M240,30C124.02,30,30,124.02,30,240c0,115.98,94.02,210,210,210s210-94.02,210-210C450,124.02,355.98,30,240,30z M240,420
		c-99.411,0-180-80.589-180-180S140.589,60,240,60s180,80.589,180,180S339.411,420,240,420z"/>
	<path d="M255,248.787V105c0-8.284-6.716-15-15-15s-15,6.716-15,15v150c0,4.451,1.977,8.406,5.056,11.154
		c0.184,0.205,0.32,0.436,0.517,0.633l63.64,63.64c5.858,5.858,15.355,5.858,21.213,0c5.858-5.858,5.858-15.355,0-21.213
		L255,248.787z"/>
</g>
</svg>
