<?xml version="1.0" encoding="utf-8"?>
<!-- Generator: Adobe Illustrator 17.0.0, SVG Export Plug-In . SVG Version: 6.00 Build 0)  -->
<!DOCTYPE svg PUBLIC "-//W3C//DTD SVG 1.1 Tiny//EN" "http://www.w3.org/Graphics/SVG/1.1/DTD/svg11-tiny.dtd">
<svg version="1.1" baseProfile="tiny" id="图层_1"
	 xmlns="http://www.w3.org/2000/svg" xmlns:xlink="http://www.w3.org/1999/xlink" x="0px" y="0px" width="480px" height="480px"
	 viewBox="0 0 480 480" xml:space="preserve">
<path d="M282.78,240.354l127.279-127.279c11.716-11.716,11.716-30.711,0-42.426c-11.716-11.716-30.711-11.716-42.426,0
	L240.354,197.927L112.367,69.941c-11.716-11.716-30.711-11.716-42.426,0c-11.716,11.716-11.716,30.711,0,42.426l127.986,127.986
	L70.648,367.633c-11.716,11.716-11.716,30.711,0,42.426c11.716,11.716,30.711,11.716,42.426,0L240.354,282.78l126.572,126.572
	c11.716,11.716,30.711,11.716,42.426,0c11.716-11.716,11.716-30.711,0-42.426L282.78,240.354z"/>
</svg>
