<?xml version="1.0" encoding="utf-8"?>
<!-- Generator: Adobe Illustrator 17.0.0, SVG Export Plug-In . SVG Version: 6.00 Build 0)  -->
<!DOCTYPE svg PUBLIC "-//W3C//DTD SVG 1.1//EN" "http://www.w3.org/Graphics/SVG/1.1/DTD/svg11.dtd">
<svg version="1.1" id="图层_1" xmlns="http://www.w3.org/2000/svg" xmlns:xlink="http://www.w3.org/1999/xlink" x="0px" y="0px"
	 width="480px" height="480px" viewBox="0 0 480 480" enable-background="new 0 0 480 480" xml:space="preserve">
<path d="M260.812,235.288c21.859-16.185,36.035-42.155,36.035-71.442C296.846,114.778,257.068,75,208,75
	s-88.846,39.778-88.846,88.846c0,29.287,14.176,55.257,36.035,71.442C82.841,257.777,30.308,325.254,30.308,405h25.385h304.615
	h25.385C385.692,325.254,333.159,257.777,260.812,235.288z"/>
<path d="M323.812,235.288c21.859-16.185,36.035-42.155,36.035-71.442C359.846,114.778,320.068,75,271,75
	c-8.498,0-16.717,1.195-24.5,3.423c37.153,10.636,64.346,44.853,64.346,85.423c0,29.287-14.176,55.257-36.035,71.442
	C347.159,257.777,399.692,325.253,399.692,405h23.615h25.385C448.692,325.253,396.159,257.777,323.812,235.288z"/>
</svg>
