<?xml version="1.0" encoding="utf-8"?>
<!-- Generator: Adobe Illustrator 17.0.0, SVG Export Plug-In . SVG Version: 6.00 Build 0)  -->
<!DOCTYPE svg PUBLIC "-//W3C//DTD SVG 1.1 Tiny//EN" "http://www.w3.org/Graphics/SVG/1.1/DTD/svg11-tiny.dtd">
<svg version="1.1" baseProfile="tiny" id="图层_1"
	 xmlns="http://www.w3.org/2000/svg" xmlns:xlink="http://www.w3.org/1999/xlink" x="0px" y="0px" width="480px" height="480px"
	 viewBox="0 0 480 480" xml:space="preserve">
<path d="M261.112,8.686l210.233,210.233c11.716,11.716,11.716,30.711,0,42.426c-11.716,11.716-30.711,11.716-42.426,0
	L240.015,72.442L51.092,261.365c-11.716,11.716-30.731,11.736-42.447,0.021c-11.716-11.716-11.757-30.669-0.041-42.385
	L216.58,11.024c0.654-0.806,1.355-1.588,2.106-2.338C230.402-3.03,249.397-3.03,261.112,8.686z"/>
<path d="M261.112,218.686l210.233,210.233c11.716,11.716,11.716,30.711,0,42.426c-11.716,11.716-30.711,11.716-42.426,0
	L240.015,282.442L51.092,471.365c-11.716,11.716-30.731,11.736-42.447,0.021c-11.716-11.716-11.757-30.669-0.041-42.385
	L216.58,221.024c0.654-0.806,1.355-1.588,2.106-2.338C230.402,206.97,249.397,206.97,261.112,218.686z"/>
</svg>
