<?xml version="1.0" encoding="utf-8"?>
<!-- Generator: Adobe Illustrator 17.0.0, SVG Export Plug-In . SVG Version: 6.00 Build 0)  -->
<!DOCTYPE svg PUBLIC "-//W3C//DTD SVG 1.1 Tiny//EN" "http://www.w3.org/Graphics/SVG/1.1/DTD/svg11-tiny.dtd">
<svg version="1.1" baseProfile="tiny" id="图层_1"
	 xmlns="http://www.w3.org/2000/svg" xmlns:xlink="http://www.w3.org/1999/xlink" x="0px" y="0px" width="480px" height="480px"
	 viewBox="0 0 480 480" xml:space="preserve">
<path d="M218.857,471.376L8.624,261.143c-11.716-11.716-11.716-30.711,0-42.426c11.716-11.716,30.711-11.716,42.426,0
	L239.954,407.62l188.924-188.924c11.716-11.716,30.731-11.736,42.447-0.021c11.716,11.716,11.757,30.669,0.041,42.385
	L263.389,469.038c-0.654,0.806-1.355,1.588-2.106,2.338C249.567,483.092,230.572,483.092,218.857,471.376z"/>
<path d="M218.857,261.376L8.624,51.143c-11.716-11.716-11.716-30.711,0-42.426c11.716-11.716,30.711-11.716,42.426,0L239.954,197.62
	L428.877,8.696c11.716-11.716,30.731-11.736,42.447-0.021c11.716,11.716,11.757,30.669,0.041,42.385L263.389,259.038
	c-0.654,0.806-1.355,1.588-2.106,2.338C249.567,273.092,230.572,273.092,218.857,261.376z"/>
</svg>
