<?xml version="1.0" encoding="utf-8"?>
<!-- Generator: Adobe Illustrator 17.0.0, SVG Export Plug-In . SVG Version: 6.00 Build 0)  -->
<!DOCTYPE svg PUBLIC "-//W3C//DTD SVG 1.1 Tiny//EN" "http://www.w3.org/Graphics/SVG/1.1/DTD/svg11-tiny.dtd">
<svg version="1.1" baseProfile="tiny" id="图层_1"
	 xmlns="http://www.w3.org/2000/svg" xmlns:xlink="http://www.w3.org/1999/xlink" x="0px" y="0px" width="480px" height="480px"
	 viewBox="0 0 480 480" xml:space="preserve">
<path d="M314.061,240L134.123,60.062c-5.848-5.848-5.848-15.329,0-21.176c5.848-5.848,15.329-5.848,21.176,0l189.938,189.938
	c0.21,0.188,0.446,0.327,0.648,0.529c2.939,2.939,4.395,6.795,4.38,10.647c0.015,3.852-1.441,7.708-4.38,10.647
	c-0.202,0.202-0.438,0.341-0.648,0.529L155.299,441.114c-5.848,5.848-15.328,5.848-21.176,0c-5.848-5.848-5.848-15.329,0-21.176
	L314.061,240z"/>
</svg>
