<?xml version="1.0" encoding="utf-8"?>
<!-- Generator: Adobe Illustrator 17.0.0, SVG Export Plug-In . SVG Version: 6.00 Build 0)  -->
<!DOCTYPE svg PUBLIC "-//W3C//DTD SVG 1.1 Tiny//EN" "http://www.w3.org/Graphics/SVG/1.1/DTD/svg11-tiny.dtd">
<svg version="1.1" baseProfile="tiny" id="图层_1"
	 xmlns="http://www.w3.org/2000/svg" xmlns:xlink="http://www.w3.org/1999/xlink" x="0px" y="0px" width="480px" height="480px"
	 viewBox="0 0 480 480" xml:space="preserve">
<g>
	<path d="M340,199.282V139c0-11.046-8.954-20-20-20H40c-11.046,0-20,8.954-20,20v200c0,11.046,8.954,20,20,20h280
		c11.046,0,20-8.954,20-20v-58.644l120,79.282V120L340,199.282z M440,324.544L340.331,257l-0.101,0.053
		c-1.912-0.884-4.034-1.391-6.278-1.391c-7.422,0-12.568,5.395-13.771,12.474L320,268.231v1.479
		c-0.02,0.317-0.048,0.631-0.048,0.952c0,0.365,0.022,0.726,0.048,1.084V329c0,5.523-4.477,10-10,10H50c-5.523,0-10-4.477-10-10V149
		c0-5.523,4.477-10,10-10h260c5.523,0,10,4.477,10,10v57.578c-0.026,0.359-0.048,0.719-0.048,1.084c0,8.284,5.716,15,14,15
		c3.332,0,6.4-1.1,8.89-2.938L440,153.63V324.544z"/>
	<polygon points="140,299.13 226.832,239.293 140,179.456 	"/>
</g>
</svg>
