<?xml version="1.0" encoding="utf-8"?>
<!-- Generator: Adobe Illustrator 17.0.0, SVG Export Plug-In . SVG Version: 6.00 Build 0)  -->
<!DOCTYPE svg PUBLIC "-//W3C//DTD SVG 1.1//EN" "http://www.w3.org/Graphics/SVG/1.1/DTD/svg11.dtd">
<svg version="1.1" id="图层_1" xmlns="http://www.w3.org/2000/svg" xmlns:xlink="http://www.w3.org/1999/xlink" x="0px" y="0px"
	 width="480px" height="480px" viewBox="0 0 480 480" enable-background="new 0 0 480 480" xml:space="preserve">
<g>
	<path fill="#030000" d="M425,96.76h-90V73.108c0-22.201-16.299-40.263-36.333-40.263H181.333C161.299,32.845,145,50.907,145,73.108
		V96.76H55v30h15.308l15.048,284.938c0.212,19.385,14.438,35.081,31.892,35.081h245.502c17.455,0,31.68-15.696,31.893-35.081
		l15.048-284.938H425V96.76z M175,73.108c0-5.874,3.344-10.263,6.333-10.263h117.333c2.989,0,6.333,4.389,6.333,10.263V96.76H175
		V73.108z M364.666,410.467l-0.021,0.791c0,3.125-1.404,5.1-2.089,5.521H117.444c-0.686-0.422-2.089-2.396-2.089-5.521v-0.396
		L100.35,126.76h279.299L364.666,410.467z"/>
	<polygon fill="#030000" points="184.22,358 174.415,198 145,198 154.805,358 	"/>
	<polygon fill="#030000" points="335,198 305.585,198 295.78,358 325.195,358 	"/>
	<rect x="225.333" y="198" fill="#030000" width="29.415" height="160"/>
</g>
</svg>
