<?xml version="1.0" encoding="utf-8"?>
<!-- Generator: Adobe Illustrator 17.0.0, SVG Export Plug-In . SVG Version: 6.00 Build 0)  -->
<!DOCTYPE svg PUBLIC "-//W3C//DTD SVG 1.1//EN" "http://www.w3.org/Graphics/SVG/1.1/DTD/svg11.dtd">
<svg version="1.1" id="图层_1" xmlns="http://www.w3.org/2000/svg" xmlns:xlink="http://www.w3.org/1999/xlink" x="0px" y="0px"
	 width="480px" height="480px" viewBox="0 0 480 480" enable-background="new 0 0 480 480" xml:space="preserve">
<g>
	<path d="M374,359.539c0,16.53-13.022,29.461-29.552,29.461H105.012C88.483,389,75,376.069,75,359.539V150.033
		C75,133.503,88.483,120,105.012,120H255V90H105.012C71.953,90,45,116.973,45,150.033v209.507C45,392.599,71.953,419,105.012,419
		h239.436C377.508,419,404,392.599,404,359.539V240h-30V359.539z"/>
	<path d="M426.477,90.138l-21.163-21.163c-11.688-11.688-30.82-10.498-42.508,1.19l-20.478,20.478l63.49,63.49l20.478-20.478
		C437.984,121.967,438.165,101.826,426.477,90.138z"/>
	<polygon points="172.534,323.938 235.825,324.125 384.655,175.296 321.165,111.806 172.335,260.635 	"/>
</g>
</svg>
