<?xml version="1.0" encoding="utf-8"?>
<!-- Generator: Adobe Illustrator 17.0.0, SVG Export Plug-In . SVG Version: 6.00 Build 0)  -->
<!DOCTYPE svg PUBLIC "-//W3C//DTD SVG 1.1 Tiny//EN" "http://www.w3.org/Graphics/SVG/1.1/DTD/svg11-tiny.dtd">
<svg version="1.1" baseProfile="tiny" id="图层_1"
	 xmlns="http://www.w3.org/2000/svg" xmlns:xlink="http://www.w3.org/1999/xlink" x="0px" y="0px" width="480px" height="480px"
	 viewBox="0 0 480 480" xml:space="preserve">
<path d="M400.127,248.9c-7.208-13.983-11.968-21.333-14.429-24.772c-4.246-11.999-8.794-26.04-9.823-30.897
	c0.746-13.023,2.337-85.408-50.952-122.886C278.537,37.573,246.362,42,242.903,42h-4.589c-3.471,0-35.257-4.427-81.803,28.346
	c-53.473,37.478-51.876,109.895-51.128,122.918c-1.032,4.857-5.597,18.882-9.857,30.881c-2.469,3.439-7.245,10.78-14.479,24.763
	c-14.81,27.65-16.72,80.569-6.899,96.97c3.927,6.559,10.164,10.32,17.111,10.32c9.231,0,16.932-5.266,23.033-12.086
	c3.966,7.294,8.449,13.563,12.767,18.756c-10.561,5.476-19.881,13.367-23.378,21.915c-3.572,8.735-1.997,19.473,4.215,28.724
	c7.737,11.524,25.321,25.26,65.162,25.26c37.743,0,57.781-12.619,67.623-22.344c9.956,9.724,30.137,22.344,67.75,22.344
	c39.704,0,57.228-13.736,64.939-25.26c6.19-9.251,7.76-19.989,4.2-28.724c-3.485-8.549-12.773-16.439-23.298-21.916
	c4.304-5.193,8.771-11.463,12.724-18.757c6.08,6.819,13.754,12.085,22.954,12.085c6.923,0,13.138-3.764,17.052-10.322
	C416.79,329.474,414.887,276.55,400.127,248.9z"/>
</svg>
