<?xml version="1.0" encoding="utf-8"?>
<!-- Generator: Adobe Illustrator 17.0.0, SVG Export Plug-In . SVG Version: 6.00 Build 0)  -->
<!DOCTYPE svg PUBLIC "-//W3C//DTD SVG 1.1 Tiny//EN" "http://www.w3.org/Graphics/SVG/1.1/DTD/svg11-tiny.dtd">
<svg version="1.1" baseProfile="tiny" id="图层_1"
	 xmlns="http://www.w3.org/2000/svg" xmlns:xlink="http://www.w3.org/1999/xlink" x="0px" y="0px" width="480px" height="480px"
	 viewBox="0 0 480 480" xml:space="preserve">
<path d="M424.244,208.316c2.438-2.183,4.001-5.32,4.001-8.85c0-6.584-5.337-11.921-11.921-11.921c-0.6,0-1.175,0.091-1.751,0.176
	l-119.134-6.425L252.2,69.161c-1.019-5.549-5.859-9.931-11.703-9.931c-5.548,0-10.17,3.77-11.499,8.77H228.9l-43.557,113.127
	l-119.579,6.534c-0.65-0.11-1.308-0.158-1.989-0.158c-6.584,0-11.921,5.358-11.921,11.942c0,3.42,1.459,6.493,3.766,8.666
	l-0.037,0.121l95.738,77.771l-31.054,116.605c-0.67,1.49-1.062,3.132-1.062,4.871c0,6.583,5.337,11.921,11.921,11.921
	c3.089,0,5.877-1.205,7.994-3.133l101.271-65.548l100.864,65.284c2.148,2.096,5.076,3.397,8.314,3.397
	c6.584,0,11.921-5.337,11.921-11.921c0-1.444-0.296-2.811-0.766-4.092l-31.262-117.382l94.962-77.137L424.244,208.316z
	 M298.88,277.149l26.073,97.901L239.901,320l-85.053,55.051l26.073-97.901l-78.639-63.878l101.167-5.456l36.451-94.529
	l36.451,94.529l101.167,5.456L298.88,277.149z"/>
</svg>
