<?xml version="1.0" encoding="utf-8"?>
<!-- Generator: Adobe Illustrator 17.0.0, SVG Export Plug-In . SVG Version: 6.00 Build 0)  -->
<!DOCTYPE svg PUBLIC "-//W3C//DTD SVG 1.1 Tiny//EN" "http://www.w3.org/Graphics/SVG/1.1/DTD/svg11-tiny.dtd">
<svg version="1.1" baseProfile="tiny" id="图层_1"
	 xmlns="http://www.w3.org/2000/svg" xmlns:xlink="http://www.w3.org/1999/xlink" x="0px" y="0px" width="480px" height="480px"
	 viewBox="0 0 480 480" xml:space="preserve">
<path d="M460.849,359.404c-2.123-9.364-12.529-16.723-12.529-16.723l-105.148-57.32c0,0-11.005-3.948-18.371-0.826
	c-7.366,3.121-12.429,12.829-12.429,12.829l-26.334,47.362c-39.979-12.779-85.579-54.703-91.176-59.944
	c-5.261-5.617-47.347-51.38-60.126-91.359l47.27-26.426c0,0,9.661-5.109,12.783-12.476c3.121-7.367-0.873-18.417-0.873-18.417
	L136.596,30.957c0,0-7.358-10.407-16.723-12.529c-9.313-2.111-21.987,4.992-21.987,4.992s-57.133,29.171-69.044,79.791
	c-11.862,50.413,6.005,158.553,96.596,249.88l-0.009,0.009c0.187,0.187,0.375,0.368,0.563,0.554
	c0.186,0.187,0.367,0.376,0.554,0.563l0.009-0.009c91.326,90.589,199.282,108.273,249.695,96.411
	c50.62-11.911,79.606-69.229,79.606-69.229S462.96,368.717,460.849,359.404z M429.297,382.433c0,0-24.553,40.828-63.248,50.38
	c-32.716,8.076-115.771-6.149-188.945-66.936L177,366c0,0-49.667-38.333-81-87c-1.325-2.058-2.439-3.978-3.387-5.787
	c-41.311-65.211-50.192-131.338-42.845-159.559c10.041-38.57,49.153-60.629,49.153-60.629s9.713-5.444,16.851-3.826
	c7.177,1.627,12.816,9.603,12.816,9.603l40.931,74.588c0,0,3.061,8.47,0.669,14.116c-2.392,5.646-9.797,9.562-9.797,9.562
	L111,183.333c5.159,25.611,20.399,52.439,33.001,71.318c6.572,8.102,36.175,44.178,57.94,63.834
	c6.512,5.47,52.395,43.026,95.211,52.217l25.916-48.041c0,0,4.009-7.355,9.685-9.675c5.676-2.32,14.106,0.848,14.106,0.848
	l77.038,38.861c0,0,7.904,5.74,9.439,12.937C434.864,372.79,429.297,382.433,429.297,382.433z"/>
</svg>
