<?xml version="1.0" encoding="utf-8"?>
<!-- Generator: Adobe Illustrator 17.0.0, SVG Export Plug-In . SVG Version: 6.00 Build 0)  -->
<!DOCTYPE svg PUBLIC "-//W3C//DTD SVG 1.1 Tiny//EN" "http://www.w3.org/Graphics/SVG/1.1/DTD/svg11-tiny.dtd">
<svg version="1.1" baseProfile="tiny" id="图层_1"
	 xmlns="http://www.w3.org/2000/svg" xmlns:xlink="http://www.w3.org/1999/xlink" x="0px" y="0px" width="480px" height="480px"
	 viewBox="0 0 480 480" xml:space="preserve">
<path d="M302.414,234.431C328.247,215.303,345,184.612,345,150c0-57.99-47.01-105-105-105S135,92.01,135,150
	c0,34.612,16.753,65.303,42.586,84.431C92.084,261.01,30,340.754,30,435h30c0-99.411,80.589-180,180-180s180,80.589,180,180h30
	C450,340.754,387.916,261.01,302.414,234.431z M163.382,149.409c0-41.422,33.579-75,75-75c41.422,0,75,33.578,75,75
	c0,41.421-33.578,75-75,75C196.961,224.409,163.382,190.83,163.382,149.409z"/>
</svg>
