<?xml version="1.0" encoding="utf-8"?>
<!-- Generator: Adobe Illustrator 17.0.0, SVG Export Plug-In . SVG Version: 6.00 Build 0)  -->
<!DOCTYPE svg PUBLIC "-//W3C//DTD SVG 1.1 Tiny//EN" "http://www.w3.org/Graphics/SVG/1.1/DTD/svg11-tiny.dtd">
<svg version="1.1" baseProfile="tiny" id="图层_1"
	 xmlns="http://www.w3.org/2000/svg" xmlns:xlink="http://www.w3.org/1999/xlink" x="0px" y="0px" width="480px" height="480px"
	 viewBox="0 0 480 480" xml:space="preserve">
<path d="M400,150h-50v-40c0-11.046-8.954-20-20-20H150c-11.046,0-20,8.954-20,20v40H80c-11.046,0-20,8.954-20,20v200
	c0,11.046,8.954,20,20,20h320c11.046,0,20-8.954,20-20V170C420,158.954,411.046,150,400,150z M150,120c0-5.523,4.477-10,10-10h160
	c5.523,0,10,4.477,10,10v30H150V120z M80,180c0-5.523,4.477-10,10-10h40h220h40c5.523,0,10,4.477,10,10v51h-50v-22h-20v22H150v-22
	h-20v22H80V180z M390,370H90c-5.523,0-10-4.477-10-10V251h50v18h20v-18h180v18h20v-18h50v109C400,365.523,395.523,370,390,370z"/>
</svg>
