<?xml version="1.0" encoding="utf-8"?>
<!-- Generator: Adobe Illustrator 17.0.0, SVG Export Plug-In . SVG Version: 6.00 Build 0)  -->
<!DOCTYPE svg PUBLIC "-//W3C//DTD SVG 1.1 Tiny//EN" "http://www.w3.org/Graphics/SVG/1.1/DTD/svg11-tiny.dtd">
<svg version="1.1" baseProfile="tiny" id="图层_1"
	 xmlns="http://www.w3.org/2000/svg" xmlns:xlink="http://www.w3.org/1999/xlink" x="0px" y="0px" width="480px" height="480px"
	 viewBox="0 0 480 480" xml:space="preserve">
<path d="M456.64,442.497l-89.326-89.326C399.433,317.689,419,270.63,419,219c0-110.457-89.543-200-200-200S19,108.543,19,219
	s89.543,200,200,200c51.631,0,98.689-19.567,134.171-51.687l89.326,89.326c3.905,3.905,10.237,3.905,14.142,0
	C460.545,452.734,460.545,446.403,456.64,442.497z M219,399c-99.411,0-180-80.589-180-180S119.589,39,219,39s180,80.589,180,180
	S318.411,399,219,399z"/>
</svg>
