<?xml version="1.0" encoding="utf-8"?>
<!-- Generator: Adobe Illustrator 17.0.0, SVG Export Plug-In . SVG Version: 6.00 Build 0)  -->
<!DOCTYPE svg PUBLIC "-//W3C//DTD SVG 1.1 Tiny//EN" "http://www.w3.org/Graphics/SVG/1.1/DTD/svg11-tiny.dtd">
<svg version="1.1" baseProfile="tiny" id="图层_1"
	 xmlns="http://www.w3.org/2000/svg" xmlns:xlink="http://www.w3.org/1999/xlink" x="0px" y="0px" width="480px" height="480px"
	 viewBox="0 0 480 480" xml:space="preserve">
<path d="M417.178,251.712c-8.002-15.523-13.287-23.682-16.018-27.5c-4.713-13.32-9.763-28.908-10.905-34.3
	c0.828-14.457,2.595-94.826-56.564-136.432C282.195,17.096,246.476,22,242.636,22h-5.095c-3.853,0-39.141-4.904-90.813,31.479
	c-59.363,41.606-57.59,122.005-56.759,136.462c-1.146,5.392-6.213,20.965-10.943,34.285c-2.741,3.818-8.044,11.969-16.073,27.492
	c-16.441,30.695-18.561,89.444-7.658,107.651c4.36,7.281,11.283,11.457,18.996,11.457c10.248,0,18.797-5.846,25.57-13.417
	c4.403,8.097,9.379,15.057,14.174,20.822c-11.724,6.079-22.071,14.839-25.953,24.329c-3.966,9.697-2.217,21.618,4.679,31.887
	c8.589,12.793,28.11,28.042,72.34,28.042c41.9,0,64.145-14.009,75.072-24.805c11.053,10.795,33.457,24.805,75.212,24.805
	c44.078,0,63.532-15.249,72.091-28.042c6.872-10.27,8.615-22.191,4.663-31.888c-3.869-9.49-14.18-18.25-25.864-24.329
	c4.778-5.765,9.737-12.725,14.125-20.823c6.749,7.571,15.269,13.416,25.482,13.416c7.686,0,14.586-4.178,18.93-11.459
	C435.676,341.16,433.563,282.407,417.178,251.712z M407.101,342.414c-5.736,0.844-11.166-12.55-13.333-18.182l-12.539,2.425
	l-13.684-2.855c-7.196,34.837-25.446,50.053-25.729,50.251c0,0-5.005,6.454-2.306,14.343c2.699,7.889,11.806,10.381,11.806,10.381
	c8.685,0,26.29,11.92,17.828,23.905c-0.207,0.918-0.896,3.063-3.205,5.451c-3.656,3.779-16.041,12.694-47.105,12.694
	c-35.736,0-49.833-11.534-56.729-17.294l-0.138,0.192c0,0-5.813-7.059-20.346-7.059c-14.533,0-20.485,3.583-23.391,6.29
	c-4.894,5.531-20.031,17.871-57.092,17.871c-31.171,0-43.072-8.915-46.74-12.694c-2.318-2.388-3.009-4.533-3.216-5.451
	c-8.727-8.753,9.209-23.905,17.924-23.905c0,0,7.635-0.201,11.329-9.898c3.232-8.485-1.797-14.831-1.797-14.831
	c-0.284-0.198-18.631-15.419-25.852-50.256l-13.732,2.845l-13.569-3.213c-2.175,5.631-1.616,18.586-13.693,20.202
	c-0.386-5.849-0.383-21.408,0.482-31.039c1.627-18.13,5.79-35.68,10.718-44.883C92.968,248.416,97.961,242,97.951,242h-0.002
	l1.967-2.284l1.025-2.844c3.922-10.916,13.166-37.336,14.298-46.944l0.198-1.687l-0.148-1.692
	c-0.068-0.792-6.284-79.515,45.602-115.88c25.021-17.615,44.963-24.076,57.338-26.392c7.112-1.465,27.978-4.143,44.32,0.197
	c0.029,0.008,0.057,0.028,0.086,0.037c13.142,2.495,29.879,9.075,54.064,26.16c51.707,36.365,45.407,114.929,45.407,115.721
	l0.541,3.543c1.128,9.609,11.566,36.034,15.474,46.95l1.634,2.333l2.479,1.784h0.045c-0.01,0,4.989,6.916,14.932,26.204
	c4.911,9.203,9.072,26.991,10.693,45.122C408.768,321.957,407.486,336.565,407.101,342.414z"/>
</svg>
