<?xml version="1.0" encoding="utf-8"?>
<!-- Generator: Adobe Illustrator 17.0.0, SVG Export Plug-In . SVG Version: 6.00 Build 0)  -->
<!DOCTYPE svg PUBLIC "-//W3C//DTD SVG 1.1 Tiny//EN" "http://www.w3.org/Graphics/SVG/1.1/DTD/svg11-tiny.dtd">
<svg version="1.1" baseProfile="tiny" id="图层_1"
	 xmlns="http://www.w3.org/2000/svg" xmlns:xlink="http://www.w3.org/1999/xlink" x="0px" y="0px" width="480px" height="480px"
	 viewBox="0 0 480 480" xml:space="preserve">
<path d="M409.635,146.934l-76.569-76.569c-7.81-7.81-20.299-7.81-28.109,0L285.74,89.598l-0.096-0.096l-0.04,0.231L84,291.497V396
	h103.503l6.696-6.659l0.157,0.157l14.142-14.142l-0.117-0.117l167.795-166.921l0.18,0.18l14.142-14.142l-0.141-0.141l19.278-19.171
	C417.445,167.233,417.445,154.744,409.635,146.934z M105.277,376.137l0.285-75.433l74.735,74.735L105.277,376.137z M194.855,361.713
	l-76.102-76.102l166.959-167.756l76.5,76.5L194.855,361.713z M389.128,167.44l-12.773,12.773l-76.536-76.536l12.741-12.805
	c3.905-3.905,10.237-3.905,14.142,0l62.426,62.426C393.034,157.203,393.034,163.535,389.128,167.44z"/>
</svg>
