<?xml version="1.0" encoding="utf-8"?>
<!-- Generator: Adobe Illustrator 17.0.0, SVG Export Plug-In . SVG Version: 6.00 Build 0)  -->
<!DOCTYPE svg PUBLIC "-//W3C//DTD SVG 1.1 Tiny//EN" "http://www.w3.org/Graphics/SVG/1.1/DTD/svg11-tiny.dtd">
<svg version="1.1" baseProfile="tiny" id="图层_1"
	 xmlns="http://www.w3.org/2000/svg" xmlns:xlink="http://www.w3.org/1999/xlink" x="0px" y="0px" width="480px" height="480px"
	 viewBox="0 0 480 480" xml:space="preserve">
<path d="M448.934,385.461C421.728,153.352,241.43,148.929,231,148.867V83.67l-0.017-0.007C230.803,78.297,226.409,74,221,74
	c-2.509,0-4.796,0.931-6.552,2.457l-0.27-0.118L35,214.241v0.273c-2.425,1.825-4,4.718-4,7.986s1.575,6.162,4,7.986v0.364
	l178.201,137.101c1.833,2.284,4.643,3.749,7.799,3.749c5.523,0,10-4.477,10-10c0-0.409-0.032-0.81-0.08-1.207l0.08-0.035v-60.468
	c121.042,0,157.929,55.959,191.665,98.702c2.745,3.528,7.019,5.807,11.835,5.807c8.284,0,15-6.716,15-15
	C449.5,388.099,449.294,386.748,448.934,385.461z M231,280.019V280h-20v58.186L58.093,221.825L211,105.465V170h20
	c0,0,166.5,3.5,195.5,201.5C426.5,371.5,387.169,280.019,231,280.019z"/>
</svg>
