<?xml version="1.0" encoding="utf-8"?>
<!-- Generator: Adobe Illustrator 17.0.0, SVG Export Plug-In . SVG Version: 6.00 Build 0)  -->
<!DOCTYPE svg PUBLIC "-//W3C//DTD SVG 1.1 Tiny//EN" "http://www.w3.org/Graphics/SVG/1.1/DTD/svg11-tiny.dtd">
<svg version="1.1" baseProfile="tiny" id="图层_1"
	 xmlns="http://www.w3.org/2000/svg" xmlns:xlink="http://www.w3.org/1999/xlink" x="0px" y="0px" width="480px" height="480px"
	 viewBox="0 0 480 480" xml:space="preserve">
<path d="M441,120c0,5.523-4.477,10-10,10H51c-5.523,0-10-4.477-10-10l0,0c0-5.523,4.477-10,10-10h380
	C436.523,110,441,114.477,441,120L441,120z"/>
<path d="M445.066,350.924l-197.99-197.99c-1.954-1.954-4.515-2.93-7.076-2.929c-2.561-0.001-5.122,0.975-7.076,2.929l-197.99,197.99
	c-3.905,3.905-3.905,10.237,0,14.142c3.905,3.905,10.237,3.905,14.142,0L240,174.142l190.924,190.924
	c3.905,3.905,10.237,3.905,14.142,0C448.971,361.161,448.971,354.829,445.066,350.924z"/>
</svg>
