<?xml version="1.0" encoding="utf-8"?>
<!-- Generator: Adobe Illustrator 17.0.0, SVG Export Plug-In . SVG Version: 6.00 Build 0)  -->
<!DOCTYPE svg PUBLIC "-//W3C//DTD SVG 1.1 Tiny//EN" "http://www.w3.org/Graphics/SVG/1.1/DTD/svg11-tiny.dtd">
<svg version="1.1" baseProfile="tiny" id="图层_1"
	 xmlns="http://www.w3.org/2000/svg" xmlns:xlink="http://www.w3.org/1999/xlink" x="0px" y="0px" width="480px" height="480px"
	 viewBox="0 0 480 480" xml:space="preserve">
<path d="M405.131,239.4c0-12.384-10.131-23-18.131-27.666v-0.545L121.105,57.198l0.278,0.077
	c-4.885-3.391-10.589-5.406-16.986-5.406c-16.689,0-30.115,13.529-30.115,30.218c0,0.828,0.037,1.607,0.102,2.419L74,84.647v310.957
	l0.293,0.058c-0.011,0.337-0.003,0.651-0.003,0.991c0,16.689,13.577,30.218,30.266,30.218c5.861,0,11.309-1.742,15.941-4.63
	l-0.657,0.09L387,267.615v-0.549C395,262.4,405.131,251.784,405.131,239.4z"/>
</svg>
