<?xml version="1.0" encoding="utf-8"?>
<!-- Generator: Adobe Illustrator 17.0.0, SVG Export Plug-In . SVG Version: 6.00 Build 0)  -->
<!DOCTYPE svg PUBLIC "-//W3C//DTD SVG 1.1 Tiny//EN" "http://www.w3.org/Graphics/SVG/1.1/DTD/svg11-tiny.dtd">
<svg version="1.1" baseProfile="tiny" id="图层_1"
	 xmlns="http://www.w3.org/2000/svg" xmlns:xlink="http://www.w3.org/1999/xlink" x="0px" y="0px" width="480px" height="480px"
	 viewBox="0 0 480 480" xml:space="preserve">
<path d="M420.32,186.302l0.203-109.557l-44.613,44.613C342.915,83.178,294.164,59,239.738,59c-99.411,0-180,80.589-180,180
	s80.589,180,180,180c78.367,0,145.002-50.097,169.717-120h-32.234c-23.15,52.969-75.979,90-137.483,90c-82.843,0-150-67.157-150-150
	c0-82.843,67.157-150,150-150c46.142,0,87.401,20.843,114.908,53.622l-43.883,43.883L420.32,186.302z"/>
</svg>
