<?xml version="1.0" encoding="utf-8"?>
<!-- Generator: Adobe Illustrator 17.0.0, SVG Export Plug-In . SVG Version: 6.00 Build 0)  -->
<!DOCTYPE svg PUBLIC "-//W3C//DTD SVG 1.1 Tiny//EN" "http://www.w3.org/Graphics/SVG/1.1/DTD/svg11-tiny.dtd">
<svg version="1.1" baseProfile="tiny" id="图层_1"
	 xmlns="http://www.w3.org/2000/svg" xmlns:xlink="http://www.w3.org/1999/xlink" x="0px" y="0px" width="480px" height="480px"
	 viewBox="0 0 480 480" xml:space="preserve">
<path d="M250.524,132.33c0.199,0.199,0.337,0.433,0.523,0.64l187.761,187.761c5.781,5.78,5.781,15.153,0,20.933
	c-5.78,5.781-15.153,5.781-20.933,0L239.999,163.789L62.124,341.665c-5.781,5.781-15.153,5.781-20.934,0
	c-5.781-5.781-5.781-15.153,0-20.933L228.951,132.97c0.186-0.207,0.324-0.441,0.523-0.64c2.905-2.905,6.717-4.345,10.525-4.33
	C243.807,127.985,247.619,129.425,250.524,132.33z"/>
</svg>
