<?xml version="1.0" encoding="utf-8"?>
<!-- Generator: Adobe Illustrator 17.0.0, SVG Export Plug-In . SVG Version: 6.00 Build 0)  -->
<!DOCTYPE svg PUBLIC "-//W3C//DTD SVG 1.1 Tiny//EN" "http://www.w3.org/Graphics/SVG/1.1/DTD/svg11-tiny.dtd">
<svg version="1.1" baseProfile="tiny" id="图层_1"
	 xmlns="http://www.w3.org/2000/svg" xmlns:xlink="http://www.w3.org/1999/xlink" x="0px" y="0px" width="480px" height="480px"
	 viewBox="0 0 480 480" xml:space="preserve">
<g>
	<circle cx="128" cy="148" r="19"/>
	<circle cx="248" cy="148" r="19"/>
	<circle cx="258" cy="268" r="19"/>
	<circle cx="358" cy="268" r="19"/>
	<path d="M421.681,372.135c21.92-20.81,35.807-49.12,36.078-79.749c-0.084-11.3-1.955-22.013-5.292-32.052
		c-12.805-39.278-48.965-70.637-95.422-83.283c-3.489-41.622-31.357-77.857-65.932-99.985
		c-43.176-27.633-98.237-34.292-147.72-23.204C98.375,63.95,54.809,92.12,33.746,134.102
		c-10.396,20.721-15.017,44.309-12.066,67.375c3.574,27.936,16.484,52.864,35.843,73.19c1.808,1.899,3.689,3.727,5.62,5.5
		c-2.805,12.228-5.609,24.455-8.414,36.683c-3.062,13.349,10.165,22.741,22.035,16.94c13.705-6.698,27.41-13.396,41.116-20.095
		c17.152,6.457,34.811,10.547,53.043,12.271c0.295,0.828,0.597,1.654,0.913,2.474c11.916,31.736,38.717,56.594,69.475,70.322
		c41.528,18.534,88.618,19.267,130.987,3.727c11.422,5.582,22.844,11.165,34.267,16.747c11.87,5.801,25.097-3.591,22.035-16.94
		C426.293,392.243,423.987,382.189,421.681,372.135z M165,291.843c0,1.02,0.016,2.036,0.047,3.05
		c-13.929-1.88-27.154-5.362-39.341-10.207L84,301l6.787-36.026C65.293,245.269,49.5,217.949,49.5,187.75
		C49.5,127.689,111.956,79,189,79c70.047,0,128.029,40.249,137.984,92.698c-5.17-0.457-10.418-0.698-15.734-0.698
		C230.478,171,165,225.103,165,291.843z M403.812,347.712c-2.961,3.005-6.089,5.847-9.324,8.548
		c-0.125,0.104-0.237,0.218-0.355,0.327c-0.267,0.216-0.545,0.422-0.814,0.636L400,386l-29.369-14.783
		c-0.34,0.161-0.673,0.329-1.015,0.487c-2.072,0.544-3.788,1.427-5.152,1.969c-13.068,5.193-27.386,8.403-40.145,9.481
		c-6.877,0.581-13.795,0.612-20.687,0.316c-3.094-0.133-32.466-0.303-64.439-19.701c-2.268-1.376-17.225-12.825-30.778-29.584
		c-8.251-12.682-12.916-27.078-12.916-42.342c0-50.955,51.935-92.262,116-92.262c6.859,0,13.577,0.477,20.108,1.385
		c17.856,2.866,30.877,8.834,42.229,14.444c20.557,10.157,35.119,27.26,36.997,29.528c0.084,0.103,0.164,0.201,0.25,0.307
		c3.078,3.78,4.981,6.575,6.359,8.974c0.246,0.438,0.488,0.879,0.726,1.321c1.33,2.511,2.174,4.678,3.399,7.288
		c0.138,0.294,1.692,4.253,2.225,5.858c2.628,7.908,3.958,23.214,2.398,37.052C423.224,321.359,415.329,335.692,403.812,347.712z"/>
</g>
</svg>
