<svg xmlns="http://www.w3.org/2000/svg" xmlns:xlink="http://www.w3.org/1999/xlink" x="0px" y="0px" width="16px" height="16px" viewBox="0 0 16 16"><g >
<path data-color="color-2" fill="#444444" d="M5.83823,7.25419c0.00199,0.18635,0.17249,0.3497,0.27433,0.44732l0.032,0.03087
	c0.17467,0.1718,0.34105,0.25891,0.49444,0.25891c0.12705,0,0.20533-0.06009,0.23305-0.0859
	c0.07694-0.07145,0.94729-0.95335,1.03031-1.03747L8.873,7.83541C8.96285,7.93664,9.06053,7.98737,9.17436,7.9905
	c0.155,0,0.3239-0.09216,0.502-0.27395C10.0952,7.2889,9.88563,7.05831,9.78428,6.94682L8.80083,5.96307l1.02561-1.03287
	c0.22492-0.24336,0.02635-0.502-0.17176-0.70013C9.36701,3.9424,9.08948,3.86817,8.9116,4.03208L7.89179,5.05365L6.86053,4.0221
	C6.80588,3.96973,6.73696,3.94204,6.66119,3.94204c-0.13744,0-0.30003,0.09293-0.48333,0.27622
	c-0.31718,0.3171-0.38519,0.53633-0.22011,0.71122l1.03153,1.02839L5.96383,6.98517C5.87948,7.0694,5.83721,7.15992,5.83823,7.25419
	z"/>
<path fill="#444444" d="M7.56518,0.01559C4.6816,0.23495,2.4228,2.77117,2.4228,5.78957v9.54438
	C2.4228,15.88682,2.84307,16,3.47407,16c0.63101,0,1.05128-0.11318,1.05128-0.66605V5.76714
	c0-1.88059,1.36817-3.49536,3.11455-3.67624c1.00259-0.10216,1.96632,0.21154,2.71592,0.88761
	c0.73577,0.66325,1.15784,1.61676,1.15824,2.61636c0,0.28606-0.14002,1.21773-0.77944,2.08251
	c-0.48357,0.65343-1.39963,1.43187-3.02401,1.43187c-0.00882,0.0002-0.02063,0-0.03085,0c-0.41666,0-0.77262,0.01963-0.84113,1.007
	c-0.04588,0.66445-0.04207,0.96152,0.53184,1.04146c1.02383,0.14203,2.06768-0.0581,3.10233-0.59575
	c1.76641-0.91906,2.94989-2.66043,3.08891-4.54503c0.12079-1.6368-0.46955-3.23354-1.61977-4.38116
	C10.7873,0.48414,9.19277-0.1056,7.56518,0.01559z"/>
</g></svg>