<svg xmlns="http://www.w3.org/2000/svg" xmlns:xlink="http://www.w3.org/1999/xlink" x="0px" y="0px" width="16px" height="16px" viewBox="0 0 16 16"><g >
<path fill="#444444" d="M2.38431,11.35686c0-1.27818,0.54298-1.95298,1.6-2.24314c-0.16732-0.4183-0.25098-0.7268-0.25098-0.92549
	c0-0.73554,0.92946-1.64706,1.63137-1.64706c0.17778,0,0.38693,0.04706,0.62745,0.14118
	C5.4902,5.24967,5.12941,4.16209,4.9098,3.41961c-0.28672-0.96769-0.67052-2.22605,0-2.98039C5.17124,0.14641,5.52157,0,5.96078,0
	C6.71373,0,7.6183,1.54248,8.67451,4.62745l0.26667,0.76863c0.40011-1.00027,1.62792-5.09804,3.01176-5.09804
	c0.4183,0,0.74771,0.14118,0.98824,0.42353c0.67616,0.76068,0.27769,1.88711,0,2.87059
	c-0.21961,0.7634-0.56471,1.80915-1.03529,3.13725c0.59608,0.14641,1.02484,0.42876,1.28627,0.84706
	c0.28235,0.44967,0.42353,1.1451,0.42353,2.08628c0,1.86144-0.55425,3.38301-1.66275,4.56471
	C10.82353,15.40915,9.39085,16,7.6549,16c-2.14387,0-4.02673-1.25924-4.86275-2.96471
	C2.52026,12.47059,2.38431,11.91111,2.38431,11.35686z M3.40392,11.27843c0,0.65525,0.43742,1.44615,0.83137,1.97647
	c0.92275,1.19282,2.12936,1.7098,3.5451,1.7098c1.34902,0,2.48366-0.50719,3.40392-1.52157
	c0.9098-1.00392,1.36471-2.27451,1.36471-3.81176c0-0.52574-0.00142-1.31214-0.39216-1.64706
	c-0.28235-0.24052-0.8366-0.44967-1.66275-0.62745C9.66797,7.16863,8.78954,7.07451,7.85882,7.07451
	c-0.35969,0-0.54902,0.05431-0.54902,0.40784c0,0.42876,0.24052,0.73203,0.72157,0.9098
	c0.52288,0.21961,1.38562,0.32941,2.58823,0.32941h0.43922c0.24585,0,0.46415,0.12843,0.53333,0.65882
	c-0.45093,0.45093-1.19372,0.51146-1.69412,0.89412c-0.4183,0.30327-0.75294,0.66405-1.00392,1.08235
	c-0.24052,0.40784-0.36078,0.79477-0.36078,1.16078c0,0.21961,0.05229,0.48627,0.15686,0.8
	c0.11503,0.3451,0.17254,0.56993,0.17254,0.67451c-0.00276,0.09708-0.03136,0.16471-0.14899,0.21177
	c-0.48627,0.1098-0.70852-0.12811-0.91767-0.52549c-0.17778-0.33464-0.27712-0.7634-0.29804-1.28627
	c-0.06332,0.02111-0.2926,0.01569-0.36078,0.01569c0.01046,0.05229,0.01569,0.11503,0.01569,0.18824
	c0,0.31373-0.12026,0.58039-0.36078,0.8c-0.24052,0.21961-0.52288,0.32941-0.84706,0.32941
	c-0.4915,0-0.98823-0.23529-1.4902-0.70588c-0.50196-0.48105-0.75294-0.95163-0.75294-1.41176
	c0-0.27302,0.1168-0.41484,0.29804-0.59608c0.26144,0.32418,0.43922,0.54902,0.53333,0.67451
	c0.43922,0.61699,0.8366,0.92549,1.19216,0.92549c0.19964,0,0.36078-0.14791,0.36078-0.25098
	c0-0.08366-0.06275-0.23529-0.18824-0.4549c-0.18349-0.34404-0.90736-1.30364-1.28627-1.61569
	c-0.15686-0.14641-0.2719-0.21961-0.3451-0.21961C3.9137,10.07059,3.40392,10.52364,3.40392,11.27843z M4.81569,8.28235
	c0,0.13595,0.08366,0.37124,0.25098,0.70588c0.30842,0.59481,1.03353,1.55453,1.58431,2.03922
	c0.25098,0.20915,0.43922,0.31373,0.56471,0.31373c0.16096,0,0.32941-0.19143,0.32941-0.36078
	c0-0.12549-0.09412-0.42876-0.28235-0.9098c-0.2591-0.62924-0.81018-1.78094-1.33333-2.21176
	C5.76209,7.70196,5.6,7.62353,5.44314,7.62353C5.21934,7.62353,4.81569,8.03357,4.81569,8.28235z M5.52157,1.50588
	c0,0.35556,0.12549,0.91503,0.37647,1.67843C6.1281,3.9268,6.4732,4.92026,6.93333,6.16471
	c0.23686-0.14212,0.81042-0.07463,1.11373-0.04706L6.96471,2.98039C6.6719,2.14379,6.44183,1.6,6.27451,1.34902
	c-0.13595-0.21961-0.2719-0.32941-0.40784-0.32941C5.63917,1.01961,5.52157,1.27652,5.52157,1.50588z M8.12549,9.50588
	c0.09412,0.24052,0.19346,0.50196,0.29804,0.78431c0.20915-0.24052,0.4183-0.43922,0.62745-0.59608
	C8.7319,9.6303,8.47508,9.62241,8.12549,9.50588z M9.77255,6.30588l1.05098,0.18824
	c0.47059-1.29673,0.83137-2.33726,1.08235-3.12157c0.1446-0.46852,0.56356-1.53649,0.28235-1.89804
	c-0.09506-0.16635-0.38798-0.21609-0.72157,0.31373c-0.19869,0.30327-0.42353,0.83137-0.67451,1.58431L9.77255,6.30588z"/>
</g></svg>