<svg xmlns="http://www.w3.org/2000/svg" xmlns:xlink="http://www.w3.org/1999/xlink" x="0px" y="0px" width="16px" height="16px" viewBox="0 0 16 16"><g >
<path fill="#444444" d="M6.5,7.4c0,0,1.5-0.1,1.5-1.9C8,3.7,6.6,3,5,3H0v10l5,0c0,0,3.3-0.1,3.3-3.1C8.3,9.9,8.5,7.4,6.5,7.4z
	 M2.3,4.6h2.5h0.4c0,0,0.7,0,0.7,1S5.5,6.8,5,6.8H2.3V4.6z M5,11H2.3V8.4h2.9c0,0,1,0,1,1.4C6.2,10.9,5.4,11,5,11z"/>
<path fill="#444444" d="M12.5,5.4c-3.8,0-3.8,3.8-3.8,3.8S8.4,13,12.5,13c0,0,3.4,0.2,3.4-2.6h-1.7c0,0,0.1,1.1-1.6,1.1
	c0,0-1.7,0.1-1.7-1.7H16C16,9.7,16.5,5.4,12.5,5.4z M14.1,8.4h-3.3c0,0,0.2-1.5,1.7-1.5C14.1,6.8,14.1,8.4,14.1,8.4z"/>
<rect data-color="color-2" x="10" y="3" fill="#444444" width="5" height="1"/>
</g></svg>