<?xml version="1.0" encoding="utf-8"?>
<!-- Generator: Adobe Illustrator 17.0.0, SVG Export Plug-In . SVG Version: 6.00 Build 0)  -->
<!DOCTYPE svg PUBLIC "-//W3C//DTD SVG 1.1//EN" "http://www.w3.org/Graphics/SVG/1.1/DTD/svg11.dtd">
<svg version="1.1" id="图层_1" xmlns="http://www.w3.org/2000/svg" xmlns:xlink="http://www.w3.org/1999/xlink" x="0px" y="0px"
	 width="18.833px" height="19px" viewBox="0 0 18.833 19" enable-background="new 0 0 18.833 19" xml:space="preserve">
<g>
	<path fill="#FFFFFF" d="M15.721,7.574h-0.293V2.593c0-0.676-0.55-1.226-1.226-1.226H5.37c-0.676,0-1.226,0.55-1.226,1.226v4.973
		l-0.21,0.021C3.303,7.651,2.827,8.172,2.827,8.8v7.974C2.827,17.45,3.377,18,4.054,18h11.667c0.676,0,1.226-0.55,1.226-1.226V8.8
		C16.947,8.124,16.397,7.574,15.721,7.574z M4.698,2.593c0-0.364,0.307-0.671,0.672-0.671h8.832c0.364,0,0.672,0.307,0.672,0.671
		v6.242l-4.985,3.994l-5.19-3.952V2.593z"/>
	<path fill="#FFFFFF" d="M10.183,9.02l0.212-0.024c1.101-0.126,1.9-0.682,1.9-1.323c0-0.212-0.083-0.42-0.243-0.602
		c-0.021-0.023-0.044-0.047-0.067-0.068c-0.065-0.058-0.163-0.119-0.29-0.18c-0.301-0.144-0.756-0.272-1.315-0.372l-0.197-0.035
		V4.682l0.275,0.042c0.427,0.064,0.809,0.205,1.048,0.386l0.031,0.024l0.56-0.197l-0.075-0.082
		c-0.328-0.356-0.921-0.607-1.627-0.688l-0.212-0.024L10.183,3.4H9.639v0.739L9.424,4.16C8.291,4.274,7.468,4.833,7.468,5.487
		c0,0.43,0.333,0.721,0.539,0.861l0.034,0.018c0.188,0.099,0.62,0.285,1.397,0.41l0.202,0.032v1.674L9.368,8.446
		c-0.482-0.064-0.916-0.227-1.16-0.435L8.18,7.987L7.598,8.13l0.067,0.088c0.311,0.411,0.969,0.704,1.758,0.784l0.215,0.022
		l0.001,0.758l0.543,0L10.183,9.02z M10.183,6.872l0.275,0.042c0.628,0.095,1.295,0.393,1.293,0.76c0,0.368-0.666,0.667-1.293,0.762
		l-0.276,0.043L10.183,6.872z M9.639,6.293L9.368,6.256c-0.76-0.101-1.357-0.44-1.357-0.771c0.002-0.33,0.598-0.668,1.357-0.769
		l0.271-0.036V6.293z"/>
</g>
</svg>
