<?xml version="1.0" encoding="utf-8"?>
<!-- Generator: Adobe Illustrator 17.0.0, SVG Export Plug-In . SVG Version: 6.00 Build 0)  -->
<!DOCTYPE svg PUBLIC "-//W3C//DTD SVG 1.1//EN" "http://www.w3.org/Graphics/SVG/1.1/DTD/svg11.dtd">
<svg version="1.1" id="图层_4" xmlns="http://www.w3.org/2000/svg" xmlns:xlink="http://www.w3.org/1999/xlink" x="0px" y="0px"
	 width="480px" height="480px" viewBox="0 0 480 480" enable-background="new 0 0 480 480" xml:space="preserve">
<rect x="68.134" y="220.908" transform="matrix(-0.4967 -0.8679 0.8679 -0.4967 197.9318 576.6027)" width="396.048" height="20.001"/>
<path d="M383.518,323.911l0.135-122.224c0-65.489-41.907-120.797-99.367-138.544C278.154,47.267,262.702,36,244.609,36
	c-18.094,0-33.548,11.269-39.679,27.148c-3.307,1.022-6.559,2.173-9.757,3.438l10.062,17.584c1.852-0.682,3.715-1.332,5.599-1.914
	c5.849-1.807,10.549-6.194,12.754-11.905C226.902,61.768,235.35,56,244.609,56c9.258,0,17.706,5.767,21.021,14.35
	c2.206,5.711,6.905,10.097,12.755,11.903c24.029,7.421,45.682,23.061,60.969,44.038c15.897,21.813,24.299,47.885,24.299,75.374
	l-0.135,122.246c0,14.733,7.114,32.172,21.189,52.013c-3.557,0.01-7.703,0.02-12.509,0.028l11.43,19.974
	c14.475-0.04,23.104-0.099,23.043-0.181c4.666-2.347,7.938-8.334,7.938-14.083C414.609,381.255,383.518,347.762,383.518,323.911z"/>
<path d="M326.137,375.996c-7.538,0.003-206.542-0.029-221.621-0.072c14.08-19.84,21.197-37.285,21.197-52.037l-0.149-122.2
	c0-27.508,8.403-53.578,24.3-75.39c6.011-8.248,13.019-15.656,20.756-22.079l-10.09-17.632
	c-33.4,26.394-54.966,68.128-54.966,115.101l0.149,122.224c0,23.851-31.105,57.343-31.105,57.751c0,5.748,3.286,11.736,7.952,14.083
	c-0.139,0.173,37.887,0.241,87.97,0.253c1.458,13.01,9.381,24.874,22.718,33.766c13.575,9.05,31.435,14.034,50.288,14.034
	c18.854,0,36.712-4.984,50.287-14.034c13.337-8.892,21.26-20.756,22.719-33.765c7.28-0.001,14.322-0.004,21.036-0.008
	L326.137,375.996z M243.537,423.798c-26.42,0-49.076-12.339-52.742-27.798c17.32-0.001,35.566-0.006,53.82-0.016
	c17.503,0.009,34.987,0.015,51.663,0.016C292.613,411.459,269.958,423.798,243.537,423.798z"/>
</svg>
