<?xml version="1.0" encoding="utf-8"?>
<!-- Generator: Adobe Illustrator 17.0.0, SVG Export Plug-In . SVG Version: 6.00 Build 0)  -->
<!DOCTYPE svg PUBLIC "-//W3C//DTD SVG 1.1//EN" "http://www.w3.org/Graphics/SVG/1.1/DTD/svg11.dtd">
<svg version="1.1" id="图层_1" xmlns="http://www.w3.org/2000/svg" xmlns:xlink="http://www.w3.org/1999/xlink" x="0px" y="0px"
	 width="480px" height="480px" viewBox="0 0 480 480" enable-background="new 0 0 480 480" xml:space="preserve">
<path d="M383.518,323.911l0.135-122.224c0-65.489-41.907-120.797-99.367-138.544C278.154,47.267,262.702,36,244.609,36
	c-18.094,0-33.548,11.269-39.679,27.148c-57.456,17.751-99.365,73.055-99.365,138.539l0.149,122.224
	c0,23.851-31.105,57.343-31.105,57.751c0,5.748,3.286,11.736,7.952,14.083c-0.139,0.173,37.887,0.241,87.97,0.253
	c1.458,13.01,9.381,24.874,22.718,33.766c13.575,9.05,31.435,14.034,50.288,14.034c18.854,0,36.712-4.984,50.287-14.034
	c13.337-8.892,21.26-20.756,22.719-33.765c51.136-0.01,90.259-0.078,90.128-0.253c4.666-2.347,7.938-8.334,7.938-14.083
	C414.609,381.255,383.518,347.762,383.518,323.911z M243.537,423.798c-26.42,0-49.076-12.339-52.742-27.798
	c17.32-0.001,35.566-0.006,53.82-0.016c17.503,0.009,34.987,0.015,51.663,0.016C292.613,411.459,269.958,423.798,243.537,423.798z
	 M104.516,375.924c14.08-19.84,21.197-37.285,21.197-52.037l-0.149-122.2c0-27.508,8.403-53.578,24.3-75.39
	c15.288-20.976,36.94-36.617,60.969-44.041c5.849-1.807,10.549-6.194,12.754-11.905C226.902,61.768,235.35,56,244.609,56
	c9.258,0,17.706,5.767,21.021,14.35c2.206,5.711,6.905,10.097,12.755,11.903c24.029,7.421,45.682,23.061,60.969,44.038
	c15.897,21.813,24.299,47.885,24.299,75.374l-0.135,122.246c0,14.733,7.114,32.172,21.189,52.013
	C369.628,375.967,119.595,375.967,104.516,375.924z"/>
</svg>
