<?xml version="1.0" encoding="utf-8"?>
<!-- Generator: Adobe Illustrator 17.0.0, SVG Export Plug-In . SVG Version: 6.00 Build 0)  -->
<!DOCTYPE svg PUBLIC "-//W3C//DTD SVG 1.1//EN" "http://www.w3.org/Graphics/SVG/1.1/DTD/svg11.dtd">
<svg version="1.1" id="图层_1" xmlns="http://www.w3.org/2000/svg" xmlns:xlink="http://www.w3.org/1999/xlink" x="0px" y="0px"
	 width="480px" height="480px" viewBox="0 0 480 480" enable-background="new 0 0 480 480" xml:space="preserve">
<path d="M440,146h-26h-20H40c-5.523,0-10,4.477-10,10c0,5.523,4.477,10,10,10h46v114c0,11.046,9.598,15.199,20,20l110.79,50.524
	c1.519,0.93,3.298,1.476,5.21,1.476c1.862,0,3.599-0.518,5.092-1.405l0.095,0.03L346,300c6.967-3.97,20-8.954,20-20V166h28v48.157
	c-6.52,3.295-11,10.038-11,17.843v40c0,11.046,8.954,20,20,20s20-8.954,20-20v-40c0-6.98-3.581-13.117-9-16.695V166h26
	c5.523,0,10-4.477,10-10C450,150.477,445.523,146,440,146z M346,270c0,5.523-4.668,6.914-10,10l-114,50l-106-50
	c-4.888-2.531-10-4.477-10-10V166h240V270z M408,272c0,2.761-2.239,5-5,5s-5-2.239-5-5v-40c0-2.761,2.239-5,5-5s5,2.239,5,5V272z"/>
</svg>
