<?xml version="1.0" encoding="utf-8"?>
<!-- Generator: Adobe Illustrator 17.0.0, SVG Export Plug-In . SVG Version: 6.00 Build 0)  -->
<!DOCTYPE svg PUBLIC "-//W3C//DTD SVG 1.1//EN" "http://www.w3.org/Graphics/SVG/1.1/DTD/svg11.dtd">
<svg version="1.1" id="图层_1" xmlns="http://www.w3.org/2000/svg" xmlns:xlink="http://www.w3.org/1999/xlink" x="0px" y="0px"
	 width="480px" height="480px" viewBox="0 0 480 480" enable-background="new 0 0 480 480" xml:space="preserve">
<path d="M400,140h-50v-30c0-11.046-8.954-20-20-20H150c-11.046,0-20,8.954-20,20v30H80c-11.046,0-20,8.954-20,20v220
	c0,11.046,8.954,20,20,20h320c11.046,0,20-8.954,20-20V160C420,148.954,411.046,140,400,140z M150,120c0-5.523,4.477-10,10-10h160
	c5.523,0,10,4.477,10,10v20H150V120z M80,170c0-5.523,4.477-10,10-10h40h220h40c5.523,0,10,4.477,10,10v131H80V170z M390,380H90
	c-5.523,0-10-4.477-10-10v-49h46v18h24v-18h180v18h24v-18h46v49C400,375.523,395.523,380,390,380z"/>
</svg>
