<?xml version="1.0" encoding="utf-8"?>
<!-- Generator: Adobe Illustrator 17.0.0, SVG Export Plug-In . SVG Version: 6.00 Build 0)  -->
<!DOCTYPE svg PUBLIC "-//W3C//DTD SVG 1.1//EN" "http://www.w3.org/Graphics/SVG/1.1/DTD/svg11.dtd">
<svg version="1.1" id="图层_1" xmlns="http://www.w3.org/2000/svg" xmlns:xlink="http://www.w3.org/1999/xlink" x="0px" y="0px"
	 width="480px" height="480px" viewBox="0 0 480 480" enable-background="new 0 0 480 480" xml:space="preserve">
<g>
	<path d="M276,268.812v-26.575c16.007-13.158,26.468-34.827,26.468-59.349c0-40.129-27.987-72.661-62.511-72.661
		c-34.524,0-62.511,32.531-62.511,72.661c0,25.077,10.929,47.187,27.553,60.246v25.549c-57.848,8.93-100.455,39.405-100.455,75.631
		c0,5.372,0.939,10.618,2.723,15.686h265.641c1.785-5.068,2.724-10.314,2.724-15.686C375.632,308.26,333.429,277.903,276,268.812z"
		/>
	<path d="M134,286.788v-11.553c11.665-9.473,19.302-25.186,19.302-42.981c0-28.944-20.186-52.408-45.087-52.408
		c-24.901,0-45.087,23.464-45.087,52.408c0,18.087,7.883,34.035,19.873,43.453v18.429c-41.724,6.441-72.455,28.422-72.455,54.551
		c0,3.875,0.677,7.658,1.964,11.314h86.336c-1.911-5-2.917-10.92-2.917-16.674C95.929,321.512,110.358,301.673,134,286.788z"/>
	<path d="M398,294.195v-18.96c11.665-9.473,19.302-25.186,19.302-42.981c0-28.944-20.186-52.408-45.087-52.408
		c-24.901,0-45.087,23.464-45.087,52.408c0,18.087,7.883,34.035,19.873,43.453v10.374c24.338,14.973,39.248,35.114,39.248,57.287
		c0,5.753-1.005,11.632-2.917,16.632h84.777c1.287-3.655,1.964-7.439,1.964-11.314C470.073,322.637,439.529,300.712,398,294.195z"/>
</g>
</svg>
