<?xml version="1.0" encoding="utf-8"?>
<!-- Generator: Adobe Illustrator 16.0.0, SVG Export Plug-In . SVG Version: 6.00 Build 0)  -->
<!DOCTYPE svg PUBLIC "-//W3C//DTD SVG 1.1//EN" "http://www.w3.org/Graphics/SVG/1.1/DTD/svg11.dtd">
<svg version="1.1" id="图层_1" xmlns="http://www.w3.org/2000/svg" xmlns:xlink="http://www.w3.org/1999/xlink" x="0px" y="0px"
	 width="480px" height="480px" viewBox="0 0 480 480" enable-background="new 0 0 480 480" xml:space="preserve">
<rect x="212.82" y="257.453" width="159.479" height="30.168"/>
<rect x="212.82" y="323.682" width="159.479" height="30.168"/>
<rect x="213.818" y="191.225" width="159.475" height="30.167"/>
<path d="M393.725,100.838h-57.999v-24.51c0-22-18-40-39.999-40H91.393c-22,0-40,18-40,40v260.732c0,22,18,40,40,40h58v24.51
	c0,22,18,40,40,40h204.332c22,0,40-18,40-40V140.838C433.725,118.838,415.725,100.838,393.725,100.838z M149.393,140.838v209.867
	h-48.658c-11,0-20-9-20-20v-244c0-11,9-20,20-20H286.07c11,0,20,9,20,20v14.133H189.393
	C167.393,100.838,149.393,118.838,149.393,140.838z M404.07,395.215c0,11-9,20-20,20H198.735c-11,0-20-9-20-20v-244c0-11,9-20,20-20
	H384.07c11,0,20,9,20,20V395.215z"/>
</svg>
