<?xml version="1.0" encoding="utf-8"?>
<!-- Generator: Adobe Illustrator 17.0.0, SVG Export Plug-In . SVG Version: 6.00 Build 0)  -->
<!DOCTYPE svg PUBLIC "-//W3C//DTD SVG 1.1//EN" "http://www.w3.org/Graphics/SVG/1.1/DTD/svg11.dtd">
<svg version="1.1" id="图层_1" xmlns="http://www.w3.org/2000/svg" xmlns:xlink="http://www.w3.org/1999/xlink" x="0px" y="0px"
	 width="480px" height="480px" viewBox="0 0 480 480" enable-background="new 0 0 480 480" xml:space="preserve">
<g>
	<path d="M301,230H111c-5.523,0-10,4.477-10,10c0,5.523,4.477,10,10,10h190c5.523,0,10-4.477,10-10C311,234.477,306.523,230,301,230
		z"/>
	<path d="M261,300H130c-5.523,0-10,4.477-10,10c0,5.523,4.477,10,10,10h131c5.523,0,10-4.477,10-10C271,304.477,266.523,300,261,300
		z"/>
	<path d="M340,140H70c-22.091,0-40,17.909-40,40v160c0,22.091,17.909,40,40,40h92.568l33,43.768l0.266,0.008
		c1.726,3,4.957,5.025,8.666,5.025c3.5,0,6.575-1.801,8.362-4.524l0.05,0.001L246.265,380H340c22.091,0,40-17.909,40-40V180
		C380,157.909,362.091,140,340,140z M360,340c0,11.046-8.954,20-20,20H238.484l-30.304,40.212c-0.701,1.914-2.523,3.288-4.68,3.288
		c-1.801,0-3.366-0.961-4.246-2.389L168.35,360H70c-11.046,0-20-8.954-20-20V180c0-11.046,8.954-20,20-20h270
		c11.046,0,20,8.954,20,20V340z"/>
	<path d="M391,50H121c-22.091,0-40,17.909-40,40v30.05c0.333-0.017,0.662-0.05,1-0.05h19V90c0-11.046,8.954-20,20-20h270
		c11.046,0,20,8.954,20,20v170c0,7.804-4.48,14.547-11,17.843v21.128c17.755-4.085,31-19.976,31-38.971V90
		C431,67.909,413.091,50,391,50z"/>
</g>
</svg>
