<?xml version="1.0" encoding="utf-8"?>
<!-- Generator: Adobe Illustrator 17.0.0, SVG Export Plug-In . SVG Version: 6.00 Build 0)  -->
<!DOCTYPE svg PUBLIC "-//W3C//DTD SVG 1.1//EN" "http://www.w3.org/Graphics/SVG/1.1/DTD/svg11.dtd">
<svg version="1.1" id="图层_1" xmlns="http://www.w3.org/2000/svg" xmlns:xlink="http://www.w3.org/1999/xlink" x="0px" y="0px"
	 width="480px" height="480px" viewBox="0 0 480 480" enable-background="new 0 0 480 480" xml:space="preserve">
<g>
	<path d="M460,180v-60.119C460,97.89,442.556,80,420.562,80H60.208C38.179,80,20,97.855,20,119.881V180c34,0,60,26.863,60,60
		c0,33.137-26,60-60,60v60.119C20,382.11,38.215,400,60.208,400h360.354c22.03,0,39.438-17.855,39.438-39.881V300
		c-33,0-60-26.863-60-60C400,206.863,427,180,460,180z M380,240c0,37.209,26,68.566,60,77.469v42.65
		c0,10.963-8.507,19.881-19.438,19.881H60.208C49.278,380,40,371.081,40,360.119v-42.65c35-8.903,60-40.26,60-77.469
		c0-37.209-25-68.566-60-77.469v-42.65C40,108.919,49.278,100,60.208,100h360.354c10.93,0,19.438,8.919,19.438,19.881v42.65
		C406,171.434,380,202.791,380,240z"/>
	<polygon points="283.106,157 240.866,229.72 198.145,157 178.945,157 223.346,231 185,231 185,244 232,244 232,265 185,265 
		185,278 232,278 232,322 249,322 249,278 296,278 296,265 249,265 249,244 296,244 296,231 257.906,231 301.826,157 	"/>
</g>
</svg>
