<?xml version="1.0" encoding="utf-8"?>
<!-- Generator: Adobe Illustrator 17.0.0, SVG Export Plug-In . SVG Version: 6.00 Build 0)  -->
<!DOCTYPE svg PUBLIC "-//W3C//DTD SVG 1.1//EN" "http://www.w3.org/Graphics/SVG/1.1/DTD/svg11.dtd">
<svg version="1.1" id="图层_1" xmlns="http://www.w3.org/2000/svg" xmlns:xlink="http://www.w3.org/1999/xlink" x="0px" y="0px"
	 width="480px" height="480px" viewBox="0 0 480 480" enable-background="new 0 0 480 480" xml:space="preserve">
<g>
	<path d="M400,90H80c-22.091,0-40,17.909-40,40v220c0,22.091,17.909,40,40,40h320c22.091,0,40-17.909,40-40V130
		C440,107.909,422.091,90,400,90z M420,351c0,11.046-8.954,20-20,20H80c-11.046,0-20-8.954-20-20V131c0-11.046,8.954-20,20-20h320
		c11.046,0,20,8.954,20,20V351z"/>
	<path d="M303.249,230.55l-108.582-62.047l-0.049,0.032c-1.382-0.721-2.95-1.135-4.617-1.135c-5.523,0-10,4.477-10,10
		c0,0.189,0.018,0.373,0.028,0.559L180,177.978v124.753l0.013,0.008C180.011,302.827,180,302.912,180,303c0,5.523,4.477,10,10,10
		c2.272,0,4.36-0.766,6.039-2.043L304,249.265v-0.103c3.53-1.544,6-5.063,6-9.162C310,235.616,307.175,231.9,303.249,230.55z
		 M200,288.122v-95.085l79.238,47.543L200,288.122z"/>
</g>
</svg>
