<?xml version="1.0" encoding="utf-8"?>
<!-- Generator: Adobe Illustrator 17.0.0, SVG Export Plug-In . SVG Version: 6.00 Build 0)  -->
<!DOCTYPE svg PUBLIC "-//W3C//DTD SVG 1.1//EN" "http://www.w3.org/Graphics/SVG/1.1/DTD/svg11.dtd">
<svg version="1.1" id="图层_1" xmlns="http://www.w3.org/2000/svg" xmlns:xlink="http://www.w3.org/1999/xlink" x="0px" y="0px"
	 width="480px" height="480px" viewBox="0 0 480 480" enable-background="new 0 0 480 480" xml:space="preserve">
<path d="M240,60C124.02,60,30,140.589,30,240c0,32.977,10.355,63.877,28.416,90.457l-25.298,84.84l95.427-22.727
	C160.847,409.943,199.051,420,240,420c115.98,0,210-80.589,210-180S355.98,60,240,60z M254,349h-30v-30h30V349z M301.947,215.196
	c-4.389,7.898-12.971,17.503-25.742,28.814c-8.582,7.605-14.188,13.214-16.82,16.82c-2.633,3.608-4.584,7.712-5.852,12.392
	c-1.268,4.681-2,12.778-2.193,22.778h-25.303c-0.099-3-0.146-6.103-0.146-7.859c0-10.334,1.463-19.236,4.388-26.746
	c2.144-5.654,5.606-11.349,10.384-17.103c3.512-4.19,9.822-10.306,18.941-18.351c9.117-8.044,15.041-14.453,17.771-19.231
	c2.729-4.776,4.096-9.992,4.096-15.649c0-10.238-4-19.233-11.994-26.985c-7.996-7.752-17.797-11.628-29.398-11.628
	c-11.215,0-20.576,3.51-28.083,10.531c-7.51,7.021-12.432,17.99-14.772,32.909l-27.059-3.218
	c2.436-19.988,9.676-35.297,21.72-45.926c12.042-10.627,27.959-15.943,47.754-15.943c20.963,0,37.686,5.705,50.168,17.113
	c12.48,11.409,18.723,25.208,18.723,41.393C308.529,198.668,306.334,207.298,301.947,215.196z"/>
</svg>
