<?xml version="1.0" encoding="utf-8"?>
<!-- Generator: Adobe Illustrator 17.0.0, SVG Export Plug-In . SVG Version: 6.00 Build 0)  -->
<!DOCTYPE svg PUBLIC "-//W3C//DTD SVG 1.1//EN" "http://www.w3.org/Graphics/SVG/1.1/DTD/svg11.dtd">
<svg version="1.1" id="图层_1" xmlns="http://www.w3.org/2000/svg" xmlns:xlink="http://www.w3.org/1999/xlink" x="0px" y="0px"
	 width="480px" height="480px" viewBox="0 0 480 480" enable-background="new 0 0 480 480" xml:space="preserve">
<g>
	<path d="M179.51,214.663l39.221-46.742L107.092,34.874c0,0-21.192,22.453-23.012,43.259c-1.82,20.806,15.545,41.326,15.545,41.326
		L179.51,214.663z"/>
	<path d="M402.335,316.619c-19.796-23.593-51.006-31.938-78.776-23.769l-44.26-52.747l100.896-120.243
		c0,0,17.366-20.52,15.545-41.326c-1.82-20.806-23.012-43.259-23.012-43.259L156.261,293.249
		c-27.77-8.169-58.98,0.177-78.776,23.769c-26.665,31.778-22.52,79.156,9.258,105.821c31.778,26.665,79.156,22.52,105.821-9.258
		c19.797-23.593,22.596-55.777,9.729-81.707l37.785-45.03l37.45,44.631c-12.867,25.93-10.068,58.114,9.729,81.707
		c26.665,31.778,74.043,35.923,105.821,9.258C424.855,395.775,429,348.397,402.335,316.619z M169.548,394.269
		c-15.999,19.067-44.426,21.554-63.493,5.555c-19.067-15.999-21.554-44.426-5.555-63.493s44.426-21.554,63.493-5.555
		C183.06,346.775,185.547,375.202,169.548,394.269z M224.153,242.46c0-8.297,6.726-15.023,15.023-15.023s15.023,6.726,15.023,15.023
		s-6.726,15.023-15.023,15.023S224.153,250.757,224.153,242.46z M373.765,399.424c-19.067,15.999-47.494,13.512-63.493-5.555
		c-15.999-19.067-13.512-47.493,5.555-63.493c19.067-15.999,47.493-13.512,63.493,5.555
		C395.318,354.998,392.832,383.425,373.765,399.424z"/>
</g>
</svg>
