<?xml version="1.0" encoding="utf-8"?>
<!-- Generator: Adobe Illustrator 17.0.0, SVG Export Plug-In . SVG Version: 6.00 Build 0)  -->
<!DOCTYPE svg PUBLIC "-//W3C//DTD SVG 1.1 Tiny//EN" "http://www.w3.org/Graphics/SVG/1.1/DTD/svg11-tiny.dtd">
<svg version="1.1" baseProfile="tiny" id="图层_1"
	 xmlns="http://www.w3.org/2000/svg" xmlns:xlink="http://www.w3.org/1999/xlink" x="0px" y="0px" width="480px" height="480px"
	 viewBox="0 0 480 480" xml:space="preserve">
<g>
	<path d="M410,360.539C410,379.31,390.194,400,370.448,400H110.012C90.682,400,70,380.519,70,360.539V100.033
		C70,78.992,91.488,60,110.012,60H250V40H110.012C76.953,40,50,66.973,50,100.033v260.507C50,393.599,76.953,420,110.012,420
		h260.436C403.508,420,430,393.599,430,360.539V200h-20V360.539z"/>
	<path d="M363.77,65.101l48.79,48.79L213.581,312.87l-48.862-0.073l0.051-48.696L363.77,65.101 M363.77,36.817L144.778,255.808
		l-0.08,76.959l77.155,0.115l218.992-218.992L363.77,36.817L363.77,36.817z"/>
</g>
</svg>
