<?xml version="1.0" encoding="utf-8"?>
<!-- Generator: Adobe Illustrator 17.0.0, SVG Export Plug-In . SVG Version: 6.00 Build 0)  -->
<!DOCTYPE svg PUBLIC "-//W3C//DTD SVG 1.1 Tiny//EN" "http://www.w3.org/Graphics/SVG/1.1/DTD/svg11-tiny.dtd">
<svg version="1.1" baseProfile="tiny" id="图层_1"
	 xmlns="http://www.w3.org/2000/svg" xmlns:xlink="http://www.w3.org/1999/xlink" x="0px" y="0px" width="480px" height="480px"
	 viewBox="0 0 480 480" xml:space="preserve">
<g>
	<path d="M400,370.539c0,16.53-13.022,29.461-29.552,29.461H110.012C93.483,400,80,387.069,80,370.539V110.033
		C80,93.503,93.483,80,110.012,80H250V50H110.012C76.953,50,50,76.973,50,110.033v260.507C50,403.599,76.953,430,110.012,430
		h260.436C403.508,430,430,403.599,430,370.539V210h-30V370.539z"/>
	<path d="M363.77,36.816L144.778,255.808l-0.08,77.166l77.155-0.091l218.992-218.992L363.77,36.816z M208.625,300.856l-34.578,1.355
		l1.344-34.589L363.063,79.95l33.234,33.234L208.625,300.856z"/>
</g>
</svg>
