<?xml version="1.0" encoding="utf-8"?>
<!-- Generator: Adobe Illustrator 17.0.0, SVG Export Plug-In . SVG Version: 6.00 Build 0)  -->
<!DOCTYPE svg PUBLIC "-//W3C//DTD SVG 1.1//EN" "http://www.w3.org/Graphics/SVG/1.1/DTD/svg11.dtd">
<svg version="1.1" id="图层_1" xmlns="http://www.w3.org/2000/svg" xmlns:xlink="http://www.w3.org/1999/xlink" x="0px" y="0px"
	 width="480px" height="480px" viewBox="0 0 480 480" enable-background="new 0 0 480 480" xml:space="preserve">
<path d="M239.764,69.524c-93.888,0-170,76.112-170,170s76.112,170,170,170s170-76.112,170-170S333.653,69.524,239.764,69.524z
	 M239.764,369.524c-71.797,0-130-58.203-130-130s58.203-130,130-130s130,58.203,130,130S311.561,369.524,239.764,369.524z"/>
<ellipse cx="189.333" cy="200.667" rx="30" ry="40"/>
<ellipse cx="289.333" cy="199.667" rx="30" ry="40"/>
<path d="M326.994,258.961c-9.759,23.927-45.152,41.656-87.327,41.656c-41.671,0-76.722-17.308-86.966-40.802
	c-1.761,5.074-2.701,10.383-2.701,15.851c0,35.899,40.294,65,90,65s90-29.101,90-65C330,269.891,328.951,264.292,326.994,258.961z"
	/>
</svg>
