<?xml version="1.0" encoding="utf-8"?>
<!-- Generator: Adobe Illustrator 17.0.0, SVG Export Plug-In . SVG Version: 6.00 Build 0)  -->
<!DOCTYPE svg PUBLIC "-//W3C//DTD SVG 1.1//EN" "http://www.w3.org/Graphics/SVG/1.1/DTD/svg11.dtd">
<svg version="1.1" id="图层_1" xmlns="http://www.w3.org/2000/svg" xmlns:xlink="http://www.w3.org/1999/xlink" x="0px" y="0px"
	 width="480px" height="480px" viewBox="0 0 480 480" enable-background="new 0 0 480 480" xml:space="preserve">
<path d="M240,0C107.452,0,0,107.452,0,240s107.452,240,240,240s240-107.452,240-240S372.548,0,240,0z M240,460
	c-121.503,0-220-98.497-220-220S118.497,20,240,20s220,98.497,220,220S361.503,460,240,460z"/>
<path d="M140,150c-22.091,0-40,17.909-40,40c0,22.091,17.909,40,40,40s40-17.909,40-40C180,167.909,162.091,150,140,150z M140,210
	c-11.046,0-20-8.954-20-20c0-11.046,8.954-20,20-20s20,8.954,20,20C160,201.046,151.046,210,140,210z"/>
<path d="M360,190c0,5.523-4.477,10-10,10h-60c-5.523,0-10-4.477-10-10l0,0c0-5.523,4.477-10,10-10h60
	C355.523,180,360,184.477,360,190L360,190z"/>
<path d="M332.75,305l-0.068-0.042c0.524-1.214,0.818-2.552,0.818-3.958c0-5.523-4.477-10-10-10c-3.07,0-5.813,1.386-7.648,3.563
	l-0.102-0.063c0,0-0.123,0.238-0.366,0.673c-0.368,0.511-0.687,1.058-0.954,1.635c-6.322,10.454-40.264,52.692-97.274,49.901
	c-22.757-1.114-45.246-14.15-51.306-17.933c-1.727-1.422-3.939-2.276-6.351-2.276c-5.523,0-10,4.477-10,10
	c0,3.518,1.82,6.605,4.567,8.388L154,345c0,0,24.854,17.171,63.256,20c68.781,5.068,106.904-46.908,114.196-57.954
	c0.331-0.435,0.632-0.893,0.889-1.38C332.61,305.236,332.75,305,332.75,305z"/>
</svg>
