<?xml version="1.0" encoding="utf-8"?>
<!-- Generator: Adobe Illustrator 17.0.0, SVG Export Plug-In . SVG Version: 6.00 Build 0)  -->
<!DOCTYPE svg PUBLIC "-//W3C//DTD SVG 1.1//EN" "http://www.w3.org/Graphics/SVG/1.1/DTD/svg11.dtd">
<svg version="1.1" id="图层_1" xmlns="http://www.w3.org/2000/svg" xmlns:xlink="http://www.w3.org/1999/xlink" x="0px" y="0px"
	 width="480px" height="480px" viewBox="0 0 480 480" enable-background="new 0 0 480 480" xml:space="preserve">
<g>
	<path d="M400,60H80c-22.056,0-40,17.944-40,40v240c0,21.993,17.84,39.897,39.809,40l-0.308,24.051
		c-0.102,7.997,4.569,15.286,11.878,18.533c2.608,1.159,5.373,1.723,8.117,1.723c4.946,0,9.825-1.834,13.598-5.331L155.155,380H190
		h100h110c22.056,0,40-17.944,40-40V100C440,77.944,422.056,60,400,60z M190,360l20-100h60l20,100H190z M420,340
		c0,11.046-8.954,20-20,20h-90.007c0-1.306-0.12-2.619-0.381-3.922l-20-100C287.742,246.729,279.534,240,270,240h-60
		c-9.534,0-17.742,6.729-19.612,16.078l-20,100c-0.261,1.303-0.381,2.616-0.381,3.922h-22.694L99.5,404.307L100.067,360H80
		c-11.046,0-20-8.954-20-20V100c0-11.046,8.954-20,20-20h320c11.046,0,20,8.954,20,20V340z"/>
	<circle cx="170" cy="159.5" r="20"/>
	<circle cx="310" cy="159.5" r="20"/>
</g>
</svg>
