<?xml version="1.0" encoding="utf-8"?>
<!-- Generator: Adobe Illustrator 17.0.0, SVG Export Plug-In . SVG Version: 6.00 Build 0)  -->
<!DOCTYPE svg PUBLIC "-//W3C//DTD SVG 1.1 Tiny//EN" "http://www.w3.org/Graphics/SVG/1.1/DTD/svg11-tiny.dtd">
<svg version="1.1" baseProfile="tiny" id="图层_1"
	 xmlns="http://www.w3.org/2000/svg" xmlns:xlink="http://www.w3.org/1999/xlink" x="0px" y="0px" width="480px" height="480px"
	 viewBox="0 0 480 480" xml:space="preserve">
<path d="M413.553,150.8l-31.925-31.925c0.526-0.402,1.039-0.828,1.519-1.309l14.142-14.142c5.858-5.858,5.858-15.355,0-21.213
	c-5.858-5.858-15.355-5.858-21.213,0l-14.142,14.142c-0.481,0.481-0.907,0.994-1.309,1.519L328.7,65.947
	c-7.81-7.81-20.474-7.81-28.284,0l-28.284,28.284l-7.071-7.071c-7.81-7.81-20.474-7.81-28.284,0L67.071,256.866
	c-7.81,7.81-7.81,20.474,0,28.284L194.35,412.429c7.81,7.81,20.474,7.81,28.284,0L392.34,242.724c7.81-7.81,7.81-20.474,0-28.284
	l-7.071-7.071l28.284-28.284C421.364,171.273,421.364,158.61,413.553,150.8z M215.563,391.216c-3.905,3.905-10.237,3.905-14.142,0
	L88.284,278.079c-3.905-3.905-3.905-10.237,0-14.142l21.172-21.172c11.327,11.278,50.534,47.562,89.844,51.577
	c43.985,4.493,72.567,28.047,79.148,33.989L215.563,391.216z M371.127,235.653l-77.791,77.791
	c-16.377-15.984-42.651-34.844-83.79-37.56c-38.574-2.546-77.486-40.131-85.223-47.986l119.525-119.525
	c3.905-3.905,10.237-3.905,14.142,0L371.127,221.51C375.032,225.416,375.032,231.747,371.127,235.653z M392.34,172.013
	l-21.213,21.213l-84.853-84.853l21.213-21.213c3.905-3.905,10.237-3.905,14.142,0l70.711,70.711
	C396.245,161.776,396.245,168.108,392.34,172.013z"/>
</svg>
