<?xml version="1.0" encoding="utf-8"?>
<!-- Generator: Adobe Illustrator 17.0.0, SVG Export Plug-In . SVG Version: 6.00 Build 0)  -->
<!DOCTYPE svg PUBLIC "-//W3C//DTD SVG 1.1//EN" "http://www.w3.org/Graphics/SVG/1.1/DTD/svg11.dtd">
<svg version="1.1" id="图层_1" xmlns="http://www.w3.org/2000/svg" xmlns:xlink="http://www.w3.org/1999/xlink" x="0px" y="0px"
	 width="480px" height="480px" viewBox="0 0 480 480" enable-background="new 0 0 480 480" xml:space="preserve">
<path fill-rule="evenodd" clip-rule="evenodd" d="M335.039,59.913c-66.157,0-86.428,39.874-141.43,39.874
	c-36.373,0-65.455-28.942-73.609-37.93v-7.035c0-13.64-11.451-24.702-25.167-24.702S70,41.183,70,54.823v370.525
	c0,13.64,11.118,24.702,24.833,24.702S120,438.988,120,425.348V303.302c8.113,6.519,37.001,27.389,74.388,27.389
	c54.066,0,73.915-39.771,140.241-39.771c55.934,0,75.371,20.104,75.371,20.104V80.591C410,80.591,391.142,59.913,335.039,59.913z"/>
</svg>
