<?xml version="1.0" encoding="utf-8"?>
<!-- Generator: Adobe Illustrator 17.0.0, SVG Export Plug-In . SVG Version: 6.00 Build 0)  -->
<!DOCTYPE svg PUBLIC "-//W3C//DTD SVG 1.1//EN" "http://www.w3.org/Graphics/SVG/1.1/DTD/svg11.dtd">
<svg version="1.1" id="图层_1" xmlns="http://www.w3.org/2000/svg" xmlns:xlink="http://www.w3.org/1999/xlink" x="0px" y="0px"
	 width="480px" height="480px" viewBox="0 0 480 480" enable-background="new 0 0 480 480" xml:space="preserve">
<path fill-rule="evenodd" clip-rule="evenodd" d="M314.684,351.459c-27.443,19.216-46.261,45.37-58.586,67.728V305.104
	c72.536-8.029,129.143-68.261,129.143-142.25c0-4.234-0.184-8.245-0.546-12.043c-0.575-36.053-7.586-72.157,5.156-99.1
	c-41.436-14.097-72.586,5.158-93.304,32.539c-0.538-0.041-1.076-0.079-1.617-0.116C279.181,49.054,252.294,15,240,15
	c-12.294,0-39.181,34.054-54.931,69.134c-0.541,0.038-1.079,0.075-1.617,0.116c-20.718-27.382-51.868-46.637-93.304-32.539
	c12.742,26.943,5.731,63.047,5.156,99.1c-0.362,3.799-0.546,7.809-0.546,12.043c0,73.962,56.566,134.18,129.065,142.243v113.95
	c-12.327-22.328-31.122-48.412-58.509-67.588c-58.309-40.828-133.082-34.646-133.082-34.646s19.764,72.379,78.073,113.207
	C161.27,465.706,224.8,465.477,240,464.854c15.2,0.623,78.729,0.852,129.693-34.834c58.309-40.828,78.075-113.207,78.075-113.207
	S372.993,310.63,314.684,351.459z"/>
</svg>
