<?xml version="1.0" encoding="utf-8"?>
<!-- Generator: Adobe Illustrator 17.0.0, SVG Export Plug-In . SVG Version: 6.00 Build 0)  -->
<!DOCTYPE svg PUBLIC "-//W3C//DTD SVG 1.1//EN" "http://www.w3.org/Graphics/SVG/1.1/DTD/svg11.dtd">
<svg version="1.1" id="图层_1" xmlns="http://www.w3.org/2000/svg" xmlns:xlink="http://www.w3.org/1999/xlink" x="0px" y="0px"
	 width="480px" height="480px" viewBox="0 0 480 480" enable-background="new 0 0 480 480" xml:space="preserve">
<g>
	<path d="M290.71,276c49.423,0,89.29-40.486,89.29-89.909V37h-0.067l-67.166,59.631l-63.902-68.935l-67.213,74.88L112,38.374
		v147.716C112,235.514,151.799,276,201.222,276H216v173h60V276H290.71z"/>
	<path d="M404.697,322.669c0,0-62.078-5.418-97.025,29.529c-34.947,34.947-29.529,97.025-29.529,97.025s62.078,5.418,97.025-29.529
		C410.114,384.747,404.697,322.669,404.697,322.669z"/>
	<path d="M75.303,322.669c0,0-5.418,62.078,29.529,97.025c34.947,34.947,97.025,29.529,97.025,29.529s5.418-62.078-29.529-97.025
		C137.381,317.251,75.303,322.669,75.303,322.669z"/>
</g>
</svg>
