<?xml version="1.0" encoding="utf-8"?>
<!-- Generator: Adobe Illustrator 17.0.0, SVG Export Plug-In . SVG Version: 6.00 Build 0)  -->
<!DOCTYPE svg PUBLIC "-//W3C//DTD SVG 1.1//EN" "http://www.w3.org/Graphics/SVG/1.1/DTD/svg11.dtd">
<svg version="1.1" id="图层_1" xmlns="http://www.w3.org/2000/svg" xmlns:xlink="http://www.w3.org/1999/xlink" x="0px" y="0px"
	 width="480px" height="480px" viewBox="0 0 480 480" enable-background="new 0 0 480 480" xml:space="preserve">
<path fill-rule="evenodd" clip-rule="evenodd" d="M314.684,351.459c-27.443,19.216-46.261,45.37-58.586,67.729l0.079-117.043
	c54.724-7.02,96.789-49.731,96.789-114.651c0-0.632,0-3.414,0-4.204c0-70.587-27.546-133.077-48.863-144.458
	c-7.594-2.813-19.009,28.17-24.638,54.718C271.344,62.5,250.844,15,240,15s-31.344,47.5-39.465,78.549
	C194.906,67,183.492,36.018,175.898,38.83c-21.317,11.381-48.863,73.871-48.863,144.458c0,0.791,0,3.573,0,4.204
	c0,64.92,42.064,107.632,96.789,114.651v116.903c-12.327-22.328-31.122-48.412-58.509-67.589
	c-58.309-40.828-133.082-34.646-133.082-34.646s19.764,72.379,78.073,113.207C161.27,465.706,224.8,465.477,240,464.854
	c15.2,0.623,78.729,0.852,129.693-34.834c58.309-40.828,78.075-113.207,78.075-113.207S372.993,310.63,314.684,351.459z"/>
</svg>
