<?xml version="1.0" encoding="utf-8"?>
<!-- Generator: Adobe Illustrator 17.0.0, SVG Export Plug-In . SVG Version: 6.00 Build 0)  -->
<!DOCTYPE svg PUBLIC "-//W3C//DTD SVG 1.1//EN" "http://www.w3.org/Graphics/SVG/1.1/DTD/svg11.dtd">
<svg version="1.1" id="图层_1" xmlns="http://www.w3.org/2000/svg" xmlns:xlink="http://www.w3.org/1999/xlink" x="0px" y="0px"
	 width="480px" height="480px" viewBox="0 0 480 480" enable-background="new 0 0 480 480" xml:space="preserve">
<path fill-rule="evenodd" clip-rule="evenodd" d="M314.684,351.459c-27.443,19.216-46.261,45.37-58.586,67.729V305.001
	c70.749-6.848,126.479-64.971,129.488-136.713c0.183-2.267,0.278-4.584,0.278-6.95c0-74.243-52.245-118.123-63.604-118.123
	c-4.593-0.548-20.926,23.118-30.704,50.261C276.474,53.359,251.514,15,240,15s-36.474,38.36-51.555,78.476
	c-9.778-27.142-26.112-50.809-30.704-50.261c-11.359,0-63.604,43.88-63.604,118.123c0,2.366,0.095,4.683,0.278,6.95
	c3.008,71.715,58.697,129.823,129.409,136.706v114.053c-12.327-22.328-31.122-48.412-58.509-67.589
	c-58.309-40.828-133.082-34.646-133.082-34.646s19.764,72.379,78.073,113.207C161.27,465.706,224.8,465.477,240,464.854
	c15.2,0.623,78.729,0.852,129.693-34.834c58.309-40.828,78.075-113.207,78.075-113.207S372.993,310.63,314.684,351.459z"/>
</svg>
