<?xml version="1.0" encoding="utf-8"?>
<!-- Generator: Adobe Illustrator 17.0.0, SVG Export Plug-In . SVG Version: 6.00 Build 0)  -->
<!DOCTYPE svg PUBLIC "-//W3C//DTD SVG 1.1//EN" "http://www.w3.org/Graphics/SVG/1.1/DTD/svg11.dtd">
<svg version="1.1" id="图层_1" xmlns="http://www.w3.org/2000/svg" xmlns:xlink="http://www.w3.org/1999/xlink" x="0px" y="0px"
	 width="480px" height="480px" viewBox="0 0 480 480" enable-background="new 0 0 480 480" xml:space="preserve">
<g>
	<g>
		<path d="M372,160.074V160H51.95c-2.633,0.005-5.309,0.529-7.88,1.639c-7.375,3.185-11.834,10.282-12.046,17.815L32,179.5v0.55
			c0,0.063-0.001,0.126,0,0.189V248c0,88.366,71.634,160,160,160h20c62.927,0,117.36-36.333,143.49-89.16
			c4.402,0.758,8.927,1.16,13.554,1.16c44.183,0,80.022-35.817,80.022-80C449.066,196.794,414.83,161.609,372,160.074z M352,248
			c0,0.436-0.097,8.29-0.38,10.417c-0.005,0.034-0.005,0.068-0.008,0.102c-2.467,33.433-16.67,64.528-40.618,88.476
			C284.552,373.437,249.395,388,212,388h-20c-37.395,0-72.552-14.563-98.995-41.005C66.563,320.552,52,285.395,52,248v-48.002V190
			c0-5.523,4.477-10,10-10h9.998H352V248z M369.044,300c-1.885,0-3.69-0.086-5.546-0.258c1.295-3.853,2.443-7.759,3.45-11.703
			c0.007-0.028,0.015-0.056,0.022-0.085c0.287-1.124,0.912-3.738,0.953-3.918c0.138-0.601,1.763-7.637,2.699-13.917
			c0.792-5.313,0.926-10.062,0.932-10.145c0.087-1.165,0.237-3.786,0.244-3.93c0.064-1.285,0.201-6.493,0.201-7.772v-68.207
			c0,0.852,19.886-2.172,38.991,16.005c13.873,13.199,18.097,30.281,18.097,43.929C429.088,273.084,402.128,300,369.044,300z"/>
	</g>
	<g>
		<path d="M109.25,85.75c13.746,0,21.169,4.503,29.765,9.717c9.297,5.64,19.835,12.033,37.485,12.033
			c17.296,0,27.642-7.651,36.769-14.401c9.456-6.993,18.387-13.599,36.981-13.599c18.145,0,27.067,6.714,37.397,14.488
			C297.622,101.493,308.927,110,327.75,110c30.061,0,43.452-23.665,44.008-24.672L363,80.5l-8.712-4.91
			C353.949,76.179,345.767,90,327.75,90c-12.139,0-19.172-5.292-28.076-11.993C288.716,69.762,275.079,59.5,250.25,59.5
			c-25.186,0-38.32,9.713-48.874,17.519C193.149,83.104,187.204,87.5,176.5,87.5c-12.058,0-18.701-4.03-27.112-9.132
			c-9.75-5.914-20.8-12.618-40.138-12.618c-36.815,0-59.54,27.257-60.49,28.417l15.479,12.665
			C64.412,106.622,81.806,85.75,109.25,85.75z"/>
	</g>
</g>
</svg>
