<?xml version="1.0" encoding="utf-8"?>
<!-- Generator: Adobe Illustrator 17.0.0, SVG Export Plug-In . SVG Version: 6.00 Build 0)  -->
<!DOCTYPE svg PUBLIC "-//W3C//DTD SVG 1.1 Tiny//EN" "http://www.w3.org/Graphics/SVG/1.1/DTD/svg11-tiny.dtd">
<svg version="1.1" baseProfile="tiny" id="图层_1"
	 xmlns="http://www.w3.org/2000/svg" xmlns:xlink="http://www.w3.org/1999/xlink" x="0px" y="0px" width="160px" height="160px"
	 viewBox="0 0 160 160" xml:space="preserve">
<g>
	<path d="M99.881,110.235c-4.648-1.549-14.844-4.602-17.922-7.68c-1.938-1.938-0.612-5.101,0.635-7.18
		c4.573-2.844,8.295-7.157,11.055-12.321c4.268-0.717,7.586-5.431,8.588-11.333c0.56-3.3,0.346-6.393-0.785-8.632
		c-0.538-1.066-1.296-1.917-2.181-2.581c0.007-0.355,0.018-0.709,0.018-1.064c0-19.91-13.27-32.477-29.639-32.477
		c-1.37,0-2.716,0.096-4.037,0.269c-6.419,0.478-14.72,2.603-19.033,3.506c-5.631,1.179-3.012,4.453-1.833,6.679
		c0.321,0.607,0.493,1.558,0.578,2.615c-3.346,5.187-5.314,11.752-5.314,19.408c0,0.259,0.01,0.518,0.014,0.777
		c-1.07,0.701-1.995,1.634-2.618,2.869c-1.13,2.239-1.345,5.332-0.785,8.632c1.044,6.149,4.603,11.002,9.131,11.395
		c2.795,5.168,6.548,9.479,11.128,12.311c1.238,2.079,2.525,5.207,0.604,7.128c-3.078,3.078-13.274,6.13-17.922,7.68
		C30.92,113.116,17,114.819,17,130h52.723h52.723C122.445,114.819,108.525,113.116,99.881,110.235z"/>
	<path d="M121.328,110.235c-4.648-1.549-14.844-4.602-17.922-7.68c-1.938-1.938-0.612-5.101,0.635-7.18
		c4.573-2.844,8.295-7.157,11.055-12.321c4.268-0.717,7.586-5.431,8.588-11.333c0.56-3.3,0.346-6.393-0.785-8.632
		c-0.538-1.066-1.296-1.917-2.181-2.581c0.007-0.355,0.018-0.709,0.018-1.064c0-19.91-13.27-32.477-29.639-32.477
		c-1.37,0-2.716,0.096-4.037,0.269c-0.223,0.017-0.454,0.04-0.682,0.06c10.447,5.433,17.59,16.774,17.59,32.074
		c0,0.39-0.012,0.78-0.02,1.169c0.972,0.729,1.803,1.666,2.394,2.836c1.241,2.458,1.222,5.634,0.607,9.256
		c-1.1,6.479-5.55,11.915-9.385,12.731c-3.03,5.669-6.855,9.222-11.924,13.491c-0.726,3.566,13.874,7.584,18.977,9.285
		c5.607,1.869,14.597,3.788,19.144,10.766c2.064,3.167,2.688,6.947,2.873,11.093h17.257
		C143.891,114.819,129.971,113.116,121.328,110.235z"/>
</g>
</svg>
