<?xml version="1.0" encoding="utf-8"?>
<!-- Generator: Adobe Illustrator 17.0.0, SVG Export Plug-In . SVG Version: 6.00 Build 0)  -->
<!DOCTYPE svg PUBLIC "-//W3C//DTD SVG 1.1//EN" "http://www.w3.org/Graphics/SVG/1.1/DTD/svg11.dtd">
<svg version="1.1" id="图层_1" xmlns="http://www.w3.org/2000/svg" xmlns:xlink="http://www.w3.org/1999/xlink" x="0px" y="0px"
	 width="480px" height="480px" viewBox="0 0 480 480" enable-background="new 0 0 480 480" xml:space="preserve">
<path d="M441.23,218.854c-0.641-1.439-0.833-1.819-0.833-1.819S324.541,92.985,275.667,42.053C268.351,34.429,252.333,31,241.871,31
	c-10.462,0-28.876,3.416-36.204,11.053C157.268,92.489,42.265,215.651,42.265,215.651s-3.622,2.436-4.785,5.717
	c-2.8,3.24-4.479,7.355-4.479,11.869C33,243.614,41.88,252,52.833,252C61.455,252,69,252,77,252v179.924
	C77,442.459,85.724,451,96.599,451h78.136c10.64,0,19.265-8.707,19.265-19.012V318.303C194,306.131,204.345,296,217.552,296h46.229
	C276.789,296,287,306.278,287,318.303v113.685c0,10.5,8.724,19.012,19.599,19.012h78.136c10.64,0,19.265-8.549,19.265-19.076V252
	c15,0,23.333,0,23.333,0c12.12,0,21-8.386,21-18.764C448.333,227.45,445.572,222.3,441.23,218.854z M404,232h-20v20.053V431h-77
	V318.303C307,295.122,287.796,276,263.781,276h-46.229c-11.48,0-22.29,4.355-30.437,12.024C178.658,295.985,174,306.823,174,318.303
	V431l-77-0.002V252.053V232H77.333H54.68l0.394-0.43l0.213-0.588l0.035-0.017l1.56-1.668c1.148-1.229,115.23-123.387,163.07-173.248
	c2.884-2.243,13.674-5.05,21.918-5.05c8.199,0,17.279,2.948,19.365,4.901c44.481,46.354,145.921,154.856,162.301,172.385
	l1.421,3.162l0.731,0.554H404z"/>
</svg>
