<?xml version="1.0" encoding="utf-8"?>
<!-- Generator: Adobe Illustrator 17.0.0, SVG Export Plug-In . SVG Version: 6.00 Build 0)  -->
<!DOCTYPE svg PUBLIC "-//W3C//DTD SVG 1.1 Tiny//EN" "http://www.w3.org/Graphics/SVG/1.1/DTD/svg11-tiny.dtd">
<svg version="1.1" baseProfile="tiny" id="图层_1"
	 xmlns="http://www.w3.org/2000/svg" xmlns:xlink="http://www.w3.org/1999/xlink" x="0px" y="0px" width="480px" height="480px"
	 viewBox="0 0 480 480" xml:space="preserve">
<path d="M463.568,240.694l0.047-0.132L264.484,31.091c-5.479-7.215-14.146-11.878-23.904-11.878
	c-10.102,0-19.032,4.999-24.468,12.652L16.56,241.81c-0.181,0.175-0.352,0.358-0.519,0.546l-0.125,0.132l0.002,0.004
	c-1.503,1.75-2.417,4.02-2.417,6.508c0,5.523,4.477,10,10,10c0.535,0,1.057-0.054,1.57-0.135L25.145,259H61v180
	c0,11.046,8.954,20,20,20h110V303h100v156h110c11.046,0,20-8.954,20-20V259h35.993l0.018-0.05c0.325,0.032,0.655,0.05,0.989,0.05
	c5.523,0,10-4.477,10-10C468,245.539,466.241,242.489,463.568,240.694z M401,239v199h-90V298c0-11.046-8.954-20-20-20H191
	c-11.046,0-20,8.954-20,20v140H81V239H46.851L234.879,41.883c1.373-1.898,3.599-3.138,6.121-3.138c2.608,0,4.907,1.321,6.265,3.331
	L434.896,239H401z"/>
</svg>
