<?xml version="1.0" encoding="utf-8"?>
<!DOCTYPE svg PUBLIC "-//W3C//DTD SVG 1.1//EN" "http://www.w3.org/Graphics/SVG/1.1/DTD/svg11.dtd">
<svg version="1.1" id="图形" xmlns="http://www.w3.org/2000/svg" xmlns:xlink="http://www.w3.org/1999/xlink" x="0px" y="0px" width="1024px" height="1024px" viewBox="0 0 1024 1024" enable-background="new 0 0 1024 1024" xml:space="preserve">
  <path fill="#272636" d="M538.624-136.224l-146.432 145.408-182.272-182.272-105.472 104.448 183.296 183.296q-41.984 40.96-68.608 68.608l-44.032 43.008-23.552 24.576q-8.192 7.168-9.216 9.216l104.448 104.448 145.408-145.408 233.472 233.472q-62.464 15.36-101.376 25.088t-60.928 15.36-30.208 7.68l-10.24 2.048q-2.048 1.024-0.512 0.512t-0.512 0.512l35.84 143.36 371.712-92.16 91.136-370.688-144.384-35.84-49.152 195.584-229.376-229.376 145.408-146.432z" transform="translate(0, 812) scale(1, -1)"/>
</svg>
