<?xml version="1.0" encoding="utf-8"?>
<!DOCTYPE svg PUBLIC "-//W3C//DTD SVG 1.1//EN" "http://www.w3.org/Graphics/SVG/1.1/DTD/svg11.dtd">
<svg version="1.1" id="图形" xmlns="http://www.w3.org/2000/svg" xmlns:xlink="http://www.w3.org/1999/xlink" x="0px" y="0px" width="1024px" height="1024px" viewBox="0 0 1024 1024" enable-background="new 0 0 1024 1024" xml:space="preserve">
  <path fill="#272636" d="M128 362.464l769.024 0 0-130.048-23.552 0q-20.48 0-26.624 10.752t-10.24 24.064-12.8 24.576-33.28 13.312q-24.576 1.024-44.544-8.704t-38.4-22.016-36.352-23.04-38.4-10.752-30.72 9.216-18.944 19.968-19.968 19.968-32.768 9.216-43.008-7.168-41.984-15.872-40.96-15.872-39.936-7.168q-20.48 0-34.816 5.12t-29.184 11.776-31.744 12.8-42.496 8.192q-28.672 2.048-54.272-7.68t-44.032-22.016l0 101.376zM128 41.952l769.024 0 0-128-769.024 0 0 128zM783.36 232.416q17.408 1.024 26.624-7.168t17.92-19.456 18.944-20.48 28.672-9.216l21.504 0 0-69.632-769.024 0 0 79.872q13.312 12.288 37.376 26.112t54.784 13.824q22.528 0 35.84-7.168t25.6-15.872 28.16-15.872 44.544-7.168 51.712 6.656 43.008 15.36 36.864 15.36 32.256 6.656q24.576 0 33.792-8.192t16.896-17.408 18.944-17.408 38.912-8.192 49.152 8.704 39.424 19.456 34.304 19.968 33.792 11.264zM897.024 426.976l-769.024 0 0 64.512q8.192 43.008 41.984 78.848t86.016 61.952 118.272 40.448 138.752 14.336q73.728 0 139.776-14.336t117.248-40.448 84.992-61.952 41.984-78.848l0-64.512zM347.136 556q13.312 0 22.528 9.216t9.216 22.528-9.216 22.528-22.528 9.216-22.528-9.216-9.216-22.528 9.216-22.528 22.528-9.216zM538.624 619.488q14.336 0 23.04 9.216t8.704 22.528-8.704 22.528-23.04 9.216q-13.312 0-22.016-9.216t-8.704-22.528 8.704-22.528 22.016-9.216zM667.648 556q13.312 0 22.528 9.216t9.216 22.528-9.216 22.528-22.528 9.216-22.528-9.216-9.216-22.528 9.216-22.528 22.528-9.216z" transform="translate(0, 812) scale(1, -1)"/>
</svg>
