<?xml version="1.0" encoding="utf-8"?>
<!DOCTYPE svg PUBLIC "-//W3C//DTD SVG 1.1//EN" "http://www.w3.org/Graphics/SVG/1.1/DTD/svg11.dtd">
<svg version="1.1" id="图形" xmlns="http://www.w3.org/2000/svg" xmlns:xlink="http://www.w3.org/1999/xlink" x="0px" y="0px" width="1138px" height="1024px" viewBox="0 0 1138 1024" enable-background="new 0 0 1138 1024" xml:space="preserve">
  <path fill="#272636" d="M340.727595 356.787933l-113.575865 0 0 113.575865 113.575865 0 0-113.575865zM1137.575865 812l0-1024-1137.575865 0 0 1024 1137.575865 0zM454.303461 527.606034l-340.727595 0 0-455.212067 113.575865 0 0 170.818101 113.575865 0 0-170.818101 113.575865 0 0 455.212067zM738.697427 129.636202l-113.575865 0 0 397.969831-113.575865 0 0-455.212067 227.15173 0 0 57.242236zM1023.091393 129.636202l-113.575865 0 0 397.969831-113.575865 0 0-455.212067 227.15173 0 0 57.242236z" transform="translate(0, 812) scale(1, -1)"/>
</svg>
