<?xml version="1.0" encoding="utf-8"?>
<!-- Generator: Adobe Illustrator 17.0.0, SVG Export Plug-In . SVG Version: 6.00 Build 0)  -->
<!DOCTYPE svg PUBLIC "-//W3C//DTD SVG 1.1//EN" "http://www.w3.org/Graphics/SVG/1.1/DTD/svg11.dtd">
<svg version="1.1" id="图层_1" xmlns="http://www.w3.org/2000/svg" xmlns:xlink="http://www.w3.org/1999/xlink" x="0px" y="0px"
	 width="480px" height="480px" viewBox="0 0 480 480" enable-background="new 0 0 480 480" xml:space="preserve">
<g>
	<path d="M241.378,166.58c-49.706,0-90,40.294-90,90s40.294,90,90,90s90-40.294,90-90S291.084,166.58,241.378,166.58z
		 M242.332,326.58c-38.66,0-70-31.34-70-70c0-38.66,31.34-70,70-70c38.66,0,70,31.34,70,70
		C312.332,295.24,280.992,326.58,242.332,326.58z"/>
	<path d="M410,120h-61.05L334,82.625C329.26,70.632,320.046,63,309,63H169c-11.046,0-18.411,5.687-25,19.625L129.05,120H70
		c-22.091,0-40,17.909-40,40v220c0,22.091,17.909,40,40,40h340c22.091,0,40-17.909,40-40V160C450,137.909,432.091,120,410,120z
		 M430,380c0,11.046-8.954,20-20,20H70c-11.046,0-20-8.954-20-20V160c0-11.046,8.954-20,20-20h62.833l0.226-0.141
		c0.525,0.085,1.059,0.141,1.607,0.141c4.833,0,8.865-3.429,9.797-7.986L148.537,120h-0.019l1.085-3.142L158.37,91h0.415
		c2.392-5.302,4.589-8,12.389-8h135.652c6.324,0,7.493,3,10.115,8H317l0.253,0.59c0.373,0.7,0.773,1.432,1.226,2.202l8.207,19.826
		l8.399,19.614l0.168,0.115c1.378,3.874,5.067,6.654,9.414,6.654c0.105,0,0.206-0.013,0.31-0.016L345,140h65
		c11.046,0,20,8.954,20,20V380z"/>
	<path d="M396,160h-40c-5.523,0-10,4.477-10,10c0,5.523,4.477,10,10,10h40c5.523,0,10-4.477,10-10C406,164.477,401.523,160,396,160z
		"/>
</g>
</svg>
