<?xml version="1.0" encoding="utf-8"?>
<!-- Generator: Adobe Illustrator 17.0.0, SVG Export Plug-In . SVG Version: 6.00 Build 0)  -->
<!DOCTYPE svg PUBLIC "-//W3C//DTD SVG 1.1//EN" "http://www.w3.org/Graphics/SVG/1.1/DTD/svg11.dtd">
<svg version="1.1" id="图层_1" xmlns="http://www.w3.org/2000/svg" xmlns:xlink="http://www.w3.org/1999/xlink" x="0px" y="0px"
	 width="480px" height="480px" viewBox="0 0 480 480" enable-background="new 0 0 480 480" xml:space="preserve">
<g>
	<path d="M240-4C107.452-4,0,103.452,0,236s107.452,240,240,240s240-107.452,240-240S372.548-4,240-4z M240,456
		c-121.503,0-220-98.497-220-220S118.497,16,240,16s220,98.497,220,220S361.503,456,240,456z"/>
	<path d="M110,170c-16.569,0-30,13.431-30,30s13.431,30,30,30s30-13.431,30-30S126.569,170,110,170z M110,210
		c-5.523,0-10-4.477-10-10c0-5.523,4.477-10,10-10s10,4.477,10,10C120,205.523,115.523,210,110,210z"/>
	<path d="M190,170c-16.569,0-30,13.431-30,30s13.431,30,30,30s30-13.431,30-30S206.569,170,190,170z M190,210
		c-5.523,0-10-4.477-10-10c0-5.523,4.477-10,10-10s10,4.477,10,10C200,205.523,195.523,210,190,210z"/>
	<path d="M270,230c16.569,0,30-13.431,30-30s-13.431-30-30-30s-30,13.431-30,30S253.431,230,270,230z M270,190
		c5.523,0,10,4.477,10,10c0,5.523-4.477,10-10,10s-10-4.477-10-10C260,194.477,264.477,190,270,190z"/>
	<path d="M110,250c-16.569,0-30,13.431-30,30s13.431,30,30,30s30-13.431,30-30S126.569,250,110,250z M110,290
		c-5.523,0-10-4.477-10-10c0-5.523,4.477-10,10-10s10,4.477,10,10C120,285.523,115.523,290,110,290z"/>
	<path d="M190,250c-16.569,0-30,13.431-30,30s13.431,30,30,30s30-13.431,30-30S206.569,250,190,250z M190,290
		c-5.523,0-10-4.477-10-10c0-5.523,4.477-10,10-10s10,4.477,10,10C200,285.523,195.523,290,190,290z"/>
	<path d="M370,170c-16.569,0-30,13.431-30,30v50h-70c-16.569,0-30,13.431-30,30s13.431,30,30,30h100c16.569,0,30-13.431,30-30v-80
		C400,183.431,386.569,170,370,170z M380,280c0,6-4.477,10-10,10H270c-5.523,0-10-4.477-10-10c0-5.523,4.477-10,10-10h90v-70
		c0-5.523,4.477-10,10-10s10,4.477,10,10V280z"/>
</g>
</svg>
