<?xml version="1.0" encoding="utf-8"?>
<!-- Generator: Adobe Illustrator 17.0.0, SVG Export Plug-In . SVG Version: 6.00 Build 0)  -->
<!DOCTYPE svg PUBLIC "-//W3C//DTD SVG 1.1 Tiny//EN" "http://www.w3.org/Graphics/SVG/1.1/DTD/svg11-tiny.dtd">
<svg version="1.1" baseProfile="tiny" id="图层_1"
	 xmlns="http://www.w3.org/2000/svg" xmlns:xlink="http://www.w3.org/1999/xlink" x="0px" y="0px" width="480px" height="480px"
	 viewBox="0 0 480 480" xml:space="preserve">
<g>
	<path d="M240,30C124.02,30,30,124.02,30,240c0,115.98,94.02,210,210,210s210-94.02,210-210C450,124.02,355.98,30,240,30z M240,420
		c-99.411,0-180-80.589-180-180S140.589,60,240,60s180,80.589,180,180S339.411,420,240,420z"/>
	<path d="M321,227.406v-0.271l-132.4-76.441l-0.066,0.038c-2.425-1.683-5.359-2.683-8.534-2.683c-8.284,0-15,6.716-15,15
		c0,0.411,0.089,0.798,0.121,1.201L165,164.32V318.68l0.05,0.029c-0.005,0.167-0.05,0.323-0.05,0.492c0,8.284,6.716,15,15,15
		c2.909,0,5.602-0.865,7.901-2.298l0.077,0.044L321,255.146v-0.272c5.293-2.317,9-7.586,9-13.734S326.293,229.723,321,227.406z"/>
</g>
</svg>
