<?xml version="1.0" encoding="utf-8"?>
<!-- Generator: Adobe Illustrator 17.0.0, SVG Export Plug-In . SVG Version: 6.00 Build 0)  -->
<!DOCTYPE svg PUBLIC "-//W3C//DTD SVG 1.1//EN" "http://www.w3.org/Graphics/SVG/1.1/DTD/svg11.dtd">
<svg version="1.1" id="图层_1" xmlns="http://www.w3.org/2000/svg" xmlns:xlink="http://www.w3.org/1999/xlink" x="0px" y="0px"
	 width="480px" height="480px" viewBox="0 0 480 480" enable-background="new 0 0 480 480" xml:space="preserve">
<g>
	<path d="M150,210h-20c-5.523,0-10,4.477-10,10c0,5.523,4.477,10,10,10h20c5.523,0,10-4.477,10-10C160,214.477,155.523,210,150,210z
		"/>
	<path d="M350,210H190c-5.523,0-10,4.477-10,10c0,5.523,4.477,10,10,10h160c5.523,0,10-4.477,10-10C360,214.477,355.523,210,350,210
		z"/>
	<path d="M150,300h-20c-5.523,0-10,4.477-10,10c0,5.523,4.477,10,10,10h20c5.523,0,10-4.477,10-10C160,304.477,155.523,300,150,300z
		"/>
	<path d="M350,300H190c-5.523,0-10,4.477-10,10c0,5.523,4.477,10,10,10h160c5.523,0,10-4.477,10-10C360,304.477,355.523,300,350,300
		z"/>
	<path d="M378.491,80H320v-9.851C320,59.104,309.705,30,278.667,30h-77.333C169.871,30,160,59.519,160,70.564V80h-53.509
		C87.714,80,70,95.618,70,115.5v298c0,19.882,17.714,36.5,36.491,36.5h272C397.269,450,410,433.382,410,413.5v-298
		C410,95.618,397.269,80,378.491,80z M180,70.734C180,65.212,187.125,50,201.407,50h77.253C293.25,50,300,65.212,300,70.734V100
		c0,5.523-4.477,10-10,10H190c-5.523,0-10-4.477-10-10V70.734z M390,410c0,11.046-8.954,20-20,20H110c-11.046,0-20-8.954-20-20V120
		c0-11.046,8.954-20,20-20h50v10c0,11.046,9.551,20,21.333,20h117.333c11.782,0,21.333-8.954,21.333-20v-10h50
		c11.046,0,20,8.954,20,20V410z"/>
</g>
</svg>
