<?xml version="1.0" encoding="utf-8"?>
<!DOCTYPE svg PUBLIC "-//W3C//DTD SVG 1.1//EN" "http://www.w3.org/Graphics/SVG/1.1/DTD/svg11.dtd">
<svg version="1.1" id="图形" xmlns="http://www.w3.org/2000/svg" xmlns:xlink="http://www.w3.org/1999/xlink" x="0px" y="0px" width="1024px" height="1024px" viewBox="0 0 1024 1024" enable-background="new 0 0 1024 1024" xml:space="preserve">
  <path fill="#272636" d="M723.306228 308.706984q24.012071 0 48.984626-11.525794t44.662453-33.6169 32.176176-54.267281 12.486277-73.476938q0-43.221729-22.091106-79.239836t-57.14873-58.109213-78.279353-27.373761-86.443457 13.927001q-17.288691-39.379797-38.419314-76.838628t-49.945108-65.793076-65.793076-43.70197-85.002733-8.644346q-8.644346 0.960483-15.367726 2.401207t-11.525794 3.36169q-5.762897 1.920966-9.604829 3.841931l16.328209 138.309531q16.328209-1.920966 34.577383 2.881449t34.097141 12.486277 27.373761 17.288691 14.407243 18.249174q7.683863 21.130623 16.80845 50.42535t21.610864 61.951144q-13.44676 25.933037-23.53183 57.628971t-17.768933 71.075731q-3.841931 20.17014-6.243139 47.543901t-3.841931 55.227764-2.881449 54.747523-3.841931 48.024143-6.243139 33.136659-9.604829 10.08507q-11.525794 1.920966-19.689899-22.091106t-13.927001-60.030178-9.124587-75.397904-4.322173-67.2338l-128.704703 0q-1.920966 73.95718-4.322173 117.65915t-6.243139 70.59549-10.08507 43.70197-17.768933 36.97859q-4.802414 8.644346-13.927001 14.407243t-17.768933 8.644346q-10.565311 3.841931-22.091106 4.802414l0 129.665186q26.89352 0 49.464867-8.644346t41.300763-23.53183 33.6169-34.577383 26.413279-40.820521l4.802414 10.565311q5.762897 11.525794 15.367726 27.854003t24.492313 31.215693 35.057624 25.452796 47.06366 10.565311q35.537866 0 59.549937-19.209657t39.860039-51.385833 25.452796-74.437421 15.847967-88.364423 11.045553-93.166837 11.525794-89.324906q24.012071 21.130623 52.826557 33.6169t64.352351 12.486277zM719.464297 114.689447q4.802414 0.960483 9.604829 8.164104t6.243139 14.887484-3.36169 14.407243-20.17014 6.72338q-10.565311-1.920966-19.689899-12.966519t-18.729416-29.294727q19.209657-8.644346 46.103177-1.920966z" transform="translate(0, 812) scale(1, -1)"/>
</svg>
