<?xml version="1.0" encoding="utf-8"?>
<!-- Generator: Adobe Illustrator 17.0.0, SVG Export Plug-In . SVG Version: 6.00 Build 0)  -->
<!DOCTYPE svg PUBLIC "-//W3C//DTD SVG 1.1//EN" "http://www.w3.org/Graphics/SVG/1.1/DTD/svg11.dtd">
<svg version="1.1" id="图层_1" xmlns="http://www.w3.org/2000/svg" xmlns:xlink="http://www.w3.org/1999/xlink" x="0px" y="0px"
	 width="480px" height="480px" viewBox="0 0 480 480" enable-background="new 0 0 480 480" xml:space="preserve">
<g>
	<path d="M299.85,265.542c-85.894,0-135.15,77.229-135.15,77.229S212.524,420,299.85,420C387.175,420,435,342.771,435,342.771
		S385.744,265.542,299.85,265.542z M299.85,387.771c-24.853,0-45-20.147-45-45c0-24.853,20.147-45,45-45c24.853,0,45,20.147,45,45
		C344.85,367.624,324.703,387.771,299.85,387.771z"/>
	<path d="M254.934,260.995c19.971-7.892,39.379-11.293,52.979-12.747c-14.203-7.387-29.511-12.94-45.61-16.347
		C293.385,217.72,315,186.394,315,150c0-49.706-40.294-90-90-90s-90,40.294-90,90c0,36.391,21.61,67.714,52.687,81.896
		C106.186,249.081,45,321.385,45,408h30c0-82.843,67.157-150,150-150C235.252,258,245.261,259.035,254.934,260.995z"/>
</g>
</svg>
