<?xml version="1.0" encoding="utf-8"?>
<!-- Generator: Adobe Illustrator 17.0.0, SVG Export Plug-In . SVG Version: 6.00 Build 0)  -->
<!DOCTYPE svg PUBLIC "-//W3C//DTD SVG 1.1 Tiny//EN" "http://www.w3.org/Graphics/SVG/1.1/DTD/svg11-tiny.dtd">
<svg version="1.1" baseProfile="tiny" id="图层_1"
	 xmlns="http://www.w3.org/2000/svg" xmlns:xlink="http://www.w3.org/1999/xlink" x="0px" y="0px" width="480px" height="480px"
	 viewBox="0 0 480 480" xml:space="preserve">
<g>
	<path d="M410.191,81.167h-340c-22.091,0-40,17.909-40,40v220c0,22.091,17.909,40,40,40h128.833l32.875,40.656h0.55
		c1.83,2.344,4.675,3.857,7.879,3.857c3.204,0,6.049-1.513,7.879-3.857h0.274l32.875-40.656h128.833c22.091,0,40-17.909,40-40v-220
		C450.191,99.075,432.282,81.167,410.191,81.167z M430.191,341.167c0,11.028-8.972,20-20,20H281.357
		c-6.039,0-11.755,2.729-15.552,7.424l-25.615,31.677l-25.615-31.677c-3.797-4.696-9.513-7.424-15.552-7.424H70.191
		c-11.028,0-20-8.972-20-20v-220c0-11.028,8.972-20,20-20h340c11.028,0,20,8.972,20,20V341.167z"/>
	<path d="M370.191,180.5h-260c-5.523,0-10,4.477-10,10s4.477,10,10,10h260c5.523,0,10-4.477,10-10S375.713,180.5,370.191,180.5z"/>
	<path d="M333.048,260.5H147.333c-3.945,0-7.143,4.477-7.143,10s3.198,10,7.143,10h185.714c3.945,0,7.143-4.477,7.143-10
		S336.993,260.5,333.048,260.5z"/>
</g>
</svg>
