<?xml version="1.0" encoding="utf-8"?>
<!-- Generator: Adobe Illustrator 17.0.0, SVG Export Plug-In . SVG Version: 6.00 Build 0)  -->
<!DOCTYPE svg PUBLIC "-//W3C//DTD SVG 1.1//EN" "http://www.w3.org/Graphics/SVG/1.1/DTD/svg11.dtd">
<svg version="1.1" id="图层_1" xmlns="http://www.w3.org/2000/svg" xmlns:xlink="http://www.w3.org/1999/xlink" x="0px" y="0px"
	 width="480px" height="480px" viewBox="0 0 480 480" enable-background="new 0 0 480 480" xml:space="preserve">
<g>
	<path d="M207.416,276H222v28.96c19-30.274,51.792-50.506,89.777-50.506c12.321,0,24.289,2.146,35.269,6.055
		C371.047,244.404,387,217.023,387,185.947V36h-0.384l-67.35,60.018l-64.077-69.011l-67.372,75.141L118,37.826v148.121
		C118,235.505,157.858,276,207.416,276z"/>
	<path d="M81.152,322.9c0,0-5.432,62.248,29.61,97.291c35.043,35.043,97.291,29.61,97.291,29.61s5.432-62.248-29.61-97.291
		C143.401,317.467,81.152,322.9,81.152,322.9z"/>
	<path d="M312.104,269.698c-49.558,0-89.733,40.175-89.733,89.733c0,49.558,40.175,89.733,89.733,89.733
		s89.733-40.175,89.733-89.733C401.837,309.872,361.662,269.698,312.104,269.698z M371.926,359.43
		c0,11.089-3.071,21.438-8.33,30.342l-81.833-81.833c8.904-5.259,19.252-8.33,30.342-8.33
		C345.143,299.609,371.926,326.392,371.926,359.43z M252.282,359.43c0-11.09,3.072-21.438,8.33-30.342l81.833,81.833
		c-8.904,5.258-19.252,8.33-30.342,8.33C279.065,419.252,252.282,392.469,252.282,359.43z"/>
</g>
</svg>
