<?xml version="1.0" encoding="utf-8"?>
<!-- Generator: Adobe Illustrator 17.0.0, SVG Export Plug-In . SVG Version: 6.00 Build 0)  -->
<!DOCTYPE svg PUBLIC "-//W3C//DTD SVG 1.1//EN" "http://www.w3.org/Graphics/SVG/1.1/DTD/svg11.dtd">
<svg version="1.1" id="图层_1" xmlns="http://www.w3.org/2000/svg" xmlns:xlink="http://www.w3.org/1999/xlink" x="0px" y="0px"
	 width="480px" height="480px" viewBox="0 0 480 480" enable-background="new 0 0 480 480" xml:space="preserve">
<g>
	<path d="M360,250c-49.706,0-90,40.294-90,90c0,49.706,40.294,90,90,90s90-40.294,90-90C450,290.294,409.706,250,360,250z M420,340
		c0,11.122-3.081,21.502-8.355,30.432l-82.077-82.077C338.498,283.081,348.877,280,360,280C393.137,280,420,306.863,420,340z
		 M300,340c0-11.123,3.081-21.502,8.355-30.432l82.077,82.077C381.502,396.919,371.123,400,360,400C326.863,400,300,373.137,300,340
		z"/>
	<path d="M30,70v330h244.022c-11.87-17.01-18.852-37.684-18.852-60H90V130h300v109.325c25.286,7.482,46.603,24.205,60,46.284V70H30z
		"/>
	<circle cx="180" cy="190" r="30"/>
	<path d="M120,310h139.543c12.896-43.316,52.97-74.92,100.457-74.996V196l-33-30L209.812,278.688l-45.188-34.875L119.438,280
		L120,310z"/>
</g>
</svg>
