<?xml version="1.0" encoding="utf-8"?>
<!-- Generator: Adobe Illustrator 16.0.0, SVG Export Plug-In . SVG Version: 6.00 Build 0)  -->
<!DOCTYPE svg PUBLIC "-//W3C//DTD SVG 1.1//EN" "http://www.w3.org/Graphics/SVG/1.1/DTD/svg11.dtd">
<svg version="1.1" id="图层_1" xmlns="http://www.w3.org/2000/svg" xmlns:xlink="http://www.w3.org/1999/xlink" x="0px" y="0px"
	 width="480px" height="480px" viewBox="112.5 -14 480 480" enable-background="new 112.5 -14 480 480" xml:space="preserve">
<g>
	<path d="M367.434,246.995c19.971-7.892,39.379-11.293,52.979-12.747c-14.202-7.387-29.511-12.94-45.609-16.347
		C405.885,203.72,427.5,172.394,427.5,136c0-49.706-40.294-90-90-90s-90,40.294-90,90c0,36.391,21.609,67.714,52.687,81.896
		C218.686,235.081,157.5,307.385,157.5,394h30c0-82.843,67.157-150,150-150C347.752,244,357.761,245.035,367.434,246.995z"/>
</g>
<path d="M277.2,328.771c0,0,47.823,77.229,135.149,77.229c15.498,0,29.745-2.441,42.709-6.442L323.725,281.489
	C293.513,303.203,277.2,328.771,277.2,328.771z M412.35,251.542c-10.601,0-20.64,1.181-30.101,3.242l128.145,114.493
	c24.354-19.916,37.106-40.506,37.106-40.506S498.243,251.542,412.35,251.542z M345.5,270l134.862,122.122L489.5,380l-134-121
	L345.5,270z"/>
<image display="none" overflow="visible" width="480" height="480" xlink:href="../../icon-png/PC端/52.png"  transform="matrix(1 0 0 1 2.441406e-004 0)">
</image>
</svg>
