<?xml version="1.0" encoding="utf-8"?>
<!-- Generator: Adobe Illustrator 17.0.0, SVG Export Plug-In . SVG Version: 6.00 Build 0)  -->
<!DOCTYPE svg PUBLIC "-//W3C//DTD SVG 1.1//EN" "http://www.w3.org/Graphics/SVG/1.1/DTD/svg11.dtd">
<svg version="1.1" id="图层_1" xmlns="http://www.w3.org/2000/svg" xmlns:xlink="http://www.w3.org/1999/xlink" x="0px" y="0px"
	 width="480px" height="480px" viewBox="0 0 480 480" enable-background="new 0 0 480 480" xml:space="preserve">
<g>
	<path fill-rule="evenodd" clip-rule="evenodd" d="M240,0C107.452,0,0,107.452,0,240s107.452,240,240,240s240-107.452,240-240
		S372.548,0,240,0z M240.01,445.353c-113.592,0-205.676-92.084-205.676-205.676S126.418,34,240.01,34
		s205.676,92.084,205.676,205.676S353.602,445.353,240.01,445.353z"/>
	<path fill-rule="evenodd" clip-rule="evenodd" d="M239.972,68.333c-94.81,0-171.669,76.859-171.669,171.669
		S145.162,411.67,239.972,411.67s171.669-76.859,171.669-171.669S334.782,68.333,239.972,68.333z M240.069,394.255
		c-85.156,0-154.188-69.032-154.188-154.188S154.913,85.879,240.069,85.879s154.188,69.032,154.188,154.188
		S325.225,394.255,240.069,394.255z"/>
	<polygon fill-rule="evenodd" clip-rule="evenodd" points="297.022,135.124 193,239.494 193,135 165,135 165,341 193,341 
		193,267.34 217.105,243.198 286,340 320,340 236.992,223.279 325.192,134.942 	"/>
</g>
</svg>
