<?xml version="1.0" encoding="utf-8"?>
<!-- Generator: Adobe Illustrator 17.0.0, SVG Export Plug-In . SVG Version: 6.00 Build 0)  -->
<!DOCTYPE svg PUBLIC "-//W3C//DTD SVG 1.1//EN" "http://www.w3.org/Graphics/SVG/1.1/DTD/svg11.dtd">
<svg version="1.1" id="图层_1" xmlns="http://www.w3.org/2000/svg" xmlns:xlink="http://www.w3.org/1999/xlink" x="0px" y="0px"
	 width="480px" height="480px" viewBox="0 0 480 480" enable-background="new 0 0 480 480" xml:space="preserve">
<path d="M441.651,157.782l-98.995-98.995c-5.667-5.666-13.2-8.787-21.213-8.787c-8.014,0-15.547,3.121-21.214,8.787l-1.832,1.833
	l-0.712,2.491c-1.529,5.353-6.085,20.654-8.762,27.096c-2.002,4.814-11.251,17.671-17.413,25.583L137.595,249.705
	c-5.667,5.666-8.787,13.2-8.787,21.214c0,5.925,1.71,11.584,4.889,16.423l-10.484,64.379c-2.085-0.128-4.216,0.382-6.069,1.577
	c-2.523,1.626-10.662,5.848-17.931,5.848c-1.378,0-3.448-0.083-5.845-0.181c-3.725-0.151-8.361-0.338-13.374-0.338
	c-11.391,0-46.055,0.002-50.615,24.707c-0.06,0.326-0.104,0.659-0.131,0.989c-1.692,20.303,8.686,30.456,9.875,31.545
	c2.751,2.521,6.678,3.319,10.184,2.041c0.131-0.048,13.521-4.761,26.729-4.761c4.01,0,7.571,0.51,10.583,1.371
	c10.201,2.915,18.918,4.48,26.651,4.48c0.001,0,0.002,0,0.003,0c11.777,0,21.047-3.508,27.553-10.135
	c6.68-6.805,9.95-16.74,9.718-29.239c-0.027-1.464-0.385-2.885-1.013-4.179l61.693-10.047c5.221,4.035,11.588,6.228,18.295,6.228
	c8.013,0,15.547-3.12,21.213-8.786l134.399-134.4c5.112-4.002,18.477-13.962,25.997-17.463c9.397-4.376,25.498-8.052,25.657-8.088
	l2.82-0.638l2.045-2.044c5.666-5.667,8.786-13.2,8.786-21.213C450.438,170.981,447.317,163.448,441.651,157.782z M126.554,394.854
	c-2.605,2.653-7.073,4.146-13.281,4.146c0,0-0.001,0-0.002,0c-5.766,0-12.885-1.346-21.157-3.71
	c-4.8-1.371-10.209-2.214-16.078-2.214c-9.821,0-19.332,1.944-25.713,3.621c-0.83-2.372-1.474-5.697-1.192-10.076
	c0.689-2.265,5.006-7.991,30.863-7.991c4.606,0,9.018,0.183,12.562,0.327c2.615,0.106,4.873,0.208,6.657,0.208
	c8.334,0,16.116-2.656,21.516-5.119l9.726,9.861C130.096,388.854,128.79,392.577,126.554,394.854z M142.732,356.291l8.266-50.756
	l5.756,5.757l36.733,36.734L142.732,356.291z M236.59,348.7c-1.889,1.889-4.4,2.929-7.071,2.929c-2.671,0-5.182-1.04-7.071-2.929
	l-70.711-70.711c-1.889-1.889-2.929-4.399-2.929-7.07s1.04-5.183,2.929-7.071l128.693-128.693l84.853,84.853L236.59,348.7z
	 M428.981,184.199c-5.807,1.451-17.8,4.693-26.295,8.649c-6.789,3.161-15.753,9.329-22.219,14.058l-87.001-87.001
	c5.109-6.961,11.522-16.242,13.926-22.023c2.858-6.878,6.906-20.327,8.663-26.311c1.594-1.023,3.449-1.572,5.389-1.572
	c2.671,0,5.182,1.04,7.07,2.929l98.995,98.996c1.889,1.889,2.929,4.399,2.929,7.071C430.438,180.86,429.931,182.647,428.981,184.199
	z"/>
</svg>
