<?xml version="1.0" encoding="utf-8"?>
<!-- Generator: Adobe Illustrator 17.0.0, SVG Export Plug-In . SVG Version: 6.00 Build 0)  -->
<!DOCTYPE svg PUBLIC "-//W3C//DTD SVG 1.1 Tiny//EN" "http://www.w3.org/Graphics/SVG/1.1/DTD/svg11-tiny.dtd">
<svg version="1.1" baseProfile="tiny" id="图层_1"
	 xmlns="http://www.w3.org/2000/svg" xmlns:xlink="http://www.w3.org/1999/xlink" x="0px" y="0px" width="480px" height="480px"
	 viewBox="0 0 480 480" xml:space="preserve">
<g>
	<path d="M340,10H140c-33.137,0-60,26.863-60,60v340c0,33.137,26.863,60,60,60h200c33.137,0,60-26.863,60-60V70
		C400,36.863,373.137,10,340,10z M140,40h200c16.568,0,30,13.431,30,30v250H110V70C110,53.431,123.432,40,140,40z M340,440H140
		c-16.568,0-30-13.432-30-30v-60h260v60C370,426.568,356.568,440,340,440z"/>
	<circle cx="240" cy="395" r="15"/>
</g>
</svg>
