<?xml version="1.0" encoding="utf-8"?>
<!-- Generator: Adobe Illustrator 17.0.0, SVG Export Plug-In . SVG Version: 6.00 Build 0)  -->
<!DOCTYPE svg PUBLIC "-//W3C//DTD SVG 1.1//EN" "http://www.w3.org/Graphics/SVG/1.1/DTD/svg11.dtd">
<svg version="1.1" id="图层_1" xmlns="http://www.w3.org/2000/svg" xmlns:xlink="http://www.w3.org/1999/xlink" x="0px" y="0px"
	 width="480px" height="480px" viewBox="0 0 480 480" enable-background="new 0 0 480 480" xml:space="preserve">
<path d="M240,0C107.452,0,0,107.452,0,240s107.452,240,240,240s240-107.452,240-240S372.548,0,240,0z M240,460
	c-121.503,0-220-98.497-220-220S118.497,20,240,20s220,98.497,220,220S361.503,460,240,460z"/>
<path d="M179.944,119.778c-22.091,0-40,17.909-40,40c0,22.091,17.909,40,40,40c22.091,0,40-17.909,40-40
	C219.944,137.687,202.035,119.778,179.944,119.778z M179.944,179.778c-11.046,0-20-8.954-20-20c0-11.046,8.954-20,20-20
	c11.046,0,20,8.954,20,20C199.944,170.824,190.99,179.778,179.944,179.778z"/>
<polygon fill="none" stroke="#000000" stroke-width="20" stroke-linecap="round" stroke-linejoin="round" stroke-miterlimit="10" points="
	87.536,318 142.071,245.772 207.216,280.909 324.125,154.445 401.162,318 "/>
</svg>
