<?xml version="1.0" encoding="utf-8"?>
<!-- Generator: Adobe Illustrator 17.0.0, SVG Export Plug-In . SVG Version: 6.00 Build 0)  -->
<!DOCTYPE svg PUBLIC "-//W3C//DTD SVG 1.1//EN" "http://www.w3.org/Graphics/SVG/1.1/DTD/svg11.dtd">
<svg version="1.1" id="图层_1" xmlns="http://www.w3.org/2000/svg" xmlns:xlink="http://www.w3.org/1999/xlink" x="0px" y="0px"
	 width="480px" height="480px" viewBox="0 0 480 480" enable-background="new 0 0 480 480" xml:space="preserve">
<g>
	<path d="M240,0C107.452,0,0,107.452,0,240s107.452,240,240,240s240-107.452,240-240S372.548,0,240,0z M240,460
		c-121.503,0-220-98.497-220-220S118.497,20,240,20s220,98.497,220,220S361.503,460,240,460z"/>
	<path d="M179.944,199.778c22.091,0,40-17.909,40-40c0-22.091-17.909-40-40-40c-22.091,0-40,17.909-40,40
		C139.944,181.869,157.853,199.778,179.944,199.778z M179.944,139.778c11.046,0,20,8.954,20,20c0,11.046-8.954,20-20,20
		c-11.046,0-20-8.954-20-20C159.944,148.732,168.898,139.778,179.944,139.778z"/>
	<path d="M409.943,313.175l-76.771-162.991c-1.417-3.008-4.236-5.115-7.523-5.622c-3.278-0.506-6.609,0.653-8.866,3.095
		L205.137,268.426l-58.32-31.455c-4.346-2.345-9.753-1.165-12.728,2.775l-54.534,72.228c-2.286,3.027-2.662,7.088-0.971,10.483
		c1.691,3.396,5.158,5.542,8.952,5.542h313.626c0.008,0,0.015,0.001,0.02,0c5.523,0,10-4.478,10-10
		C411.182,316.251,410.732,314.605,409.943,313.175z M107.617,308l37.262-49.352l57.59,31.062c4.017,2.167,8.993,1.338,12.09-2.014
		l106.841-115.572L385.398,308H107.617z"/>
</g>
</svg>
