<?xml version="1.0" encoding="utf-8"?>
<!-- Generator: Adobe Illustrator 17.0.0, SVG Export Plug-In . SVG Version: 6.00 Build 0)  -->
<!DOCTYPE svg PUBLIC "-//W3C//DTD SVG 1.1//EN" "http://www.w3.org/Graphics/SVG/1.1/DTD/svg11.dtd">
<svg version="1.1" id="图层_1" xmlns="http://www.w3.org/2000/svg" xmlns:xlink="http://www.w3.org/1999/xlink" x="0px" y="0px"
	 width="480px" height="480px" viewBox="0 0 480 480" enable-background="new 0 0 480 480" xml:space="preserve">
<g>
	<path d="M400,60h-39V50c0-5.523-4.477-10-10-10s-10,4.477-10,10v10H140V50c0-5.523-4.477-10-10-10s-10,4.477-10,10v10H80
		c-22.091,0-40,17.909-40,40v300c0,22.091,17.909,40,40,40h320c22.091,0,40-17.909,40-40V100C440,77.909,422.091,60,400,60z M80,80
		h40v10c0,5.523,4.477,10,10,10s10-4.477,10-10V80h201v10c0,5.523,4.477,10,10,10s10-4.477,10-10V80h39c11.046,0,20,8.954,20,20v38
		H60v-38C60,88.954,68.954,80,80,80z M400,420H80c-11.046,0-20-8.954-20-20V158h360v242C420,411.046,411.046,420,400,420z"/>
	<path d="M315.426,227.431L223.5,319.358l-49.713-49.713c-3.905-3.905-10.237-3.905-14.142,0c-3.905,3.905-3.905,10.237,0,14.142
		l56.569,56.569c0.045,0.045,0.094,0.082,0.14,0.126c0.028,0.028,0.051,0.059,0.079,0.087c3.905,3.905,10.237,3.905,14.142,0
		l98.995-98.995c3.905-3.905,3.905-10.237,0-14.142C325.663,223.526,319.332,223.526,315.426,227.431z"/>
</g>
</svg>
