<?xml version="1.0" encoding="utf-8"?>
<!-- Generator: Adobe Illustrator 17.0.0, SVG Export Plug-In . SVG Version: 6.00 Build 0)  -->
<!DOCTYPE svg PUBLIC "-//W3C//DTD SVG 1.1 Tiny//EN" "http://www.w3.org/Graphics/SVG/1.1/DTD/svg11-tiny.dtd">
<svg version="1.1" baseProfile="tiny" id="图层_1"
	 xmlns="http://www.w3.org/2000/svg" xmlns:xlink="http://www.w3.org/1999/xlink" x="0px" y="0px" width="480px" height="480px"
	 viewBox="0 0 480 480" xml:space="preserve">
<path d="M360,194h-46.135c7.45-13,12.436-32.577,13.356-61.046c1.815-56.129-36.989-78.345-54.43-83.961
	c-21.832-7.031-31.823,17.351-31.823,17.351c0,9.621,1.48,37.514-8.258,66.126C224.223,157.413,195.345,184,182.773,194H180h-1.691
	H150H90c-16.568,0-30,13.111-30,29.679v180C60,420.248,73.432,434,90,434h60c9.838,0,18.542-4.756,24.013-12.072
	C184.046,429.474,196.479,434,210,434h132c33.137,0,60-27.023,60-60.16l18-119.92C420,220.783,393.137,194,360,194z M90,404V224
	h59.967c-0.486,9,0.033,18.747,0.033,29.679v120V404H90z M372,373.84c0,16.568-13.432,30.16-30,30.16H210
	c-16.568,0-30-13.752-30-30.321v-120V224h2.313l-0.48-0.442c0,0,65.94-32.798,78.02-91.691c7.906-38.54,2.517-46.852,13.591-44.335
	s41.698,28.832,19.55,83.697C283.579,194.55,265.391,219,279.082,224H360c16.568,0,30,13.351,30,29.92L372,373.84z"/>
</svg>
