<?xml version="1.0" encoding="utf-8"?>
<!-- Generator: Adobe Illustrator 17.0.0, SVG Export Plug-In . SVG Version: 6.00 Build 0)  -->
<!DOCTYPE svg PUBLIC "-//W3C//DTD SVG 1.1 Basic//EN" "http://www.w3.org/Graphics/SVG/1.1/DTD/svg11-basic.dtd">
<svg version="1.1" baseProfile="basic" id="图层_1"
	 xmlns="http://www.w3.org/2000/svg" xmlns:xlink="http://www.w3.org/1999/xlink" x="0px" y="0px" width="480px" height="480px"
	 viewBox="0 0 480 480" xml:space="preserve">
<path d="M400.943,265.338c-10.581-28.805-28.906-40.372-28.906-81.109c0,0,3.963-144.049-131.037-148.61v-0.023
	c0,0.003-0.42,0.009-0.5,0.011c-0.079-0.003-0.5-0.009-0.5-0.011v0.023c-135,4.561-131.155,148.61-131.155,148.61
	c0,40.736-18.479,52.304-29.06,81.109c-10.581,28.805-17.01,79.129,5.474,94.93c5.169,3.632,10.755,4.887,15.988,4.887
	c11.671,0,21.647-6.234,21.647-6.234c-29.106,26.459-23.531,50.565-14.831,63.01c12.532,17.928,40.876,19.895,53.282,21.049
	c6.856,0.638,13.203,0.919,19.059,0.919c40.695,0,57.848-13.577,59.978-15.409c2.13,1.832,19.289,15.409,59.978,15.409
	c5.858,0,12.199-0.281,19.059-0.919c12.407-1.154,40.749-3.122,53.281-21.049c8.7-12.446,14.273-36.552-14.834-63.01
	c0,0,9.973,6.234,21.643,6.234c5.234,0,10.809-1.254,15.978-4.887C417.971,344.467,411.525,294.143,400.943,265.338z
	 M383.988,343.904c-0.828,0.582-2.086,1.25-4.479,1.25c-4.308,0-9.108-2.142-10.898-3.122l0.221-0.237
	c0,0-10.776-4.618-20.32-12.315l-19.704,32.02c0,0,12.167,8.424,19.775,16.296c0.998,1.053,2.134,2.102,3,3.145
	c0.07,0.087,0.418,0.176,0.418,0.263v-0.009c8,10.765,10.329,20.956,4.512,29.277c-6.764,9.677-28.283,11.63-37.428,12.464
	l-1.467,0.13c-5.943,0.553-11.757,0.833-17.231,0.833c-33.142,0-46.531-10.246-47.003-10.618c-3.74-3.194-8.37-4.791-12.994-4.791
	c-4.625,0-9.253,1.598-12.994,4.793c-0.505,0.397-13.885,10.616-46.989,10.616c-5.474,0-11.264-0.28-17.207-0.833l-1.416-0.13
	c-9.145-0.834-30.562-2.787-37.326-12.464c-7.15-10.228-2.926-23.281,11.895-36.753c0.105-0.096,0.196-0.202,0.299-0.299
	c7.107-6.329,15.182-11.921,15.182-11.921l-19.704-32.02c-9.544,7.697-20.32,12.315-20.32,12.315l0.263,0.283
	c-1.854,1-6.575,3.077-10.816,3.077c-2.393,0-3.65-0.668-4.479-1.25c-3.124-2.196-6.735-10.345-6.627-26.088
	c0.097-14.198,3.333-31.664,8.445-45.582c2.966-8.074,6.823-14.775,10.906-21.87c9.102-15.814,19.418-33.737,19.418-66.135
	c0-0.184-0.003-0.369-0.008-0.553c-0.009-0.316-0.489-32.449,13.258-64.067c7.851-18.058,18.793-32.496,32.521-42.914
	c17.161-13.023,39.26-20.111,65.692-21.072c26.168,0.951,48.094,7.909,65.174,20.682c13.695,10.242,24.652,24.45,32.566,42.23
	c14.113,31.706,13.749,64.035,13.73,65.166c-0.006,0.204-0.007,0.317-0.007,0.528c0,32.398,10.316,50.322,19.418,66.136
	c4.083,7.095,7.94,13.796,10.906,21.869c5.112,13.917,8.349,31.383,8.445,45.582C390.723,333.559,387.112,341.709,383.988,343.904z"
	/>
</svg>
