<?xml version="1.0" encoding="utf-8"?>
<!-- Generator: Adobe Illustrator 17.0.0, SVG Export Plug-In . SVG Version: 6.00 Build 0)  -->
<!DOCTYPE svg PUBLIC "-//W3C//DTD SVG 1.1 Tiny//EN" "http://www.w3.org/Graphics/SVG/1.1/DTD/svg11-tiny.dtd">
<svg version="1.1" baseProfile="tiny" id="图层_1"
	 xmlns="http://www.w3.org/2000/svg" xmlns:xlink="http://www.w3.org/1999/xlink" x="0px" y="0px" width="480px" height="480px"
	 viewBox="0 0 480 480" xml:space="preserve">
<g>
	<path d="M308.432,453.769c-32.391,0-53.864-8.551-67.711-18.021c-13.775,9.476-35.2,18.021-67.662,18.021
		c-46.451,0-67.847-17.347-77.616-31.899c-9.002-13.406-11.112-29.393-5.645-42.762c1.17-2.859,2.664-5.527,4.376-8.006
		c-1.017,0.078-1.99,0.112-2.915,0.112c-12.173,0-23.381-6.579-29.98-17.598c-13.396-22.372-9.992-80.747,6.493-111.632
		c6.388-12.342,11.148-20.043,14.291-24.638c3.995-11.348,7.055-20.921,8.232-25.284c-0.774-19.69,0.423-93.422,57.605-133.5
		c36.18-25.475,65.452-30.826,83.633-30.826c2.983,0,5.206,0.145,6.534,0.232c0.185,0.012,0.346,0.023,0.483,0.031h4.116
		c0.137-0.008,0.299-0.019,0.484-0.031c1.335-0.087,3.57-0.232,6.575-0.232c18.328,0,47.754,5.354,83.852,30.858
		c25.497,17.931,42.874,44.49,51.622,78.92c6.023,23.704,6.155,44.535,5.762,54.281c1.193,4.466,4.298,14.271,8.209,25.432
		c3.085,4.535,7.796,12.21,14.244,24.711c16.426,30.887,19.816,89.255,6.468,111.622c-6.588,11.042-17.778,17.635-29.933,17.635
		c-0.91,0-1.869-0.033-2.87-0.109c1.715,2.486,3.211,5.164,4.381,8.034c5.444,13.358,3.341,29.33-5.624,42.729
		C376.096,436.41,354.758,453.769,308.432,453.769z M240.622,395.398l10.542,10.296c16.102,15.726,42.792,18.074,57.269,18.074
		c25.812,0,44.446-6.606,52.472-18.602c3.364-5.029,4.429-10.67,2.777-14.722c-1.378-3.379-6.482-9.146-16.331-14.27l-16.482-8.575
		l11.856-14.304c4.283-5.168,8.013-10.662,11.084-16.331l10.174-18.778l14.212,15.942c4.18,4.688,8.136,7.066,11.757,7.066
		c1.964,0,3.352-1.636,4.17-3.008c2.111-3.537,4.832-15.964,3.676-35.706c-1.075-18.354-5.15-35.745-10.9-46.519l-0.1-0.19
		c-6.959-13.498-11.317-20.15-13.296-22.915l-1.234-1.726l-0.708-2.001c-2.939-8.306-8.886-25.85-10.356-32.791l-0.416-1.964
		l0.114-2.004c0.314-5.489,0.899-25.135-4.775-47.47c-6.933-27.288-20.334-48.077-39.83-61.788
		c-31.257-22.084-55.121-25.378-66.567-25.378c-2.03,0-3.533,0.098-4.63,0.169c-0.779,0.05-1.452,0.094-2.193,0.094h-4.589
		c-0.745,0-1.42-0.044-2.202-0.095c-1.086-0.071-2.574-0.168-4.578-0.168c-11.335,0-35.033,3.296-66.388,25.374
		c-19.588,13.729-33.036,34.561-39.995,61.936c-5.698,22.412-5.109,42.105-4.793,47.607l0.116,2.01l-0.418,1.968
		c-1.74,8.19-9.513,30.177-10.394,32.657l-0.711,2.003l-1.24,1.727c-2.036,2.835-6.476,9.574-13.34,22.844l-0.101,0.191
		c-5.769,10.77-9.857,28.147-10.935,46.485c-1.159,19.719,1.567,32.132,3.682,35.664c1.196,1.998,2.624,3.011,4.242,3.011
		c3.654,0,7.642-2.387,11.853-7.094l14.191-15.865l10.167,18.7c3.076,5.658,6.818,11.151,11.123,16.328l11.915,14.328l-16.544,8.578
		c-9.892,5.129-15.016,10.896-16.399,14.276c-1.651,4.038-0.584,9.664,2.784,14.682c8.062,12.008,26.781,18.621,52.709,18.621
		c32.108,0,48.763-9.796,57.081-18.015L240.622,395.398z"/>
</g>
</svg>
