<svg xmlns="http://www.w3.org/2000/svg" xmlns:xlink="http://www.w3.org/1999/xlink" x="0px" y="0px" width="16px" height="16px" viewBox="0 0 16 16"><g >
<path fill-rule="evenodd" clip-rule="evenodd" fill="#444444" d="M8,0C3.6,0,0,3.6,0,8s3.6,8,8,8s8-3.6,8-8S12.4,0,8,0z M10.2,7.4
	c0,0-0.2-0.6-0.3-0.8c1.7-0.8,2.8-1.7,3.2-2.2c0.7,0.9,1.1,2,1.2,3.2C13.5,7.4,11.7,7.1,10.2,7.4z M9.1,5.1C8.3,3.7,7.4,2.5,7,1.8
	c1.9-0.5,3.6,0.1,4.9,1.3C11.5,3.6,10.7,4.4,9.1,5.1z M5.1,2.5c0.4,0.5,1.2,1.7,2,3.2C4.9,6.2,2.9,6.3,2,6.3
	C2.4,4.7,3.6,3.3,5.1,2.5z M8,7.3c0.1,0.2,0.2,0.4,0.3,0.5c-2.8,0.9-4.6,3.2-5.2,4.1c-0.8-1.1-1.3-2.4-1.3-3.7C2.7,8.1,5.3,8,8,7.3z
	 M9,9.5c0.7,2,1.1,3.6,1.2,4.4c-2.1,0.7-4.5,0.3-5.8-0.8C4.8,12.4,6.1,10.6,9,9.5z M11.9,12.9c-0.2-0.8-0.5-2.2-1.1-3.9
	c1.1-0.2,2.7,0,3.3,0.2C13.8,10.7,13,12,11.9,12.9z"/>
</g></svg>