<?xml version="1.0" encoding="utf-8"?>
<!-- Generator: Adobe Illustrator 17.0.0, SVG Export Plug-In . SVG Version: 6.00 Build 0)  -->
<!DOCTYPE svg PUBLIC "-//W3C//DTD SVG 1.1 Tiny//EN" "http://www.w3.org/Graphics/SVG/1.1/DTD/svg11-tiny.dtd">
<svg version="1.1" baseProfile="tiny" id="图层_1"
	 xmlns="http://www.w3.org/2000/svg" xmlns:xlink="http://www.w3.org/1999/xlink" x="0px" y="0px" width="480px" height="480px"
	 viewBox="0 0 480 480" xml:space="preserve">
<path d="M425.235,206.107c2.451-2.195,4.024-5.35,4.024-8.9c0-6.621-5.367-11.988-11.988-11.988c-0.603,0-1.181,0.091-1.761,0.177
	l-119.807-6.461l-43.485-112.77c-1.025-5.581-5.892-10.986-11.769-10.986c-5.58,0-10.227,1.821-11.564,7.821h-0.098l-43.803,114.765
	l-120.255,7.07c-0.654-0.11-1.315,0.091-2,0.091c-6.621,0-11.988,5.513-11.988,12.134c0,3.439,1.467,6.592,3.787,8.778l-0.038,0.153
	l96.279,78.226l-31.23,117.271c-0.674,1.498-1.068,3.153-1.068,4.903c0,6.621,5.367,11.99,11.988,11.99
	c3.107,0,5.91-1.211,8.04-3.149l101.844-65.918l101.433,65.653c2.16,2.108,5.105,3.416,8.361,3.416
	c6.621,0,11.988-5.367,11.988-11.988c0-1.452-0.298-2.826-0.771-4.115l-31.438-118.045l95.498-77.573L425.235,206.107z"/>
</svg>
