<?xml version="1.0" encoding="utf-8"?>
<!-- Generator: Adobe Illustrator 17.0.0, SVG Export Plug-In . SVG Version: 6.00 Build 0)  -->
<!DOCTYPE svg PUBLIC "-//W3C//DTD SVG 1.1//EN" "http://www.w3.org/Graphics/SVG/1.1/DTD/svg11.dtd">
<svg version="1.1" id="图层_1" xmlns="http://www.w3.org/2000/svg" xmlns:xlink="http://www.w3.org/1999/xlink" x="0px" y="0px"
	 width="480px" height="480px" viewBox="0 0 480 480" enable-background="new 0 0 480 480" xml:space="preserve">
<path d="M44.866,254.555c-8.836,0-16-7.163-16-16v-0.168c0-83.262,67.738-151,151-151h197.918l-66.235-54.872
	c-6.805-5.638-7.751-15.724-2.114-22.529c5.638-6.805,15.725-7.75,22.528-2.114l100.421,83.193c3.648,3.022,5.77,7.505,5.793,12.243
	c0.023,4.737-2.054,9.241-5.672,12.299l-100.421,84.874c-3.004,2.539-6.672,3.78-10.32,3.78c-4.547,0-9.062-1.928-12.228-5.672
	c-5.704-6.749-4.857-16.844,1.892-22.548l67.032-56.654H179.866c-65.617,0-119,53.383-119,119v0.168
	C60.866,247.392,53.702,254.555,44.866,254.555z M435.863,224c-8.837,0-16,7.164-16,16v0.168c0,65.617-53.383,119-119,119H102.269
	l67.032-56.654c6.749-5.704,7.596-15.799,1.892-22.548c-5.704-6.75-15.8-7.595-22.548-1.892l-100.42,84.874
	c-3.618,3.058-5.695,7.562-5.672,12.299c0.023,4.736,2.145,9.22,5.792,12.242l100.42,83.193c2.986,2.474,6.603,3.679,10.199,3.679
	c4.6,0,9.166-1.974,12.33-5.793c5.637-6.805,4.691-16.891-2.114-22.528l-66.235-54.872h197.918c83.262,0,151-67.738,151-151V240
	C451.863,231.164,444.7,224,435.863,224z"/>
</svg>
