<?xml version="1.0" encoding="utf-8"?>
<!-- Generator: Adobe Illustrator 17.0.0, SVG Export Plug-In . SVG Version: 6.00 Build 0)  -->
<!DOCTYPE svg PUBLIC "-//W3C//DTD SVG 1.1//EN" "http://www.w3.org/Graphics/SVG/1.1/DTD/svg11.dtd">
<svg version="1.1" id="图层_1" xmlns="http://www.w3.org/2000/svg" xmlns:xlink="http://www.w3.org/1999/xlink" x="0px" y="0px"
	 width="480px" height="480px" viewBox="0 0 480 480" enable-background="new 0 0 480 480" xml:space="preserve">
<path d="M154,100c0,5.523-4.477,10-10,10l0,0c-5.523,0-10-4.477-10-10V60c0-5.523,4.477-10,10-10l0,0c5.523,0,10,4.477,10,10V100z"
	/>
<path d="M234,100c0,5.523-4.477,10-10,10l0,0c-5.523,0-10-4.477-10-10V60c0-5.523,4.477-10,10-10l0,0c5.523,0,10,4.477,10,10V100z"
	/>
<path d="M314,100c0,5.523-4.477,10-10,10l0,0c-5.523,0-10-4.477-10-10V60c0-5.523,4.477-10,10-10l0,0c5.523,0,10,4.477,10,10V100z"
	/>
<path d="M340.5,120h-240c-11.046,0-20.5,8.454-20.5,19.5v220c0,32,39.333,70.5,80.5,70.5h130c38.833,0,69.5-39.5,69.5-70.5v-220
	C360,128.454,351.546,120,340.5,120z M340,355c0,23.493-26.667,55-50,55H160c-24.667,0-60-31-60-55V150c0-5.523,4.477-10,10-10h220
	c5.523,0,10,4.477,10,10V355z"/>
<path d="M400,159h-40v20h29c5.523,0,10,4.477,10,10v100c0,5.523-4.477,10-10,10h-29v20h40c11.046,0,20-8.954,20-20V179
	C420,167.954,411.046,159,400,159z"/>
</svg>
