<?xml version="1.0" encoding="utf-8"?>
<!-- Generator: Adobe Illustrator 17.0.0, SVG Export Plug-In . SVG Version: 6.00 Build 0)  -->
<!DOCTYPE svg PUBLIC "-//W3C//DTD SVG 1.1//EN" "http://www.w3.org/Graphics/SVG/1.1/DTD/svg11.dtd">
<svg version="1.1" id="图层_1" xmlns="http://www.w3.org/2000/svg" xmlns:xlink="http://www.w3.org/1999/xlink" x="0px" y="0px"
	 width="480px" height="480px" viewBox="0 0 480 480" enable-background="new 0 0 480 480" xml:space="preserve">
<path d="M323.732,280.556c0,0-9.105-3.266-15.2-0.684c-6.095,2.583-10.284,10.615-10.284,10.615l-21.788,39.186
	c-33.078-10.573-70.806-45.26-75.437-49.596c-4.353-4.647-39.174-42.51-49.747-75.588l39.11-21.865c0,0,7.994-4.227,10.576-10.322
	c2.583-6.095-0.722-15.238-0.722-15.238l-47.425-86.997c0,0-6.088-8.61-13.836-10.367c-7.706-1.747-18.191,4.13-18.191,4.13
	s-47.271,24.136-57.125,66.017c-9.814,41.711,4.968,131.183,79.921,206.745l-0.007,0.007c0.155,0.155,0.311,0.304,0.465,0.458
	c0.154,0.155,0.304,0.311,0.458,0.465l0.007-0.007c75.561,74.951,164.881,89.582,206.592,79.768
	c41.882-9.855,65.865-57.278,65.865-57.278s5.877-10.486,4.13-18.191c-1.756-7.748-10.367-13.836-10.367-13.836L323.732,280.556z"/>
</svg>
