<?xml version="1.0" encoding="utf-8"?>
<!DOCTYPE svg PUBLIC "-//W3C//DTD SVG 1.1//EN" "http://www.w3.org/Graphics/SVG/1.1/DTD/svg11.dtd">
<svg version="1.1" id="图形" xmlns="http://www.w3.org/2000/svg" xmlns:xlink="http://www.w3.org/1999/xlink" x="0px" y="0px" width="1031px" height="1024px" viewBox="0 0 1031 1024" enable-background="new 0 0 1031 1024" xml:space="preserve">
  <path fill="#272636" d="M790.733591-210.023166q-41.513514 0-72.15444 8.895753-22.733591 6.918919-42.996139 19.76834t-42.996139 45.467181q-1.976834 2.965251-4.447876 5.930502t-4.447876 6.918919l-1.976834 2.965251q-21.745174 37.559846-29.158301 84.015444t-9.389961 92.911197l-0.988417 16.803089 0 474.440154q0 10.872587-1.482625 22.733591t-6.42471 22.733591q-7.907336 10.872587-17.791506 5.930502-4.942085-1.976834-9.88417-10.378378t-6.918919-24.216216q0.988417-56.339768 0.494208-122.563707t-1.482625-133.436293-1.976834-132.447876-1.976834-119.598456l-160.123552 0 0 491.243243q0 10.872587-1.976834 22.733591t-6.918919 22.733591q-6.918919 11.861004-17.791506 5.930502-4.942085-2.965251-10.378378-12.849421t-5.436293-27.675676q0.988417-123.552124-1.482625-251.057915t-4.447876-251.057915l-160.123552 0 0 491.243243q0 32.617761-15.814672 57.328185t-58.316602 24.710425l-17.791506 0q26.687259 30.640927 55.84556 44.478764t73.637066 13.837838q27.675676 0 52.3861-10.378378t42.501931-29.158301l3.953668 2.965251 4.942085 3.953668q25.698842 19.76834 53.374517 26.19305t50.409266 6.42471q28.664093 0 53.374517-10.378378t42.501931-29.158301l3.953668 2.965251 3.953668 3.953668q25.698842 19.76834 53.868726 26.19305t50.903475 6.42471q24.710425 0 47.938224-8.895753t41.019305-24.710425 28.664093-38.054054 10.872587-48.926641l0-61.281853q0-32.617761-0.494208-81.544402t-0.988417-103.783784-0.494208-111.196911-0.494208-102.301158 0-78.084942 1.482625-38.054054l1.976834-11.861004 2.965251-14.826255q7.907336-28.664093 17.297297-47.444015t21.745174-29.158301 28.169884-13.837838 35.583012-3.459459q16.803089 1.976834 32.617761 7.413127t27.675676 12.355212l-33.606178 61.281853 149.250965-4.942085-59.305019-159.135135q0 0.988417-8.401544 15.814672t-19.274131 36.571429q-5.930502-6.918919-16.30888-15.814672t-28.169884-16.30888-44.478764-12.849421-64.247104-5.436293z" transform="translate(0, 812) scale(1, -1)"/>
</svg>
