<?xml version="1.0" encoding="utf-8"?>
<!-- Generator: Adobe Illustrator 17.0.0, SVG Export Plug-In . SVG Version: 6.00 Build 0)  -->
<!DOCTYPE svg PUBLIC "-//W3C//DTD SVG 1.1 Tiny//EN" "http://www.w3.org/Graphics/SVG/1.1/DTD/svg11-tiny.dtd">
<svg version="1.1" baseProfile="tiny" id="图层_1"
	 xmlns="http://www.w3.org/2000/svg" xmlns:xlink="http://www.w3.org/1999/xlink" x="0px" y="0px" width="480px" height="480px"
	 viewBox="0 0 480 480" xml:space="preserve">
<g>
	<path d="M250.247,173.114c-2.952-2.952-6.828-4.408-10.697-4.385c-3.869-0.023-7.745,1.433-10.697,4.385L57.934,344.033
		c-5.858,5.858-5.858,15.355,0,21.213c5.858,5.858,15.355,5.858,21.213,0L239.55,204.843l160.403,160.403
		c5.858,5.858,15.355,5.858,21.213,0c5.858-5.858,5.858-15.355,0-21.213L250.247,173.114z"/>
	<path d="M415,110H65c-8.284,0-15,6.716-15,15s6.716,15,15,15h350c8.284,0,15-6.716,15-15S423.284,110,415,110z"/>
</g>
</svg>
