<?xml version="1.0" encoding="utf-8"?>
<!-- Generator: Adobe Illustrator 15.0.0, SVG Export Plug-In . SVG Version: 6.00 Build 0)  -->
<!DOCTYPE svg PUBLIC "-//W3C//DTD SVG 1.1//EN" "http://www.w3.org/Graphics/SVG/1.1/DTD/svg11.dtd">
<svg version="1.1" id="图层_1" xmlns="http://www.w3.org/2000/svg" xmlns:xlink="http://www.w3.org/1999/xlink" x="0px" y="0px"
	 width="30.521px" height="27.09px" viewBox="228.158 227.485 30.521 27.09" enable-background="new 228.158 227.485 30.521 27.09"
	 xml:space="preserve">
<g>
	<path fill-rule="evenodd" clip-rule="evenodd" d="M253.133,233.986l-9.516,16.485l1.263,4.104l4.281-0.903l9.518-16.484
		L253.133,233.986z M248.196,252.343l-2.286,0.481l-0.667-2.169l8.438-14.62l2.948,1.702L248.196,252.343z"/>
	<path fill-rule="evenodd" clip-rule="evenodd" d="M247.908,240.886c-1.226-0.815-2.601-1.422-4.073-1.775
		c1.925-1.05,3.233-3.093,3.233-5.438c0-3.412-2.773-6.188-6.188-6.188c-3.412,0-6.188,2.776-6.188,6.188
		c0,2.348,1.314,4.395,3.245,5.443c-5.595,1.333-9.773,6.36-9.78,12.356h1.5c0.008-6.184,5.039-11.213,11.222-11.213
		c2.324,0,4.485,0.711,6.278,1.926L247.908,240.886z M236.193,233.673c0-2.585,2.103-4.688,4.688-4.688
		c2.585,0,4.688,2.103,4.688,4.688c0,2.586-2.103,4.689-4.688,4.689C238.296,238.363,236.193,236.259,236.193,233.673z"/>
</g>
</svg>
