<?xml version="1.0" encoding="utf-8"?>
<!-- Generator: Adobe Illustrator 17.0.0, SVG Export Plug-In . SVG Version: 6.00 Build 0)  -->
<!DOCTYPE svg PUBLIC "-//W3C//DTD SVG 1.1 Tiny//EN" "http://www.w3.org/Graphics/SVG/1.1/DTD/svg11-tiny.dtd">
<svg version="1.1" baseProfile="tiny" id="图层_1"
	 xmlns="http://www.w3.org/2000/svg" xmlns:xlink="http://www.w3.org/1999/xlink" x="0px" y="0px" width="480px" height="480px"
	 viewBox="0 0 480 480" xml:space="preserve">
<g>
	<path d="M268.074,240.17c19.813-16.509,32.43-41.363,32.43-69.17c0-49.706-40.294-90-90-90s-90,40.294-90,90
		c0,27.604,12.44,52.293,32.005,68.802C81.171,263.722,29.748,331.061,29.748,410.453c0,0.183,0.013,0.364,0.014,0.547h31.059
		c-0.001-0.281-0.021-0.558-0.021-0.839c0-79.576,61.976-144.642,140.286-149.653c3.096,0.322,6.237,0.492,9.418,0.492
		c3.257,0,6.471-0.183,9.639-0.52C298.63,265.308,360.8,330.459,360.8,410.161c0,0.281-0.02,0.558-0.021,0.839h28.956
		c0.001-0.183,0.014-0.363,0.014-0.547C389.748,331.464,338.847,264.408,268.074,240.17z M150.504,171c0-33.137,26.863-60,60-60
		c33.137,0,60,26.863,60,60c0,30.943-23.429,56.399-53.512,59.636c-2.406-0.095-4.815-0.183-7.244-0.183
		c-1.995,0-3.968,0.086-5.947,0.15C173.822,227.267,150.504,201.868,150.504,171z"/>
	<path d="M328.074,228.17c19.813-16.509,32.43-41.363,32.43-69.17c0-49.706-40.294-90-90-90c-7.279,0-14.348,0.887-21.127,2.518
		c17.143,6.697,32.093,17.755,43.479,31.83c22.057,8.869,37.648,30.422,37.648,55.652c0,17.81-7.788,33.773-20.113,44.757
		c-0.073,4.668-10.074,14.026-10.074,27.805c0,13.78,9.898,18.366,9.646,21.795C373.81,270.577,420.8,328.87,420.8,398.161
		c0,0.281-0.02,0.558-0.021,0.839h28.956c0.001-0.183,0.014-0.363,0.014-0.547C449.748,319.464,398.847,252.408,328.074,228.17z"/>
</g>
</svg>
