<?xml version="1.0" encoding="utf-8"?>
<!-- Generator: Adobe Illustrator 17.0.0, SVG Export Plug-In . SVG Version: 6.00 Build 0)  -->
<!DOCTYPE svg PUBLIC "-//W3C//DTD SVG 1.1 Tiny//EN" "http://www.w3.org/Graphics/SVG/1.1/DTD/svg11-tiny.dtd">
<svg version="1.1" baseProfile="tiny" id="图层_1"
	 xmlns="http://www.w3.org/2000/svg" xmlns:xlink="http://www.w3.org/1999/xlink" x="0px" y="0px" width="480px" height="480px"
	 viewBox="0 0 480 480" xml:space="preserve">
<path d="M441.329,218.903L261.097,38.671c-11.716-11.716-30.711-11.716-42.426,0c-11.716,11.716-11.716,30.711,0,42.426L377.574,240
	L218.65,398.924c-11.716,11.716-11.736,30.731-0.021,42.447c11.716,11.716,30.669,11.757,42.385,0.041l177.977-177.977
	c0.806-0.654,1.588-1.355,2.338-2.106C453.045,249.614,453.045,230.619,441.329,218.903z"/>
<path d="M261.329,218.903L81.097,38.671c-11.716-11.716-30.711-11.716-42.426,0c-11.716,11.716-11.716,30.711,0,42.426L197.574,240
	L38.65,398.924c-11.716,11.716-11.736,30.731-0.021,42.447c11.716,11.716,30.669,11.757,42.385,0.041l177.977-177.977
	c0.806-0.654,1.588-1.355,2.338-2.106C273.045,249.614,273.045,230.619,261.329,218.903z"/>
</svg>
