<?xml version="1.0" encoding="utf-8"?>
<!-- Generator: Adobe Illustrator 17.0.0, SVG Export Plug-In . SVG Version: 6.00 Build 0)  -->
<!DOCTYPE svg PUBLIC "-//W3C//DTD SVG 1.1 Tiny//EN" "http://www.w3.org/Graphics/SVG/1.1/DTD/svg11-tiny.dtd">
<svg version="1.1" baseProfile="tiny" id="图层_1"
	 xmlns="http://www.w3.org/2000/svg" xmlns:xlink="http://www.w3.org/1999/xlink" x="0px" y="0px" width="480px" height="480px"
	 viewBox="0 0 480 480" xml:space="preserve">
<path d="M38.64,218.903L218.872,38.671c11.716-11.716,30.711-11.716,42.426,0c11.716,11.716,11.716,30.711,0,42.426L102.396,240
	l158.924,158.924c11.716,11.716,11.736,30.731,0.021,42.447c-11.716,11.716-30.67,11.757-42.385,0.041L40.978,263.435
	c-0.806-0.654-1.588-1.355-2.338-2.106C26.924,249.614,26.924,230.619,38.64,218.903z"/>
<path d="M218.64,218.903L398.872,38.671c11.716-11.716,30.711-11.716,42.426,0c11.716,11.716,11.716,30.711,0,42.426L282.396,240
	l158.924,158.924c11.716,11.716,11.736,30.731,0.021,42.447c-11.716,11.716-30.669,11.757-42.385,0.041L220.978,263.435
	c-0.806-0.654-1.588-1.355-2.338-2.106C206.924,249.614,206.924,230.619,218.64,218.903z"/>
</svg>
