<?xml version="1.0" encoding="utf-8"?>
<!-- Generator: Adobe Illustrator 17.0.0, SVG Export Plug-In . SVG Version: 6.00 Build 0)  -->
<!DOCTYPE svg PUBLIC "-//W3C//DTD SVG 1.1 Tiny//EN" "http://www.w3.org/Graphics/SVG/1.1/DTD/svg11-tiny.dtd">
<svg version="1.1" baseProfile="tiny" id="图层_1"
	 xmlns="http://www.w3.org/2000/svg" xmlns:xlink="http://www.w3.org/1999/xlink" x="0px" y="0px" width="480px" height="480px"
	 viewBox="0 0 480 480" xml:space="preserve">
<g>
	<path d="M239,90C88.233,90,14,240,14,240s74.556,150,225,150s228-150,228-150S389.767,90,239,90z M239.302,359.804
		C119.144,359.804,59.596,240,59.596,240s59.289-119.804,179.706-119.804S421.404,240,421.404,240S359.46,359.804,239.302,359.804z"
		/>
	<path d="M239,150c-49.706,0-90,40.294-90,90s40.294,90,90,90s90-40.294,90-90S288.706,150,239,150z M236.629,299.562
		c-33.137,0-60-26.863-60-60c0-33.137,26.863-60,60-60c33.137,0,60,26.863,60,60C296.629,272.699,269.766,299.562,236.629,299.562z"
		/>
</g>
</svg>
