<svg xmlns="http://www.w3.org/2000/svg" xmlns:xlink="http://www.w3.org/1999/xlink" x="0px" y="0px" width="16px" height="16px" viewBox="0 0 16 16"><g >
<path fill="#444444" d="M15,8c-0.4,0.1-0.8,0.1-1.2,0.1c-2,0-3.6-1.4-3.6-3.9c0-1.2,0.5-1.8,1.1-1.8c0.6,0,1,0.6,1,1.7
	c0,0.6-0.2,1.4-0.3,1.8c0,0,0.6,1.1,2.3,0.8C14.8,5.8,15,4.8,15,3.9C15,1.4,13.8,0,11.5,0C9.1,0,7.7,1.8,7.7,4.2
	c0,2.4,1.1,4.4,2.9,5.3c-0.8,1.5-1.7,2.9-2.8,3.9c-1.8-2.2-3.5-5.2-4.2-11H1c1.3,9.7,5,12.8,6,13.3c0.6,0.3,1,0.3,1.6,0
	c0.8-0.5,3.2-2.9,4.6-5.7c0.6,0,1.2-0.1,1.9-0.2V8z"/>
</g></svg>