<?xml version="1.0" encoding="utf-8"?>
<!-- Generator: Adobe Illustrator 17.0.0, SVG Export Plug-In . SVG Version: 6.00 Build 0)  -->
<!DOCTYPE svg PUBLIC "-//W3C//DTD SVG 1.1//EN" "http://www.w3.org/Graphics/SVG/1.1/DTD/svg11.dtd">
<svg version="1.1" id="图层_1" xmlns="http://www.w3.org/2000/svg" xmlns:xlink="http://www.w3.org/1999/xlink" x="0px" y="0px"
	 width="480px" height="480px" viewBox="0 0 480 480" enable-background="new 0 0 480 480" xml:space="preserve">
<path d="M439.61,69.047c0-22.014-17.907-39.921-39.921-39.921H80.324c-22.013,0-39.921,17.907-39.921,39.895L40,315.407
	l200.006,142.581L440,315.407L439.61,69.047z M240.006,422.373L69.024,300.482l0.378-231.414c0-6.055,4.899-10.942,10.921-10.942
	h319.366c6.021,0,10.921,4.899,10.921,10.921l0.366,231.436L240.006,422.373z"/>
<polygon points="216.151,349.992 123.834,137.082 101.437,137.082 101.437,107.468 143.268,107.468 235.585,320.378 
	242.837,320.378 336.816,107.468 378.576,107.468 378.576,137.082 356.107,137.082 262.127,349.992 "/>
</svg>
