<?xml version="1.0" encoding="utf-8"?>
<!-- Generator: Adobe Illustrator 17.0.0, SVG Export Plug-In . SVG Version: 6.00 Build 0)  -->
<!DOCTYPE svg PUBLIC "-//W3C//DTD SVG 1.1 Tiny//EN" "http://www.w3.org/Graphics/SVG/1.1/DTD/svg11-tiny.dtd">
<svg version="1.1" baseProfile="tiny" id="图层_1"
	 xmlns="http://www.w3.org/2000/svg" xmlns:xlink="http://www.w3.org/1999/xlink" x="0px" y="0px" width="480px" height="480px"
	 viewBox="0 0 480 480" xml:space="preserve">
<g>
	<path d="M453.137,362.812l0.048-0.064L278.588,78h-0.165C272.196,63,257.34,52.287,240,52.287S207.804,63,201.576,78h-0.165
		L25.046,365.843l0.089,0.145c-2.768,5.565-4.347,11.821-4.347,18.46c0,22.074,17.213,40.117,38.948,41.464L59.788,426h356.867
		l0.02-0.034c0.327,0.008,0.65,0.034,0.979,0.034c22.951,0,41.557-18.606,41.557-41.557
		C459.211,376.518,456.988,369.113,453.137,362.812z M417.436,405c-0.663,0-2.034,0-2.034,0s-353.079,0-353.839,0
		c-11.46,0-20.751-9.29-20.751-20.751c0-2.288,0.383-4.482,1.068-6.538L220.929,85.005l0.422-0.012
		c3.353-6.943,10.44-11.743,18.668-11.743c6.514,0,12.313,3.013,16.115,7.709l179.872,294.062c1.388,2.78,2.181,5.908,2.181,9.228
		C438.187,395.71,428.897,405,417.436,405z"/>
	<path d="M241,136c-5.523,0-10,4.685-10,10.465v159.07c0,5.78,4.477,10.465,10,10.465s10-4.685,10-10.465v-159.07
		C251,140.685,246.523,136,241,136z"/>
	<circle cx="240.5" cy="346.5" r="10"/>
</g>
</svg>
