<?xml version="1.0" encoding="utf-8"?>
<!-- Generator: Adobe Illustrator 17.0.0, SVG Export Plug-In . SVG Version: 6.00 Build 0)  -->
<!DOCTYPE svg PUBLIC "-//W3C//DTD SVG 1.1 Tiny//EN" "http://www.w3.org/Graphics/SVG/1.1/DTD/svg11-tiny.dtd">
<svg version="1.1" baseProfile="tiny" id="图层_1"
	 xmlns="http://www.w3.org/2000/svg" xmlns:xlink="http://www.w3.org/1999/xlink" x="0px" y="0px" width="480px" height="480px"
	 viewBox="0 0 480 480" xml:space="preserve">
<g>
	<path d="M313.797,171.164c10.591,0,20.932,0.868,30.932,2.504c-10.475-62.523-76.634-110.724-156.741-110.724
		c-87.387,0-158.228,57.348-158.228,128.089c0,34.972,17.332,66.656,45.399,89.771l-10.898,47.512l49.462-24.174
		c14.052,6.059,29.389,10.384,45.564,12.775c-1.092-6.07-1.679-12.274-1.679-18.591
		C157.609,228.097,227.537,171.164,313.797,171.164z M249.774,129.696c10.201,0,18.47,8.269,18.47,18.47s-8.269,18.47-18.47,18.47
		c-10.201,0-18.47-8.27-18.47-18.47S239.573,129.696,249.774,129.696z M132.233,166.637c-10.201,0-18.47-8.27-18.47-18.47
		s8.269-18.47,18.47-18.47c10.201,0,18.47,8.269,18.47,18.47S142.434,166.637,132.233,166.637z"/>
	<path d="M449.76,298.958c0-60.566-60.651-109.665-135.468-109.665s-135.468,49.098-135.468,109.665s60.651,109.665,135.468,109.665
		c22.984,0,44.62-4.649,63.582-12.825l42.347,20.697l-9.33-40.678C434.92,356.026,449.76,328.899,449.76,298.958z M270.871,281.164
		c-10.201,0-18.47-8.27-18.47-18.47s8.269-18.47,18.47-18.47c10.201,0,18.47,8.269,18.47,18.47S281.072,281.164,270.871,281.164z
		 M361.287,281.164c-10.201,0-18.47-8.27-18.47-18.47s8.269-18.47,18.47-18.47c10.201,0,18.47,8.269,18.47,18.47
		S371.488,281.164,361.287,281.164z"/>
</g>
</svg>
