<?xml version="1.0" standalone="no"?>
<!DOCTYPE svg PUBLIC "-//W3C//DTD SVG 1.1//EN" "http://www.w3.org/Graphics/SVG/1.1/DTD/svg11.dtd" >
<svg xmlns="http://www.w3.org/2000/svg">
<metadata>Generated by IcoMoon</metadata>
<defs>
<font id="webfont" horiz-adv-x="1024">
<font-face units-per-em="1024" ascent="960" descent="-64" />
<missing-glyph horiz-adv-x="1024" />
<glyph unicode="&#x20;" d="" horiz-adv-x="512" />
<glyph unicode="&#xe600;" d="M896 512h-320v320h-128v-320h-320v-128h320v-320h128v320h320z" />
<glyph unicode="&#xe601;" d="M512 832c-212.077 0-384-171.923-384-384s171.923-384 384-384 384 171.923 384 384-171.923 384-384 384zM787.2 294.4l-24.954 19.2-26.246-19.2v200.29l-224.606-111.162-133.794 66.217v-43.345l134.4-67.2 198.4 96v-140.8l-198.4-96-204.8 102.4v183.789l-107.11 53.011 311.305 154.071 311.305-154.071-35.499-17.568v-225.632z" />
<glyph unicode="&#xe602;" d="M512 0c247.424 0 448 200.576 448 448s-200.576 448-448 448-448-200.576-448-448c0-247.424 200.576-448 448-448zM448 768h128v-448h-128v448zM448 256h128v-128h-128v128z" />
<glyph unicode="&#xe603;" d="M512 832c-212.077 0-384-171.923-384-384s171.923-384 384-384 384 171.923 384 384-171.923 384-384 384zM569.143 322.17l-56.621-97.109-55.471 95.849-2.185 1.261 0.725 1.259-167.55 289.577 112.811 0.365 111.151-192.233 111.185 192.599 112.811-0.365-167.411-290.238 0.555-0.964z" />
<glyph unicode="&#xe604;" d="M512 864c-194.404 0-352-157.596-352-352 0-123.548 63.703-232.154 160-294.965v-185.035l191.966 64 192.034-64v185.035c96.297 62.812 160 171.42 160 294.965 0 194.404-157.596 352-352 352zM636.83 463.138l29.466-171.804-154.289 81.114-154.289-81.114 29.466 171.804-124.821 121.67 172.499 25.067 77.143 156.311 77.143-156.311 172.499-25.067-124.817-121.67z" />
<glyph unicode="&#xe605;" d="M640 384v512h-256v-512h-192l320-384 320 384z" />
<glyph unicode="&#xe606;" d="M640 512v-512h-256v512h-192l320 384 320-384z" />
<glyph unicode="&#xe607;" d="M512 864c-194.404 0-352-157.596-352-352 0-123.548 63.703-232.154 160-294.965v-185.035l191.966 64 192.034-64v185.035c96.297 62.812 160 171.42 160 294.965 0 194.404-157.596 352-352 352zM512 198.4c-99.014 0-188.42 40.941-252.38 106.746 20.354 121.026 125.568 213.254 252.38 213.254-70.692 0-128 57.308-128 128s57.308 128 128 128 128-57.308 128-128-57.308-128-128-128c126.812 0 232.026-92.228 252.38-213.254-63.959-65.805-153.365-106.746-252.38-106.746z" />
<glyph unicode="&#xe608;" d="M924.373 159.433c0.006 0.252 0.075 0.587 0.075 0.841 0 0.329-0.493 0.685-0.501 1.013-4.132 411.33-352.213 436.262-446.080 436.634v132.457c2.133 2.042 1.041 4.154 1.041 6.317 0 17.585-14.052 31.84-31.637 31.84-9.666 0-18.118-4.399-23.957-11.198l-301.227-258.257c-12.269-4.425-21.067-16.055-21.067-29.85 0-11.806 6.511-21.993 16.055-27.49l-0.004-0.48 310.611-265.965 0.395 0.222c5.271-3.87 11.721-6.227 18.761-6.227 17.585 0 31.842 14.255 31.842 31.84 0 0.979-0.606 1.903-0.693 2.859l-0.119 0.166v141.19c309.333-8.094 382.899-191.744 382.899-191.744h0.642c2.95-14.933 15.795-25.472 31.2-25.472s28.247 10.539 31.198 25.472h0.642c0 2.133-0.060 3.945-0.075 5.833zM416 409.894v-98.647l-0.634-42.208-211.526 181.805-18.441 15.386 230.379 197.886 0.222-38.914v-85.587c66.133-6.293 364.442-6.001 436.749-265.143 0 0-106.082 156.896-436.749 135.424z" />
<glyph unicode="&#xe609;" d="M96 768v-640h832v640h-832zM864 704v-128h-704v128h704zM160 192v320h704v-320h-704zM224 448h128v-64h-128v64zM224 320h128v-64h-128v64zM416 448h192v-64h-192v64zM416 320h192v-64h-192v64zM672 448h128v-64h-128v64zM672 320h128v-64h-128v64z" />
<glyph unicode="&#xe60a;" d="M64 896v-896h896v896h-896zM896 64h-768v768h768v-768z" />
<glyph unicode="&#xe60b;" d="M64 896v-896h896v896h-896zM445.342 200.26l-0.158 0.158-0.542-0.542-271.529 271.529 90.509 90.509 181.175-181.175 317.325 317.325 90.509-90.509-407.29-407.294z" />
<glyph unicode="&#xe60c;" d="M961.067 446.933c0-247.424-200.576-448-448-448s-448 200.576-448 448c0 247.424 200.576 448 448 448s448-200.576 448-448z" />
<glyph unicode="&#xe60d;" d="M832 797.867h-640c-35.345 0-64-29.436-64-64.783v-448c0-35.347 28.655-63.217 64-63.217h187.979l129.506-119.251 129.504 119.251h193.011c35.345 0 64 27.87 64 63.217v448c0 35.347-28.655 64.783-64 64.783zM832 292.267h-219.298l-103.219-87.251-103.217 87.251h-214.266v448h640v-448zM384.523 515.776c0-35.346-28.654-64-64-64s-64 28.654-64 64c0 35.346 28.654 64 64 64s64-28.654 64-64zM576.523 515.776c0-35.346-28.654-64-64-64s-64 28.654-64 64c0 35.346 28.654 64 64 64s64-28.654 64-64zM768.523 515.776c0-35.346-28.654-64-64-64s-64 28.654-64 64c0 35.346 28.654 64 64 64s64-28.654 64-64z" />
<glyph unicode="&#xe60e;" d="M797.867 192.983c0-35.264-27.78-62.85-63.044-62.85h-510.797c-35.262 0-64.026 27.586-64.026 62.85v446.946c0 35.264 28.764 64.070 64.026 64.070h319.974v64h-319.974c-70.526 0-128.026-57.542-128.026-128.070v-446.948c0-70.526 57.5-126.848 128.026-126.848h510.797c70.528 0 127.044 56.322 127.044 126.85v255.017h-64v-255.017zM909.818 767.706l-45.148 45.148c-24.934 24.934-65.749 22.396-90.684-2.539l-43.686-43.686 135.445-135.445 43.686 43.686c24.934 24.934 25.321 67.902 0.386 92.836zM368.073 268.932l135.021-0.399 317.504 317.502-135.445 135.445-317.504-317.502z" />
<glyph unicode="&#xe60f;" d="M512.22 64.503c0 0 266.076 226.94 326.583 326.167 49.973 81.952 57.331 138.618 57.331 218.662 0 127.428-94.545 222.814-219.232 222.814-112.356 0-164.595-108.945-164.595-108.945h-0.343c0 0-52.239 108.945-164.595 108.945-124.689 0-219.232-94.965-219.232-222.394 0-80.045 7.358-136.919 57.331-218.871 60.508-99.226 325.643-326.112 325.643-326.112l1.109-0.267z" />
<glyph unicode="&#xe610;" d="M512 896c-247.424 0-448-200.576-448-448s200.576-448 448-448 448 200.576 448 448c0 247.424-200.576 448-448 448zM576 128h-128v448h128v-448zM576 640h-128v128h128v-128z" />
<glyph unicode="&#xe611;" d="M951.467 558.579v0.034l-413.886 280.591c-5.824 5.331-13.442 8.61-21.952 8.61-7.759 0-14.822-2.718-20.433-7.238l0.151-0.017-420.681-273.681c-6.4-3.106-9.965-9.099-9.965-15.989 0-6.598 3.243-12.363 8.48-15.567l-0.139-0.284 58.123-39.674 378.481-256.937c3.279-2.061 5.459-5.7 5.459-9.86 0-0.205-0.021-0.405-0.032-0.608l0.177-0.343 0.036-24.907-0.215-0.119c0.002-0.062 0.019-0.122 0.019-0.186 0-3.87-3.13-7.004-6.991-7.004-1.813 0-3.452 0.71-4.695 1.845l-270.669 183.633c-2.052 1.34-4.495 2.125-7.125 2.125-6.031 0-10.673-4.098-12.186-9.662l-0.092-0.194v-105.95l-0.414-0.015c0-0.060-0.22-0.117-0.22-0.177 0-15.454 8.124-28.55 20.659-34.85l264.015-180.337 1.538-0.273c4.806-2.144 10.214-3.36 15.906-3.36 1.195 0 1.449 0.062 3.582 0.162v-0.070l0.245 0.094c5.498 0.523 10.583 2.189 15.083 4.727l0.491 0.158 271.614 182.167c10.417 7.055 17.205 19.070 17.205 32.715 0 0.853-0.073 1.687-0.124 2.528l-0.045 166.633 128.516 90.551 0.004 0.213c5.071 3.255 8.224 8.939 8.224 15.42 0 6.268-3.881 11.793-8.147 15.095zM716.8 534.818v-0.060l-182.131-124.725c-2.054-1.815-4.757-2.927-7.714-2.927-6.434 0-11.183 5.222-11.183 11.663 0 0.183 0.495 0.363 0.495 0.544v70.035l-116.215-79.36-0.333 0.043c-2.054-1.815-4.864-2.927-7.821-2.927-6.434 0-11.921 5.222-11.921 11.663 0 0.169-0.245 0.333-0.245 0.501v250.517l0.277 0.030c-0.002 0.087 0.092 0.175 0.092 0.262 0 6.447 5.269 11.671 11.706 11.671 2.94 0 5.645-1.099 7.695-2.899l0.608 0.055 116.158-78.918v69.798l-0.41 0.030c-0.002 0.087-0.25 0.175-0.25 0.262 0 6.447 5.099 11.671 11.533 11.671 2.94 0 5.559-1.099 7.61-2.899l-0.047 0.055 182.097-124.429c4.267-2.086 5.408-5.66 5.408-9.722 0-4.211-1.141-7.891-5.408-9.937z" />
<glyph unicode="&#xe612;" d="M512 896c-247.424 0-448-200.576-448-448s200.576-448 448-448 448 200.576 448 448c0 247.424-200.576 448-448 448zM512 64c-212.077 0-384 171.923-384 384s171.923 384 384 384 384-171.923 384-384-171.923-384-384-384zM684.8 474.867v0.578l-282.594 162.993c-5.173 3.59-11.433 5.724-18.206 5.724-17.673 0-32-14.327-32-32 0-0.877 0.19-1.702 0.258-2.562l-0.258-0.149v-329.301l0.107-0.062c-0.011-0.356-0.107-0.689-0.107-1.050 0-17.673 14.327-32 32-32 6.206 0 11.951 1.845 16.855 4.902l0.164-0.094 283.78 163.842v0.58c11.292 4.943 19.2 16.183 19.2 29.299s-7.908 24.356-19.2 29.299z" />
<glyph unicode="&#xe613;" d="M704 896h-384c-70.692 0-128-57.308-128-128v-640c0-70.692 57.308-128 128-128h384c70.692 0 128 57.308 128 128v640c0 70.692-57.308 128-128 128zM320 832h384c35.345 0 64-28.653 64-64v-448h-512v448c0 35.347 28.655 64 64 64zM704 64h-384c-35.345 0-64 28.655-64 64v128h512v-128c0-35.345-28.655-64-64-64zM544 160c0-17.673-14.327-32-32-32s-32 14.327-32 32c0 17.673 14.327 32 32 32s32-14.327 32-32z" />
<glyph unicode="&#xe614;" d="M864.279 449.28c0 26.419-21.613 49.067-38.679 59.021v1.163l-566.65 328.35c-10.421 7.234-22.59 11.533-36.237 11.533-35.603 0-64.245-28.862-64.245-64.465 0-1.766 0.079-3.428 0.218-5.161l-0.819-0.301v-663.375l0.625-0.124c-0.023-0.719-0.006-1.389-0.006-2.114 0-35.603 28.964-64.465 64.567-64.465 12.503 0 24.126 3.716 34.007 9.877l-1.402-0.192 569.941 330.061v1.171c17.067 9.954 38.679 32.602 38.679 59.021z" />
<glyph unicode="&#xe615;" d="M853.604 429.013c-15.377 29.83-25.532 45.51-30.782 52.847-9.058 25.598-18.761 55.552-20.956 65.914 1.591 27.782 4.986 182.204-108.698 262.157-98.957 69.914-167.597 60.469-174.976 60.469h-9.79c-7.405 0-75.215 9.444-174.513-60.471-114.076-79.953-110.669-234.443-109.073-262.225-2.202-10.362-11.94-40.282-21.028-65.879-5.267-7.337-15.456-22.997-30.889-52.828-31.595-58.987-35.669-171.881-14.718-206.869 8.378-13.993 21.683-22.016 36.503-22.016 19.693 0 36.122 11.234 49.137 25.783 8.461-15.561 18.025-28.934 27.236-40.013-22.53-11.682-42.413-28.516-49.873-46.752-7.62-18.635-4.26-41.542 8.992-61.278 16.506-24.585 54.018-53.888 139.012-53.888 80.518 0 123.266 26.921 144.262 47.667 21.239-20.745 64.292-47.667 144.533-47.667 84.702 0 122.086 29.303 138.537 53.888 13.205 19.735 16.555 42.643 8.96 61.278-7.435 18.238-27.249 35.070-49.702 46.754 9.182 11.078 18.711 24.454 27.145 40.015 12.971-14.547 29.342-25.781 48.969-25.781 14.769 0 28.028 8.030 36.378 22.020 20.881 34.985 16.821 147.889-14.667 206.876z" />
<glyph unicode="&#xe616;" d="M853.604 429.013c-15.377 29.83-25.532 45.51-30.782 52.847-9.058 25.598-18.761 55.552-20.956 65.914 1.591 27.782 4.986 182.204-108.698 262.157-98.957 69.914-167.597 60.469-174.976 60.469h-9.79c-7.405 0-75.215 9.444-174.513-60.471-114.076-79.953-110.669-234.443-109.073-262.225-2.202-10.362-11.94-40.282-21.028-65.879-5.267-7.337-15.456-22.997-30.889-52.828-31.595-58.987-35.669-171.881-14.718-206.869 8.378-13.993 21.683-22.016 36.503-22.016 19.693 0 36.122 11.234 49.137 25.783 8.461-15.561 18.025-28.934 27.236-40.013-22.53-11.682-42.413-28.516-49.873-46.752-7.62-18.635-4.26-41.542 8.992-61.278 16.506-24.585 54.018-53.888 139.012-53.888 80.518 0 123.266 26.921 144.262 47.667 21.239-20.745 64.292-47.667 144.533-47.667 84.702 0 122.086 29.303 138.537 53.888 13.205 19.735 16.555 42.643 8.96 61.278-7.435 18.238-27.249 35.070-49.702 46.754 9.182 11.078 18.711 24.454 27.145 40.015 12.971-14.547 29.342-25.781 48.969-25.781 14.769 0 28.028 8.030 36.378 22.020 20.881 34.985 16.821 147.889-14.667 206.876zM820.499 276.309c-5.583 8.717-11.298 19.791-15.253 30.069l-34.327-13.173-24.977 5.212c-13.135-63.586-64.698-100.486-65.214-100.849 0 0-9.135-20.907-4.209-35.307s21.549-18.948 21.549-18.948c15.853 0 43.885-16.493 50.795-25.38-0.378-1.675-1.634-5.591-5.852-9.95-6.673-6.897-29.278-23.17-85.98-23.17-65.229 0-90.959 21.054-103.546 31.567l-0.252-0.35c0 0-10.611 12.885-37.137 12.885s-37.391-6.541-42.694-11.482c-8.932-10.095-36.563-32.619-104.209-32.619-56.896 0-78.618 16.271-85.314 23.17-4.23 4.358-5.491 8.273-5.871 9.95 6.933 8.887 35.061 25.38 50.97 25.38 0 0 11.791 3.789 18.234 21.6s-0.834 32.663-0.834 32.663c-0.518 0.361-52.26 37.271-65.44 100.858l-25.065-5.193-34.449 13.21c-3.97-10.278-9.711-21.28-15.311-29.997-0.704 10.675-0.7 24.851 0.879 42.43 2.97 33.092 10.569 65.261 19.563 82.061 18.208 35.206 27.322 47.053 27.305 47.053h-0.002l3.59 4.034 1.871 5.122c7.159 19.925 24.030 68.113 26.097 85.651l0.361 3.063-0.269 3.081c-0.124 1.444-11.469 145.133 83.236 211.509 45.67 32.151 82.069 43.945 104.659 48.171 12.981 2.675 51.068 7.561 80.896-0.361 0.053-0.015 0.105-0.053 0.158-0.068 23.987-4.553 55.386-16.563 99.531-47.748 94.379-66.377 79.881-210.071 79.881-211.516v-3.091l3.985-3.085c2.059-17.538 20.687-65.771 27.821-85.696l2.771-3.968 4.314-2.965h0.083c-0.017 0 9.107-12.913 27.255-48.122 8.962-16.798 16.559-49.412 19.518-82.505 1.572-17.579 1.587-32.523 0.885-43.198z" />
<glyph unicode="&#xe617;" d="M416 864h-320v-320h320v320zM352 608h-192v192h192v-192zM608 864v-320h320v320h-320zM864 608h-192v192h192v-192zM480 864h64v-192h-64v192zM352 416h192v192h-64v-128h-128zM96 480h192v-64h-192v64zM96 32h320v320h-320v-320zM160 288h192v-192h-192v192zM864 96h-256v-64h320v320h-64zM800 352h-320v-320h64v256h256zM608 480h313.6v-64h-313.6v64z" />
<glyph unicode="&#xe618;" d="M512.128 896.866c-247.424 0-448-200.576-448-448s200.576-448 448-448c247.424 0 448 200.576 448 448s-200.576 448-448 448zM497.562 125.675c-35.347 0-64.002 28.655-64.002 64.002s28.655 64.002 64.002 64.002c35.347 0 64.002-28.655 64.002-64.002s-28.655-64.002-64.002-64.002zM692.638 434.746c-0.113-0.164-0.23-0.326-0.343-0.489-1.986-2.839-23.166-29.709-46.558-44.241-12.9-8.013-69.461-38.016-87.119-72.149h-112.034c19.938 74.667 90.793 125.137 146.688 161.178 15.588 10.050 31.93 45.997 31.93 75.554 0 57.952-46.978 104.996-104.93 104.996s-104.93-46.948-104.93-104.548c0 0-105.361 0.254-104.836 3.232 1.984 113.515 95.106 206.057 209.766 206.057 115.902 0 209.86-94.357 209.86-210.259 0-44.474-13.89-85.393-37.493-119.33z" />
<glyph unicode="&#xe619;" d="M512 896c-247.424 0-448-200.576-448-448s200.576-448 448-448 448 200.576 448 448-200.576 448-448 448zM512 64c-212.077 0-384 171.923-384 384s171.923 384 384 384 384-171.923 384-384-171.923-384-384-384z" />
<glyph unicode="&#xe61a;" d="M512 896c-247.424 0-448-200.576-448-448s200.576-448 448-448 448 200.576 448 448-200.576 448-448 448zM512 64c-212.077 0-384 171.923-384 384s171.923 384 384 384 384-171.923 384-384-171.923-384-384-384zM736 448c0-123.712-100.288-224-224-224s-224 100.288-224 224 100.288 224 224 224 224-100.288 224-224z" />
<glyph unicode="&#xe61b;" d="M896.683 562.556l0.433 233.722-95.174-95.174c-70.389 81.451-174.391 133.030-290.5 133.030-212.077 0-384-171.923-384-384s171.923-384 384-384c167.183 0 309.338 106.874 362.063 256h-68.766c-49.387-113.001-162.089-192-293.297-192-176.732 0-320 143.268-320 320s143.268 320 320 320c98.436 0 186.455-44.465 245.137-114.394l-93.617-93.617 233.722 0.433z" />
<glyph unicode="&#xe61c;" d="M925.623 647.379l-90.511 90.511-407.379-407.381-226.204 226.204-90.509-90.509 316.783-316.783 90.509 90.509-0.070 0.070z" />
<glyph unicode="&#xe61d;" d="M918.788 75.763l-158.242 158.242c63.727 68.486 102.765 160.254 102.765 261.182 0 211.846-171.735 383.58-383.58 383.58s-383.58-171.733-383.58-383.58c0-211.844 171.735-383.58 383.58-383.58 87.878 0 168.798 29.619 233.476 79.326l160.375-160.375c12.482-12.482 32.721-12.482 45.205 0 12.484 12.484 12.484 32.723 0 45.205zM160.081 495.187c0 176.538 143.113 319.65 319.65 319.65s319.65-143.113 319.65-319.65c0-176.538-143.113-319.65-319.65-319.65s-319.65 143.113-319.65 319.65z" />
<glyph unicode="&#xe61e;" d="M287.364 306.306c0 0 141.436 189.312 408.102 192.777v-157.030l232.685 219.159-232.685 219.162v-151.46c-53.333-1.628-346.82-24.22-408.102-322.607zM861.867 243.561c0-35.213-28.8-64.361-64.013-64.361h-573.811c-35.213 0-64.043 29.148-64.043 64.361v382.541c0 35.213 28.83 62.965 64.043 62.965h381.824v64h-381.824c-70.423 0-128.043-56.542-128.043-126.965v-382.541c0-70.423 57.619-128.361 128.043-128.361h573.811c70.423 0 128.013 57.937 128.013 128.361v127.639h-64v-127.639z" />
<glyph unicode="&#xe61f;" d="M907.168 520.305c5.229 4.683 8.585 11.413 8.585 18.987 0 14.125-11.45 25.574-25.574 25.574-1.286 0-2.519-0.194-3.757-0.378l-255.588 13.783-92.768 240.576c-2.187 11.906-12.57 23.437-25.107 23.437-11.904 0-21.818-3.885-24.67-16.685h-0.209l-93.446-244.832-256.544-15.083c-1.395 0.235-2.805-0.194-4.267-0.194-14.125 0-25.574-11.761-25.574-25.886 0-7.337 3.13-14.063 8.079-18.726l-0.081-0.326 205.395-166.882-66.624-250.178c-1.438-3.196-2.278-6.726-2.278-10.46 0-14.125 11.45-25.579 25.574-25.579 6.628 0 12.608 2.583 17.152 6.718l217.267 140.625 216.39-140.060c4.608-4.497 10.891-7.287 17.837-7.287 14.125 0 25.574 11.45 25.574 25.574 0 3.098-0.636 6.029-1.645 8.779l-67.068 251.829 203.729 165.489-0.382 1.184z" />
<glyph unicode="&#xe620;" d="M905.054 515.593c5.201 4.657 8.535 11.349 8.535 18.88 0 14.046-11.386 25.431-25.431 25.431-1.28 0-2.507-0.194-3.735-0.375l-254.153 13.707-92.243 239.221c-2.174 11.838-12.499 21.186-24.966 21.186-11.836 0-21.696-8.043-24.531-18.709h-0.209l-92.922-241.338-255.102-13.939c-1.387 0.235-2.79 0.337-4.243 0.337-14.046 0-25.431-11.43-25.431-25.476 0-7.296 3.113-13.852 8.034-18.487l-0.079-0.258 204.241-165.911-66.249-248.757c-1.429-3.179-2.266-6.682-2.266-10.391 0-14.044 11.386-25.431 25.431-25.431 6.59 0 12.538 2.571 17.054 6.684l216.045 139.836 215.177-139.273c4.582-4.471 10.829-7.247 17.737-7.247 14.046 0 25.431 11.386 25.431 25.431 0 3.081-0.631 5.997-1.634 8.73l-66.692 250.415 202.586 164.559-0.384 1.178zM637.611 368.749l55.622-208.855-181.444 117.44-181.446-117.442 55.622 208.855-167.763 136.273 215.823 11.639 77.762 201.662 77.762-201.662 215.823-11.639-167.761-136.271z" />
<glyph unicode="&#xe621;" d="M512.081 896.201c-247.424 0-448-200.666-448-448.201s200.576-448.201 448-448.201 448 200.668 448 448.201c0 247.535-200.578 448.201-448 448.201zM548.646 316.058l-90.549-90.551-0.683 0.683-0.683-0.683-90.549 90.551 0.683 0.683-135.142 135.142 90.549 90.551 135.142-135.142 263.2 263.2 90.549-90.551-263.2-263.198 0.683-0.685z" />
<glyph unicode="&#xe622;" d="M690.628 361.481c0 0-19.424 6.967-32.427 1.459-13.003-5.51-21.939-22.645-21.939-22.645l-46.481-83.597c-70.566 22.556-151.053 96.555-160.932 105.805-9.286 9.914-83.571 90.688-106.127 161.254l83.435 46.645c0 0 17.054 9.018 22.562 22.020 5.51 13.003-1.54 32.508-1.54 32.508l-101.173 185.594c0 0-12.988 18.368-29.517 22.116-16.439 3.727-38.807-8.811-38.807-8.811s-100.845-51.49-121.867-140.836c-20.937-88.983 10.598-279.857 170.498-441.056l-0.015-0.015c0.331-0.331 0.663-0.649 0.992-0.977 0.329-0.331 0.649-0.663 0.977-0.992l0.015 0.015c161.197-159.895 351.746-191.108 440.73-170.172 89.348 21.024 140.512 122.193 140.512 122.193s12.538 22.37 8.811 38.807c-3.746 16.529-22.116 29.517-22.116 29.517l-185.589 101.167z" />
<glyph unicode="&#xe623;" d="M512 896c-247.424 0-448-200.576-448-448s200.576-448 448-448 448 200.576 448 448c0 247.424-200.576 448-448 448zM512 64c-212.077 0-384 171.923-384 384s171.923 384 384 384 384-171.923 384-384-171.923-384-384-384zM544 429.254v306.746c0 17.673-14.327 32-32 32s-32-14.327-32-32v-320c0-9.495 4.218-17.933 10.786-23.795 0.393-0.437 0.683-0.93 1.103-1.35l135.765-135.765c12.497-12.497 32.757-12.497 45.254 0s12.497 32.757 0 45.254l-128.909 128.911z" />
<glyph unicode="&#xe624;" d="M603.264 447.245l271.529 271.529c24.994 24.994 24.994 65.517 0 90.509-24.994 24.994-65.517 24.994-90.509 0l-271.529-271.526-273.039 273.037c-24.994 24.994-65.517 24.994-90.509 0-24.994-24.994-24.994-65.517 0-90.509l273.037-273.037-271.529-271.531c-24.994-24.994-24.994-65.517 0-90.509 24.994-24.994 65.517-24.994 90.509 0l271.531 271.529 270.020-270.020c24.994-24.994 65.517-24.994 90.509 0 24.994 24.994 24.994 65.517 0 90.509l-270.020 270.020z" />
<glyph unicode="&#xe625;" d="M533.86 612.023c-6.298 6.298-14.566 9.404-22.82 9.355-8.254 0.049-16.523-3.057-22.82-9.355l-407.294-407.294c-12.497-12.497-12.497-32.757 0-45.254s32.757-12.497 45.254 0l384.86 384.86 384.86-384.86c12.497-12.497 32.757-12.497 45.254 0s12.497 32.757 0 45.254l-407.294 407.294zM928 750.933h-832c-17.673 0-32-14.327-32-32s14.327-32 32-32h832c17.673 0 32 14.327 32 32s-14.327 32-32 32z" />
<glyph unicode="&#xe626;" d="M626.799 458.052c46.633 34.528 76.875 89.931 76.875 152.41-0.002 104.678-84.862 189.538-189.54 189.538s-189.538-84.86-189.538-189.538c0-62.479 30.242-117.882 76.875-152.41-154.342-47.977-266.413-191.927-266.413-362.052h758.155c-0.002 170.125-112.073 314.076-266.413 362.052z" />
<glyph unicode="&#xe627;" d="M645.15 459.881c55.11 40.806 90.85 106.281 90.85 180.119 0 123.712-100.288 224-224 224s-224-100.288-224-224c0-73.839 35.74-139.313 90.85-180.119-182.404-56.702-314.85-226.822-314.85-427.881h64c0 212.077 171.923 384 384 384s384-171.923 384-384h64c0 201.058-132.446 371.179-314.85 427.881zM348.548 641.261c0 88.367 71.635 160 160 160 88.367 0 160-71.633 160-160 0-88.365-71.633-160-160-160-88.365 0-160 71.635-160 160z" />
<glyph unicode="&#xe628;" d="M556.399 458.052c46.633 34.528 76.875 89.931 76.875 152.41-0.002 104.678-84.862 189.538-189.54 189.538s-189.538-84.86-189.538-189.538c0-62.479 30.242-117.882 76.875-152.41-154.342-47.977-266.413-191.927-266.413-362.052h758.155c-0.002 170.125-112.073 314.076-266.413 362.052zM690.799 458.052c46.633 34.528 76.875 89.931 76.875 152.41-0.002 104.678-84.862 189.538-189.54 189.538-18.129 0-35.663-2.549-52.267-7.302 79.26-22.69 137.271-95.686 137.271-182.236 0-62.479-30.242-117.882-76.875-152.41 154.342-47.977 266.413-191.925 266.413-362.052h104.533c0 170.127-112.070 314.076-266.411 362.052z" />
<glyph unicode="&#xe629;" d="M571.891 447.637c42.268 35.219 69.184 88.241 69.184 147.563 0 106.039-85.961 192-192 192s-192-85.961-192-192c0-58.889 26.539-111.558 68.277-146.778-152.188-51.029-261.89-194.686-261.89-364.055 0-0.39 0.028-0.777 0.030-1.167h66.259c-0.002 0.599-0.045 1.19-0.045 1.79 0 169.762 132.215 308.57 299.277 319.26 6.605-0.687 13.306-1.050 20.092-1.050 6.948 0 13.805 0.39 20.563 1.109 167.439-10.3 300.068-149.289 300.068-319.319 0-0.599-0.043-1.19-0.045-1.79h61.773c0.002 0.39 0.030 0.774 0.030 1.167-0.002 168.51-108.591 311.563-259.573 363.27zM321.075 595.2c0 70.692 57.308 128 128 128s128-57.308 128-128c0-66.012-49.982-120.318-114.159-127.223-5.133 0.203-10.272 0.39-15.454 0.39-4.256 0-8.465-0.183-12.687-0.32-63.955 7.117-113.7 61.301-113.7 127.153zM699.891 473.237c42.268 35.219 69.184 88.241 69.184 147.563 0 106.039-85.961 192-192 192-15.529 0-30.609-1.892-45.071-5.372 36.572-14.287 68.465-37.877 92.755-67.904 47.055-18.921 80.316-64.9 80.316-118.724 0-37.995-16.614-72.049-42.908-95.482-0.156-9.958-21.491-29.922-21.491-59.317 0-29.397 21.116-39.181 20.578-46.496 136.207-36.736 236.452-161.094 236.452-308.915 0-0.599-0.043-1.19-0.045-1.79h61.773c0.002 0.39 0.030 0.774 0.030 1.167-0.002 168.51-108.591 311.563-259.573 363.27z" />
<glyph unicode="&#xe62a;" d="M534.451 224.704c0.425 0.425 0.719 0.924 1.116 1.365l400.557 400.557c12.333 12.331 12.333 32.326 0 44.657-12.331 12.333-32.326 12.333-44.657 0l-379.469-379.467-379.467 379.469c-12.333 12.333-32.326 12.333-44.659 0s-12.333-32.326 0-44.657l400.557-400.559c0.397-0.442 0.691-0.941 1.116-1.365 6.197-6.197 14.33-9.269 22.453-9.237 8.124-0.032 16.256 3.040 22.453 9.237z" />
<glyph unicode="&#xe62b;" d="M354.007 448l383.868 383.868c12.476 12.476 12.476 32.702 0 45.175-12.476 12.476-32.702 12.476-45.175 0l-405.201-405.201c-0.448-0.401-0.951-0.698-1.382-1.129-6.27-6.27-9.376-14.496-9.344-22.714-0.032-8.218 3.074-16.444 9.344-22.714 0.431-0.431 0.934-0.727 1.382-1.129l405.201-405.201c12.476-12.476 32.7-12.476 45.175 0s12.476 32.702 0 45.175l-383.868 383.868z" />
<glyph unicode="&#xe62c;" d="M782.468 809.043l-90.155 90.157-450.782-450.782 0.418-0.418-0.418-0.42 450.782-450.78 90.155 90.157-361.043 361.043z" />
<glyph unicode="&#xe62d;" d="M669.997 448l-383.868 383.868c-12.476 12.476-12.476 32.702 0 45.175 12.476 12.476 32.702 12.476 45.175 0l405.201-405.201c0.448-0.401 0.951-0.698 1.382-1.129 6.27-6.27 9.376-14.496 9.344-22.714 0.032-8.218-3.074-16.444-9.344-22.714-0.431-0.431-0.934-0.727-1.382-1.129l-405.201-405.201c-12.476-12.476-32.7-12.476-45.175 0s-12.476 32.702 0 45.175l383.868 383.868z" />
<glyph unicode="&#xe62e;" d="M782.468 449.805l-450.78 450.782-90.157-90.157 361.043-361.043-361.043-361.043 90.157-90.157 450.78 450.782-0.418 0.418z" />
<glyph unicode="&#xe62f;" d="M534.451 677.696c0.425-0.425 0.719-0.924 1.116-1.365l400.557-400.557c12.333-12.331 12.333-32.326 0-44.657-12.331-12.333-32.326-12.333-44.657 0l-379.469 379.467-379.467-379.469c-12.333-12.333-32.326-12.333-44.659 0s-12.333 32.326 0 44.657l400.557 400.559c0.397 0.442 0.691 0.941 1.116 1.365 6.197 6.197 14.33 9.269 22.453 9.237 8.124 0.032 16.256-3.040 22.453-9.237z" />
<glyph unicode="&#xe630;" d="M669.434 594.85c22.594 0 44.655-1.852 65.988-5.342-22.347 133.382-163.486 236.211-334.381 236.211-186.426 0-337.553-122.342-337.553-273.257 0-74.607 36.975-142.199 96.851-191.511l-23.249-101.359 105.519 51.571c29.978-12.926 62.697-22.153 97.203-27.253-2.33 12.949-3.582 26.185-3.582 39.661 0.002 149.822 149.182 271.279 333.203 271.279zM532.851 683.315c21.762 0 39.403-17.641 39.403-39.403s-17.641-39.403-39.403-39.403c-21.762 0-39.403 17.643-39.403 39.403s17.641 39.403 39.403 39.403zM282.097 604.508c-21.762 0-39.403 17.643-39.403 39.403s17.641 39.403 39.403 39.403c21.762 0 39.403-17.641 39.403-39.403s-17.641-39.403-39.403-39.403zM959.488 322.223c0 129.207-129.389 233.952-288.998 233.952s-288.998-104.742-288.998-233.952 129.389-233.952 288.998-233.952c49.033 0 95.189 9.918 135.642 27.36l90.34-44.154-19.904 86.78c51.262 42.221 82.921 100.092 82.921 163.966zM577.858 360.183c-21.762 0-39.403 17.643-39.403 39.403s17.641 39.403 39.403 39.403c21.762 0 39.403-17.641 39.403-39.403s-17.641-39.403-39.403-39.403zM770.746 360.183c-21.762 0-39.403 17.643-39.403 39.403s17.641 39.403 39.403 39.403c21.762 0 39.403-17.641 39.403-39.403s-17.641-39.403-39.403-39.403z" />
<glyph unicode="&#xe631;" d="M959.488 322.223c0 110.236-94.208 202.605-220.983 227.373 0.021 0.956 0.090 1.905 0.090 2.865 0 150.916-151.127 273.257-337.553 273.257s-337.553-122.342-337.553-273.257c0-74.607 36.975-142.199 96.851-191.511l-23.249-101.359 105.519 51.571c43.181-18.618 91.968-29.76 143.755-31.563 24.766-108.843 142.507-191.326 284.124-191.326 49.033 0 95.189 9.918 135.642 27.36l90.34-44.154-19.904 86.78c51.264 42.219 82.923 100.090 82.923 163.964zM382.187 337.664c-46.53 2.436-89.869 13.715-127.11 31.75l-53.69-26.24 11.748 51.221c-52.533 38.082-85.353 91.91-85.353 151.635 0 115.407 122.342 208.962 273.257 208.962 146.494 0 265.986-88.166 272.866-198.889-1.143 0.011-2.272 0.070-3.418 0.070-153.193 0-278.47-96.508-288.301-218.511zM827.029 157.668l-42.097 20.574c-33.116-16.038-72.346-25.361-114.445-25.361-118.327 0-214.249 73.353-214.249 163.838s95.923 163.838 214.249 163.838c118.327 0 214.249-73.353 214.249-163.838 0-46.827-25.73-89.033-66.921-118.891l9.214-40.16zM315.070 618.193c0-21.761-17.641-39.403-39.403-39.403s-39.403 17.641-39.403 39.403c0 21.761 17.641 39.403 39.403 39.403s39.403-17.641 39.403-39.403zM565.824 618.193c0-21.761-17.641-39.403-39.403-39.403s-39.403 17.641-39.403 39.403c0 21.761 17.641 39.403 39.403 39.403s39.403-17.641 39.403-39.403zM617.261 367.439c0-21.761-17.641-39.403-39.403-39.403s-39.403 17.641-39.403 39.403c0 21.761 17.641 39.403 39.403 39.403s39.403-17.641 39.403-39.403zM810.148 367.439c0-21.761-17.641-39.403-39.403-39.403s-39.403 17.641-39.403 39.403c0 21.761 17.641 39.403 39.403 39.403s39.403-17.641 39.403-39.403z" />
</font>
</defs>
</svg>
